<svg xmlns="http://www.w3.org/2000/svg" width="128" height="138" viewBox="0 0 128 138">
    <g fill="none" fill-rule="evenodd" stroke="#20B8ED" stroke-width="3">
        <path stroke-linecap="round" d="M117.801 37.601c3.583-18.304-4.278-22.238-6.366-23.08-5.003-2.013-5.172 1.591-17.51-5.968C81.592.99 80 .99 71.246 2.583 62.49 4.175 56.521 15.716 55.328 17.309"/>
        <path stroke-linecap="round" d="M92.683 40.436s19.596-7.692 28.387 0c8.792 7.692 3.847 15.75 0 21.428-3.845 5.678-5.32 8.608-2.383 15.017 2.933 6.411 7.02 12.48 3.218 14.598-7.034 3.916-10.034-1.568-17.223-14.219-4.598-8.089-17.298-1.83-20.46-1.293-1.741.295-3.564-1.1-3.808-3.114"/>
        <path stroke-linecap="round" d="M100.742 64.612s-6.594-6.228-12.822 0C81.692 70.839 76.567 75.784 72.903 76.7c-3.664.915-24.845 4.713-28.205-10.989 0 0-1.715-6.618 2.513-10.36M43.91 68.561s-11.986 2.187-21.186-5.785C16.983 57.8 14.688 40.01 31.307 36.41"/>
        <path stroke-linecap="round" stroke-linejoin="round" d="M30.063 16.021S43.91-4.625 66.073 4.751"/>
        <path stroke-linecap="round" d="M32.303 67.817C7.59 70.691-2.656 51.357 3.97 33.687c6.625-17.666 26.092-17.666 26.092-17.666s9.911-1.048 18.342 6.045M50.633 35.376s15.657-1.95 24.348 9.142M67.054 37.601s4.715-7.594 11.902-9.302c7.184-1.713 9.923 2.392 15.909 0M55.329 50.02s-9.546 8.048-19.767 8.2"/>
        <path d="M41.332 109.115a6.332 6.332 0 0 0 6.333-6.333c0-2.331-2.111-6.925-6.333-13.782C37.111 95.857 35 100.45 35 102.782a6.332 6.332 0 0 0 6.332 6.333zM71.832 136.35a4.832 4.832 0 0 0 4.833-4.832c0-1.78-1.611-5.286-4.833-10.518-3.221 5.232-4.832 8.738-4.832 10.518a4.832 4.832 0 0 0 4.832 4.832zM82.332 105.585a3.332 3.332 0 0 0 3.333-3.332c0-1.227-1.111-3.645-3.333-7.253-2.221 3.608-3.332 6.026-3.332 7.253a3.332 3.332 0 0 0 3.332 3.332z"/>
    </g>
</svg>
