<svg xmlns="http://www.w3.org/2000/svg" width="118" height="36" viewBox="0 0 118 36">
    <defs>
        <path id="a" d="M0 35.948h117.591V.323H0z"/>
    </defs>
    <g fill="none" fill-rule="evenodd">
        <path fill="#FEFEFE" d="M0 35.952h117.591V.327H0z"/>
        <path fill="#00AEDB" d="M16.229 23.826c-.992.604-1.948.493-2.69-.468l-.003-.003c-2.138-2.77-3.666-6.002-3.735-8.288-.006-.945.42-1.68 1.869-.973.976.477 2.105 1.25 3.302 2.262 1.362 1.15 2.81 2.607 4.217 4.292.15.178.295.356.439.535-1.203 1.114-2.363 2.013-3.4 2.643zM33.592 15.118c-.02-1.133-1.037-1.467-2.143-.882-.91.482-1.938 1.202-3.023 2.12-1.362 1.15-2.81 2.608-4.216 4.292A37.812 37.812 0 0 0 21.7 24c-.602.904-1.123 1.783-1.555 2.614-.693 1.33-.175 2.031.823 2.226l.106.018.122.018c.152.016.302.024.451.025.018 0 .034.003.05.003 5.118 0 11.703-8.962 11.895-13.787M16.525 11.891c.228.433.48.878.754 1.333a36.83 36.83 0 0 0 3.26 4.54c.385.459.772.902 1.16 1.326.388-.424.775-.867 1.16-1.326a36.791 36.791 0 0 0 3.26-4.54c.274-.455.526-.9.754-1.333.64-1.215.622-2.47-1.477-2.727a31.402 31.402 0 0 0-3.7-.207c-1.233 0-2.48.061-3.681.204-2.112.254-2.13 1.513-1.49 2.73"/>
        <path fill="#221F20" d="M85.39 14.657h-2.334c-1.037 0-1.84.327-2.41.981-.57.655-.855 1.436-.855 2.344v1.552c0 .802.233 1.457.7 1.964.465.506 1.113.76 1.944.76.712 0 1.47-.292 1.963-.865.502-.583.658-.952.794-1.426.14-.49.199-1.307.199-1.75v-3.56zm0 8.661c-.367.51-.947.944-1.45 1.188a4.555 4.555 0 0 1-2.002.443 6.273 6.273 0 0 1-1.975-.325c-.613-.196-1.17-.56-1.666-1.056a4.229 4.229 0 0 1-1.062-1.825c-.199-.724-.245-1.363-.245-2.209v-1.711c0-.823.145-1.604.436-2.343.29-.739.7-1.378 1.229-1.916a5.932 5.932 0 0 1 1.882-1.282c.726-.317 1.525-.475 2.395-.475h5.26v12.825H85.39v-1.314zM90.99 24.632h2.8V11.807h-2.8zM57.39 21.782h2.957c.727 0 1.35-.248 1.866-.744.52-.496.78-1.144.78-1.948v-1.742c0-.802-.245-1.452-.732-1.948-.488-.495-1.126-.743-1.914-.743H57.39v7.125zm0-9.975h3.082a5.46 5.46 0 0 1 2.13.411c.654.275 1.214.65 1.68 1.124a5.208 5.208 0 0 1 1.104 1.71c.27.665.405 1.378.405 2.138v2.06c0 .758-.13 1.472-.389 2.136a4.881 4.881 0 0 1-1.104 1.71 5.174 5.174 0 0 1-1.726 1.124c-.675.275-1.417.412-2.225.412h-5.755v-17.1h2.799v4.275zM75.591 14.657h-1.868c-.788 0-1.374.248-1.757.743-.386.497-.577 1.146-.577 1.948v7.284h-2.798v-7.6c0-1.542.435-2.798 1.306-3.77.872-.97 2.084-1.455 3.64-1.455h2.054v2.85zM99.39 14.657v9.975h-2.8V11.807h5.26c.87 0 1.668.158 2.395.475a5.926 5.926 0 0 1 1.881 1.282 5.66 5.66 0 0 1 1.23 1.916c.29.739.435 1.52.435 2.343v6.809h-2.8l-.001-6.65c0-.908-.284-1.69-.855-2.344-.57-.654-1.373-.981-2.41-.981H99.39zM47.591 21.781v-9.974h2.801V24.41c0 .68-.111 1.542-.334 2.276-.217.708-.67 1.4-1.167 1.938-.498.538-1.075.923-1.858 1.232a6.444 6.444 0 0 1-2.397.474c-1.056 0-1.94-.11-2.643-.332-.706-.221-1.965-.86-2.65-1.34l1.294-2.527c.648.424 1.686.946 2.206 1.116.517.168 1.068.233 1.793.233 1.059 0 1.768-.208 2.32-.806.5-.542.635-1.245.635-1.726v-.317h-3.203a5.53 5.53 0 0 1-2.115-.395 4.863 4.863 0 0 1-1.649-1.093 4.788 4.788 0 0 1-1.058-1.663 5.788 5.788 0 0 1-.373-2.105v-7.57h2.8v7.41c0 .804.223 1.43.669 1.884.445.456 1.063.681 1.85.681h3.08z"/>
    </g>
</svg>
