<?xml version="1.0" encoding="UTF-8"?>
<svg width="760px" height="748px" viewBox="0 0 760 748" version="1.1" xmlns="http://www.w3.org/2000/svg" xmlns:xlink="http://www.w3.org/1999/xlink">
    <!-- Generator: Sketch 45.2 (43514) - http://www.bohemiancoding.com/sketch -->
    <title>madrs_expanded</title>
    <desc>Created with Sketch.</desc>
    <defs>
        <rect id="path-1" x="0" y="0" width="82" height="36" rx="18"></rect>
        <filter x="-19.5%" y="-38.9%" width="139.0%" height="188.9%" filterUnits="objectBoundingBox" id="filter-2">
            <feOffset dx="0" dy="2" in="SourceAlpha" result="shadowOffsetOuter1"></feOffset>
            <feGaussianBlur stdDeviation="5" in="shadowOffsetOuter1" result="shadowBlurOuter1"></feGaussianBlur>
            <feColorMatrix values="0 0 0 0 0   0 0 0 0 0   0 0 0 0 0  0 0 0 0.16 0" type="matrix" in="shadowBlurOuter1"></feColorMatrix>
        </filter>
        <rect id="path-3" x="0" y="0" width="82" height="36" rx="18"></rect>
        <filter x="-19.5%" y="-38.9%" width="139.0%" height="188.9%" filterUnits="objectBoundingBox" id="filter-4">
            <feOffset dx="0" dy="2" in="SourceAlpha" result="shadowOffsetOuter1"></feOffset>
            <feGaussianBlur stdDeviation="5" in="shadowOffsetOuter1" result="shadowBlurOuter1"></feGaussianBlur>
            <feColorMatrix values="0 0 0 0 0   0 0 0 0 0   0 0 0 0 0  0 0 0 0.16 0" type="matrix" in="shadowBlurOuter1"></feColorMatrix>
        </filter>
        <rect id="path-5" x="0" y="0" width="82" height="36" rx="18"></rect>
        <filter x="-19.5%" y="-38.9%" width="139.0%" height="188.9%" filterUnits="objectBoundingBox" id="filter-6">
            <feOffset dx="0" dy="2" in="SourceAlpha" result="shadowOffsetOuter1"></feOffset>
            <feGaussianBlur stdDeviation="5" in="shadowOffsetOuter1" result="shadowBlurOuter1"></feGaussianBlur>
            <feColorMatrix values="0 0 0 0 0   0 0 0 0 0   0 0 0 0 0  0 0 0 0.16 0" type="matrix" in="shadowBlurOuter1"></feColorMatrix>
        </filter>
        <rect id="path-7" x="0" y="0" width="82" height="36" rx="18"></rect>
        <filter x="-19.5%" y="-38.9%" width="139.0%" height="188.9%" filterUnits="objectBoundingBox" id="filter-8">
            <feOffset dx="0" dy="2" in="SourceAlpha" result="shadowOffsetOuter1"></feOffset>
            <feGaussianBlur stdDeviation="5" in="shadowOffsetOuter1" result="shadowBlurOuter1"></feGaussianBlur>
            <feColorMatrix values="0 0 0 0 0   0 0 0 0 0   0 0 0 0 0  0 0 0 0.16 0" type="matrix" in="shadowBlurOuter1"></feColorMatrix>
        </filter>
        <rect id="path-9" x="0" y="0" width="82" height="36" rx="18"></rect>
        <filter x="-19.5%" y="-38.9%" width="139.0%" height="188.9%" filterUnits="objectBoundingBox" id="filter-10">
            <feOffset dx="0" dy="2" in="SourceAlpha" result="shadowOffsetOuter1"></feOffset>
            <feGaussianBlur stdDeviation="5" in="shadowOffsetOuter1" result="shadowBlurOuter1"></feGaussianBlur>
            <feColorMatrix values="0 0 0 0 0   0 0 0 0 0   0 0 0 0 0  0 0 0 0.16 0" type="matrix" in="shadowBlurOuter1"></feColorMatrix>
        </filter>
        <rect id="path-11" x="0" y="0" width="82" height="36" rx="18"></rect>
        <filter x="-19.5%" y="-38.9%" width="139.0%" height="188.9%" filterUnits="objectBoundingBox" id="filter-12">
            <feOffset dx="0" dy="2" in="SourceAlpha" result="shadowOffsetOuter1"></feOffset>
            <feGaussianBlur stdDeviation="5" in="shadowOffsetOuter1" result="shadowBlurOuter1"></feGaussianBlur>
            <feColorMatrix values="0 0 0 0 0   0 0 0 0 0   0 0 0 0 0  0 0 0 0.16 0" type="matrix" in="shadowBlurOuter1"></feColorMatrix>
        </filter>
        <rect id="path-13" x="0" y="0" width="82" height="36" rx="18"></rect>
        <filter x="-19.5%" y="-38.9%" width="139.0%" height="188.9%" filterUnits="objectBoundingBox" id="filter-14">
            <feOffset dx="0" dy="2" in="SourceAlpha" result="shadowOffsetOuter1"></feOffset>
            <feGaussianBlur stdDeviation="5" in="shadowOffsetOuter1" result="shadowBlurOuter1"></feGaussianBlur>
            <feColorMatrix values="0 0 0 0 0   0 0 0 0 0   0 0 0 0 0  0 0 0 0.16 0" type="matrix" in="shadowBlurOuter1"></feColorMatrix>
        </filter>
        <rect id="path-15" x="0" y="0" width="82" height="36" rx="18"></rect>
        <filter x="-19.5%" y="-38.9%" width="139.0%" height="188.9%" filterUnits="objectBoundingBox" id="filter-16">
            <feOffset dx="0" dy="2" in="SourceAlpha" result="shadowOffsetOuter1"></feOffset>
            <feGaussianBlur stdDeviation="5" in="shadowOffsetOuter1" result="shadowBlurOuter1"></feGaussianBlur>
            <feColorMatrix values="0 0 0 0 0   0 0 0 0 0   0 0 0 0 0  0 0 0 0.16 0" type="matrix" in="shadowBlurOuter1"></feColorMatrix>
        </filter>
        <rect id="path-17" x="0" y="0" width="82" height="36" rx="18"></rect>
        <filter x="-19.5%" y="-38.9%" width="139.0%" height="188.9%" filterUnits="objectBoundingBox" id="filter-18">
            <feOffset dx="0" dy="2" in="SourceAlpha" result="shadowOffsetOuter1"></feOffset>
            <feGaussianBlur stdDeviation="5" in="shadowOffsetOuter1" result="shadowBlurOuter1"></feGaussianBlur>
            <feColorMatrix values="0 0 0 0 0   0 0 0 0 0   0 0 0 0 0  0 0 0 0.16 0" type="matrix" in="shadowBlurOuter1"></feColorMatrix>
        </filter>
        <rect id="path-19" x="0" y="0" width="82" height="36" rx="18"></rect>
        <filter x="-19.5%" y="-38.9%" width="139.0%" height="188.9%" filterUnits="objectBoundingBox" id="filter-20">
            <feOffset dx="0" dy="2" in="SourceAlpha" result="shadowOffsetOuter1"></feOffset>
            <feGaussianBlur stdDeviation="5" in="shadowOffsetOuter1" result="shadowBlurOuter1"></feGaussianBlur>
            <feColorMatrix values="0 0 0 0 0   0 0 0 0 0   0 0 0 0 0  0 0 0 0.16 0" type="matrix" in="shadowBlurOuter1"></feColorMatrix>
        </filter>
    </defs>
    <g id="design_web" stroke="none" stroke-width="1" fill="none" fill-rule="evenodd">
        <g id="010_web_technology_clinical-indications-&amp;-research-applications" transform="translate(-340.000000, -716.000000)">
            <g id="madrs_expanded" transform="translate(340.000000, 715.000000)">
                <g id="bar" stroke="#00AFDB">
                    <path d="M0,748 L760,748" id="Path-2-Copy"></path>
                    <path d="M0,1.5 L760,1.5" id="Path-2-Copy-2"></path>
                </g>
                <g id="img_cira_graph" transform="translate(0.000000, 33.000000)">
                    <g id="tDCSgraph" transform="translate(229.000000, 239.000000)" fill="#00AFDB">
                        <rect id="Rectangle-2" x="0" y="0" width="24" height="233.123319"></rect>
                        <rect id="Rectangle-2-Copy-2" x="127" y="52" width="24" height="180.992709"></rect>
                        <rect id="Rectangle-2-Copy-4" x="248" y="96" width="24" height="136.865307"></rect>
                        <rect id="Rectangle-2-Copy-7" x="371" y="109" width="24" height="124.052022"></rect>
                    </g>
                    <g id="medicinegraph" transform="translate(259.000000, 220.000000)" fill="#DAEBEF">
                        <rect id="Rectangle-2-Copy" x="0" y="0" width="24" height="252"></rect>
                        <rect id="Rectangle-2-Copy-3" x="127" y="71.0072912" width="24" height="180.992709"></rect>
                        <rect id="Rectangle-2-Copy-5" x="248" y="132.569109" width="24" height="119.430891"></rect>
                        <rect id="Rectangle-2-Copy-6" x="371" y="147.016394" width="24" height="104.983606"></rect>
                    </g>
                    <g id="linegraph" transform="translate(234.000000, 216.000000)" stroke="#00AFDB" stroke-width="2">
                        <polyline id="Path-3" points="4.97468324 5.60967092 132.697338 56.2737203 254.402331 102.5129 378.986521 115.443804"></polyline>
                        <circle id="Oval-3" fill="#FFFFFF" cx="5" cy="5" r="5"></circle>
                        <circle id="Oval-3" fill="#FFFFFF" cx="133" cy="56" r="5"></circle>
                        <circle id="Oval-3-Copy" fill="#FFFFFF" cx="254" cy="101" r="5"></circle>
                        <circle id="Oval-3-Copy-2" fill="#FFFFFF" cx="378" cy="115" r="5"></circle>
                    </g>
                    <g id="highlight" transform="translate(538.000000, 222.000000)">
                        <circle id="Oval-4" stroke="#D1F1F9" cx="74" cy="74" r="74"></circle>
                        <circle id="Oval-4" stroke="#A8E5F5" cx="74" cy="74" r="64"></circle>
                        <circle id="Oval-4" stroke="#83E1F8" cx="74" cy="74" r="54"></circle>
                        <circle id="Oval-4" stroke="#5DDAFA" cx="74" cy="74" r="44"></circle>
                    </g>
                    <g id="numbers" transform="translate(223.000000, 190.000000)">
                        <path d="M6.7,10.752 L2.028,10.752 L5.068,7.072 C5.772,6.224 6.732,5.168 6.732,3.856 C6.732,1.968 5.324,0.832 3.564,0.832 C1.836,0.832 0.396,1.968 0.396,3.792 L1.756,3.792 C1.788,2.656 2.572,2.064 3.564,2.064 C4.476,2.064 5.356,2.64 5.356,3.792 C5.356,4.624 4.86,5.376 4.108,6.256 L0.22,10.848 L0.22,12 L6.7,12 L6.7,10.752 Z M10.252,12 L12.38,7.136 C12.092,7.312 11.644,7.36 11.34,7.36 C9.58,7.36 8.444,5.968 8.444,4.128 C8.444,2.176 9.74,0.832 11.628,0.832 C13.484,0.832 14.812,2.144 14.812,4.064 C14.812,4.832 14.412,5.808 14.06,6.624 L11.788,12 L10.252,12 Z M13.436,4.128 C13.436,2.88 12.716,2.08 11.628,2.08 C10.556,2.08 9.82,2.88 9.82,4.128 C9.82,5.36 10.556,6.176 11.628,6.176 C12.716,6.176 13.436,5.36 13.436,4.128 Z M18.428,10.144 L16.572,10.144 L16.572,12 L18.428,12 L18.428,10.144 Z M22.028,12 L24.156,7.136 C23.868,7.312 23.42,7.36 23.116,7.36 C21.356,7.36 20.22,5.968 20.22,4.128 C20.22,2.176 21.516,0.832 23.404,0.832 C25.26,0.832 26.588,2.144 26.588,4.064 C26.588,4.832 26.188,5.808 25.836,6.624 L23.564,12 L22.028,12 Z M25.212,4.128 C25.212,2.88 24.492,2.08 23.404,2.08 C22.332,2.08 21.596,2.88 21.596,4.128 C21.596,5.36 22.332,6.176 23.404,6.176 C24.492,6.176 25.212,5.36 25.212,4.128 Z" id="29.9" fill="#000000"></path>
                        <path d="M133.556,52.96 L132.18,52.96 L130.596,54.176 L130.596,55.68 L132.18,54.544 L132.18,64 L133.556,64 L133.556,52.96 Z M139.252,64 L141.38,59.136 C141.092,59.312 140.644,59.36 140.34,59.36 C138.58,59.36 137.444,57.968 137.444,56.128 C137.444,54.176 138.74,52.832 140.628,52.832 C142.484,52.832 143.812,54.144 143.812,56.064 C143.812,56.832 143.412,57.808 143.06,58.624 L140.788,64 L139.252,64 Z M142.436,56.128 C142.436,54.88 141.716,54.08 140.628,54.08 C139.556,54.08 138.82,54.88 138.82,56.128 C138.82,57.36 139.556,58.176 140.628,58.176 C141.716,58.176 142.436,57.36 142.436,56.128 Z M147.428,62.144 L145.572,62.144 L145.572,64 L147.428,64 L147.428,62.144 Z M150.532,56.144 L150.532,54.208 L154.052,54.208 L150.532,64 L151.988,64 L155.492,54.208 L155.492,52.96 L149.284,52.96 L149.284,56.144 L150.532,56.144 Z" id="19.7" fill="#000000"></path>
                        <path d="M255.556,96.96 L254.18,96.96 L252.596,98.176 L252.596,99.68 L254.18,98.544 L254.18,108 L255.556,108 L255.556,96.96 Z M263.972,96.96 L261.844,101.824 C262.132,101.648 262.58,101.6 262.884,101.6 C264.644,101.6 265.78,102.992 265.78,104.832 C265.78,106.784 264.484,108.128 262.596,108.128 C260.74,108.128 259.412,106.816 259.412,104.896 C259.412,104.128 259.812,103.152 260.164,102.336 L262.436,96.96 L263.972,96.96 Z M260.788,104.832 C260.788,106.08 261.508,106.88 262.596,106.88 C263.668,106.88 264.404,106.08 264.404,104.832 C264.404,103.6 263.668,102.784 262.596,102.784 C261.508,102.784 260.788,103.6 260.788,104.832 Z M269.428,106.144 L267.572,106.144 L267.572,108 L269.428,108 L269.428,106.144 Z M271.06,104.896 C271.06,103.648 271.876,102.64 272.74,102.272 C271.86,101.84 271.22,100.912 271.22,99.872 C271.22,98.032 272.724,96.832 274.388,96.832 C276.052,96.832 277.556,98.032 277.556,99.872 C277.556,100.912 276.9,101.84 276.02,102.272 C276.916,102.64 277.716,103.648 277.716,104.896 C277.716,106.848 276.116,108.128 274.388,108.128 C272.66,108.128 271.06,106.848 271.06,104.896 Z M272.436,104.896 C272.436,105.984 273.268,106.88 274.388,106.88 C275.476,106.88 276.34,105.984 276.34,104.896 C276.34,103.68 275.316,102.928 274.388,102.928 C273.428,102.928 272.436,103.68 272.436,104.896 Z M272.58,99.872 C272.58,100.88 273.38,101.696 274.388,101.696 C275.38,101.696 276.18,100.88 276.18,99.872 C276.18,98.88 275.38,98.08 274.388,98.08 C273.38,98.08 272.58,98.88 272.58,99.872 Z" id="16.8" fill="#000000"></path>
                        <path d="M372.628,96.06 L369.794,96.06 L367.038,98.036 L367.038,101.078 L369.612,99.31 L369.612,114 L372.628,114 L372.628,96.06 Z M383.938,96.06 L377.724,109.164 L377.724,111.296 L385.602,111.296 L385.602,114 L388.618,114 L388.618,111.296 L390.256,111.296 L390.256,108.67 L388.618,108.67 L388.618,103.782 L385.602,103.782 L385.602,108.67 L381.39,108.67 L387.136,96.06 L383.938,96.06 Z M396.08,110.412 L392.492,110.412 L392.492,114 L396.08,114 L396.08,110.412 Z M407.156,96.06 L403.516,103.678 C404.036,103.418 404.66,103.34 405.232,103.34 C408.04,103.34 410.068,105.602 410.068,108.644 C410.068,112.258 407.65,114.234 404.426,114.234 C401.228,114.234 398.758,112.284 398.758,108.696 C398.758,107.37 399.408,105.758 400.214,103.99 L403.88,96.06 L407.156,96.06 Z M401.774,108.722 C401.774,110.464 402.762,111.608 404.426,111.608 C406.064,111.608 407.052,110.464 407.052,108.722 C407.052,107.006 406.064,105.836 404.426,105.836 C402.762,105.836 401.774,107.006 401.774,108.722 Z" id="14.6" fill="#00AFDB"></path>
                    </g>
                    <g id="bottom" transform="translate(219.000000, 486.000000)" font-size="16" font-family="SourceHanSansKR-Medium, Source Han Sans KR" fill="#263238" font-weight="400">
                        <text id="BASELINE">
                            <tspan x="0.424" y="19">BASELINE</tspan>
                        </text>
                        <text id="2-WEEKS">
                            <tspan x="132.332" y="19">2 WEEKS</tspan>
                        </text>
                        <text id="4-WEEKS">
                            <tspan x="254.332" y="19">4 WEEKS</tspan>
                        </text>
                        <text id="6-WEEKS">
                            <tspan x="377.332" y="19">6 WEEKS</tspan>
                        </text>
                    </g>
                    <path d="M12.504,590.16 L12.504,591.84 L17.416,591.84 C17.112,595.104 15.48,597.408 11.72,599.216 L12.824,600.88 C18.056,598.352 19.576,594.672 19.576,590.16 L12.504,590.16 Z M21.832,588.624 L21.832,603.36 L23.96,603.36 L23.96,588.624 L21.832,588.624 Z M27.224,590.16 L27.224,591.84 L32.136,591.84 C31.832,595.104 30.2,597.408 26.44,599.216 L27.544,600.88 C32.776,598.352 34.296,594.672 34.296,590.16 L27.224,590.16 Z M36.552,588.624 L36.552,603.36 L38.68,603.36 L38.68,588.624 L36.552,588.624 Z M50.184,589.776 L48.056,589.776 L48.056,591.92 C48.056,594.656 46.936,597.472 44.456,598.64 L45.72,600.352 C47.384,599.536 48.488,597.984 49.128,596.112 C49.736,597.872 50.776,599.296 52.312,600.08 L53.592,598.416 C51.224,597.248 50.184,594.576 50.184,591.92 L50.184,589.776 Z M58.44,594.304 L56.296,594.304 L56.296,588.64 L54.184,588.64 L54.184,603.376 L56.296,603.376 L56.296,596.064 L58.44,596.064 L58.44,594.304 Z M66.104,601.792 C68.072,601.792 69.08,601.456 69.08,600.704 C69.08,599.952 68.072,599.632 66.104,599.632 C64.136,599.632 63.128,599.952 63.128,600.704 C63.128,601.456 64.136,601.792 66.104,601.792 Z M66.104,598.032 C69.288,598.032 71.224,598.992 71.224,600.704 C71.224,602.416 69.288,603.392 66.104,603.392 C62.92,603.392 61,602.416 61,600.704 C61,598.992 62.92,598.032 66.104,598.032 Z M64.584,594.4 L64.584,595.632 L67.656,595.632 L67.656,594.416 C67.192,594.464 66.68,594.496 66.136,594.496 C65.576,594.496 65.064,594.464 64.584,594.4 Z M66.136,590.464 C64.136,590.464 62.984,590.864 62.984,591.696 C62.984,592.496 64.136,592.912 66.136,592.912 C68.152,592.912 69.304,592.496 69.304,591.696 C69.304,590.864 68.152,590.464 66.136,590.464 Z M69.768,595.632 L72.792,595.632 L72.792,597.296 L59.48,597.296 L59.48,595.632 L62.472,595.632 L62.472,593.856 C61.416,593.376 60.808,592.64 60.808,591.696 C60.808,589.936 62.888,588.864 66.136,588.864 C69.4,588.864 71.48,589.936 71.48,591.696 C71.48,592.656 70.856,593.392 69.768,593.872 L69.768,595.632 Z M81.496,598.368 L81.496,601.44 L89.832,601.44 L89.832,603.12 L79.384,603.12 L79.384,598.368 L81.496,598.368 Z M89.32,594.848 L91.176,594.848 L91.176,596.544 L85.672,596.544 L85.672,599.664 L83.56,599.664 L83.56,596.544 L77.832,596.544 L77.832,594.848 L87.208,594.848 C87.512,593.312 87.544,592.128 87.544,591.008 L79.48,591.008 L79.48,589.312 L89.624,589.312 L89.624,590.608 C89.624,591.808 89.624,593.152 89.32,594.848 Z" id="기기-사용-군" fill="#747474"></path>
                    <path d="M20.36,648.048 L17.08,648.048 L17.08,646.544 L14.952,646.544 L14.952,648.048 L11.688,648.048 L11.688,649.696 L20.36,649.696 L20.36,648.048 Z M14.424,652.816 C14.424,653.536 15.08,653.92 16.024,653.92 C16.968,653.92 17.624,653.536 17.624,652.816 C17.624,652.096 16.968,651.712 16.024,651.712 C15.08,651.712 14.424,652.096 14.424,652.816 Z M19.64,652.816 C19.64,654.384 18.152,655.44 16.024,655.44 C13.896,655.44 12.408,654.384 12.408,652.816 C12.408,651.248 13.896,650.176 16.024,650.176 C18.152,650.176 19.64,651.248 19.64,652.816 Z M18.488,659.808 C20.344,659.808 21.336,659.472 21.336,658.768 C21.336,658.048 20.344,657.728 18.488,657.728 C16.632,657.728 15.64,658.048 15.64,658.768 C15.64,659.472 16.632,659.808 18.488,659.808 Z M18.488,656.144 C21.528,656.144 23.432,657.12 23.432,658.768 C23.432,660.4 21.528,661.376 18.488,661.376 C15.448,661.376 13.544,660.4 13.544,658.768 C13.544,657.12 15.448,656.144 18.488,656.144 Z M23.288,650.4 L23.288,646.656 L21.176,646.656 L21.176,655.984 L23.288,655.984 L23.288,652.128 L25.24,652.128 L25.24,650.4 L23.288,650.4 Z M33.9368889,648.816 C32.0008889,648.816 30.7688889,649.392 30.7688889,650.448 C30.7688889,651.52 32.0008889,652.096 33.9368889,652.096 C35.8568889,652.096 37.0888889,651.52 37.0888889,650.448 C37.0888889,649.392 35.8568889,648.816 33.9368889,648.816 Z M33.9368889,653.776 C30.7848889,653.776 28.6088889,652.48 28.6088889,650.448 C28.6088889,648.448 30.7848889,647.136 33.9368889,647.136 C37.0728889,647.136 39.2648889,648.448 39.2648889,650.448 C39.2648889,652.48 37.0728889,653.776 33.9368889,653.776 Z M40.6408889,654.88 L27.2968889,654.88 L27.2968889,656.576 L32.8648889,656.576 L32.8648889,661.392 L34.9768889,661.392 L34.9768889,656.576 L40.6408889,656.576 L40.6408889,654.88 Z M49.5617778,648.32 C47.4337778,648.32 46.4257778,648.624 46.4257778,649.28 C46.4257778,649.968 47.4337778,650.256 49.5617778,650.256 C51.7057778,650.256 52.7137778,649.968 52.7137778,649.28 C52.7137778,648.624 51.7057778,648.32 49.5617778,648.32 Z M49.5617778,651.792 C46.2017778,651.792 44.2337778,650.912 44.2337778,649.28 C44.2337778,647.664 46.2017778,646.768 49.5617778,646.768 C52.9377778,646.768 54.9057778,647.664 54.9057778,649.28 C54.9057778,650.912 52.9377778,651.792 49.5617778,651.792 Z M56.2177778,654.096 L56.2177778,652.432 L42.9057778,652.432 L42.9057778,654.096 L48.4897778,654.096 L48.4897778,655.056 L44.4257778,655.056 L44.4257778,656.608 L52.5217778,656.608 L52.5217778,657.392 L44.4417778,657.392 L44.4417778,661.264 L54.9857778,661.264 L54.9857778,659.68 L46.5377778,659.68 L46.5377778,658.848 L54.6017778,658.848 L54.6017778,655.056 L50.6017778,655.056 L50.6017778,654.096 L56.2177778,654.096 Z M63.1866667,649.824 L63.1866667,650.544 C63.1866667,653.008 63.9066667,655.488 66.0346667,656.736 L64.8026667,658.272 C63.4906667,657.504 62.6586667,656.224 62.1786667,654.672 C61.6666667,656.352 60.8026667,657.792 59.4746667,658.624 L58.2266667,657.072 C60.3706667,655.712 61.1386667,653.072 61.1386667,650.544 L61.1386667,649.824 L58.7706667,649.824 L58.7706667,648.112 L65.3306667,648.112 L65.3306667,649.824 L63.1866667,649.824 Z M66.1786667,651.664 L66.1786667,646.88 L68.1466667,646.88 L68.1466667,660.704 L66.1786667,660.704 L66.1786667,653.376 L64.3066667,653.376 L64.3066667,651.664 L66.1786667,651.664 Z M69.1546667,646.624 L69.1546667,661.36 L71.1546667,661.36 L71.1546667,646.624 L69.1546667,646.624 Z M84.0684445,647.776 L81.9404445,647.776 L81.9404445,649.92 C81.9404445,652.656 80.8204445,655.472 78.3404445,656.64 L79.6044445,658.352 C81.2684445,657.536 82.3724445,655.984 83.0124445,654.112 C83.6204445,655.872 84.6604445,657.296 86.1964445,658.08 L87.4764445,656.416 C85.1084445,655.248 84.0684445,652.576 84.0684445,649.92 L84.0684445,647.776 Z M92.3244445,652.304 L90.1804445,652.304 L90.1804445,646.64 L88.0684445,646.64 L88.0684445,661.376 L90.1804445,661.376 L90.1804445,654.064 L92.3244445,654.064 L92.3244445,652.304 Z M100.877333,659.792 C102.845333,659.792 103.853333,659.456 103.853333,658.704 C103.853333,657.952 102.845333,657.632 100.877333,657.632 C98.9093334,657.632 97.9013334,657.952 97.9013334,658.704 C97.9013334,659.456 98.9093334,659.792 100.877333,659.792 Z M100.877333,656.032 C104.061333,656.032 105.997333,656.992 105.997333,658.704 C105.997333,660.416 104.061333,661.392 100.877333,661.392 C97.6933334,661.392 95.7733334,660.416 95.7733334,658.704 C95.7733334,656.992 97.6933334,656.032 100.877333,656.032 Z M99.3573334,652.4 L99.3573334,653.632 L102.429333,653.632 L102.429333,652.416 C101.965333,652.464 101.453333,652.496 100.909333,652.496 C100.349333,652.496 99.8373334,652.464 99.3573334,652.4 Z M100.909333,648.464 C98.9093334,648.464 97.7573334,648.864 97.7573334,649.696 C97.7573334,650.496 98.9093334,650.912 100.909333,650.912 C102.925333,650.912 104.077333,650.496 104.077333,649.696 C104.077333,648.864 102.925333,648.464 100.909333,648.464 Z M104.541333,653.632 L107.565333,653.632 L107.565333,655.296 L94.2533334,655.296 L94.2533334,653.632 L97.2453334,653.632 L97.2453334,651.856 C96.1893334,651.376 95.5813334,650.64 95.5813334,649.696 C95.5813334,647.936 97.6613334,646.864 100.909333,646.864 C104.173333,646.864 106.253333,647.936 106.253333,649.696 C106.253333,650.656 105.629333,651.392 104.541333,651.872 L104.541333,653.632 Z M118.047111,656.368 L118.047111,659.44 L126.383111,659.44 L126.383111,661.12 L115.935111,661.12 L115.935111,656.368 L118.047111,656.368 Z M125.871111,652.848 L127.727111,652.848 L127.727111,654.544 L122.223111,654.544 L122.223111,657.664 L120.111111,657.664 L120.111111,654.544 L114.383111,654.544 L114.383111,652.848 L123.759111,652.848 C124.063111,651.312 124.095111,650.128 124.095111,649.008 L116.031111,649.008 L116.031111,647.312 L126.175111,647.312 L126.175111,648.608 C126.175111,649.808 126.175111,651.152 125.871111,652.848 Z" id="항우울제-사용-군" fill="#747474"></path>
                    <path d="M725,646 L184,646 L184,646 C180.134007,646 177,649.134007 177,653 C177,656.865993 180.134007,660 184,660 L725,660 L725,666 L747.304348,652.5 L725,639 L725,646 Z" id="Combined-Shape" fill="#DAEBEF"></path>
                    <path d="M725,588 L234,588 L234,588 C230.134007,588 227,591.134007 227,595 C227,598.865993 230.134007,602 234,602 L725,602 L725,608 L747.304348,594.5 L725,581 L725,588 Z" id="Combined-Shape" fill="#00AFDB"></path>
                    <g id="6weeks" transform="translate(153.000000, 635.000000)">
                        <g id="shadow" fill-opacity="1" fill="black">
                            <use filter="url(#filter-2)" xlink:href="#path-1"></use>
                        </g>
                        <rect id="Rectangle-6" fill="#FFFFFF" x="0" y="0" width="82" height="36" rx="18"></rect>
                        <path d="M22.316,23 L23.732,23 C23.876,19.544 24.2,17.6 26.276,15.008 L26.276,14.168 L20.588,14.168 L20.588,15.332 L24.74,15.332 C23.036,17.708 22.472,19.772 22.316,23 Z M32.804,23.156 C33.284,23.156 33.728,23.036 34.1,22.916 L33.848,21.896 C33.656,21.98 33.368,22.052 33.14,22.052 C32.456,22.052 32.18,21.644 32.18,20.852 L32.18,17.504 L33.896,17.504 L33.896,16.4 L32.18,16.4 L32.18,14.576 L31.016,14.576 L30.86,16.4 L29.84,16.472 L29.84,17.504 L30.8,17.504 L30.8,20.84 C30.8,22.232 31.316,23.156 32.804,23.156 Z M35.336,23 L36.704,23 L36.704,16.4 L35.336,16.4 L35.336,23 Z M36.02,15.164 C36.524,15.164 36.908,14.828 36.908,14.348 C36.908,13.856 36.524,13.532 36.02,13.532 C35.516,13.532 35.144,13.856 35.144,14.348 C35.144,14.828 35.516,15.164 36.02,15.164 Z M38.78,23 L40.148,23 L40.148,18.32 C40.7,17.72 41.192,17.42 41.636,17.42 C42.392,17.42 42.74,17.876 42.74,19.016 L42.74,23 L44.12,23 L44.12,18.32 C44.672,17.72 45.152,17.42 45.608,17.42 C46.352,17.42 46.712,17.876 46.712,19.016 L46.712,23 L48.092,23 L48.092,18.848 C48.092,17.168 47.444,16.232 46.064,16.232 C45.236,16.232 44.564,16.748 43.916,17.444 C43.628,16.688 43.076,16.232 42.092,16.232 C41.276,16.232 40.616,16.724 40.052,17.324 L40.016,17.324 L39.908,16.4 L38.78,16.4 L38.78,23 Z M52.832,23.156 C51.044,23.156 49.616,21.884 49.616,19.712 C49.616,17.564 51.08,16.232 52.628,16.232 C54.38,16.232 55.316,17.492 55.316,19.364 C55.316,19.628 55.292,19.904 55.256,20.06 L50.972,20.06 C51.08,21.32 51.872,22.076 53.012,22.076 C53.6,22.076 54.104,21.896 54.584,21.584 L55.064,22.46 C54.452,22.868 53.696,23.156 52.832,23.156 Z M50.96,19.112 L54.128,19.112 C54.128,17.972 53.612,17.312 52.652,17.312 C51.824,17.312 51.092,17.948 50.96,19.112 Z M58.652,23.156 C60.284,23.156 61.16,22.256 61.16,21.152 C61.16,19.904 60.14,19.496 59.216,19.148 C58.496,18.884 57.812,18.668 57.812,18.104 C57.812,17.648 58.148,17.288 58.868,17.288 C59.42,17.288 59.888,17.528 60.344,17.864 L60.992,17.012 C60.452,16.592 59.732,16.232 58.844,16.232 C57.392,16.232 56.504,17.06 56.504,18.164 C56.504,19.28 57.512,19.748 58.388,20.084 C59.108,20.36 59.852,20.624 59.852,21.224 C59.852,21.728 59.48,22.112 58.688,22.112 C57.98,22.112 57.404,21.824 56.816,21.356 L56.168,22.244 C56.804,22.772 57.74,23.156 58.652,23.156 Z" id="7-times" fill="#4A4A4A"></path>
                    </g>
                    <g id="6weeks-copy" transform="translate(245.000000, 635.000000)">
                        <g id="shadow" fill-opacity="1" fill="black">
                            <use filter="url(#filter-4)" xlink:href="#path-3"></use>
                        </g>
                        <rect id="Rectangle-6" fill="#FFFFFF" x="0" y="0" width="82" height="36" rx="18"></rect>
                        <path d="M22.316,23 L23.732,23 C23.876,19.544 24.2,17.6 26.276,15.008 L26.276,14.168 L20.588,14.168 L20.588,15.332 L24.74,15.332 C23.036,17.708 22.472,19.772 22.316,23 Z M32.804,23.156 C33.284,23.156 33.728,23.036 34.1,22.916 L33.848,21.896 C33.656,21.98 33.368,22.052 33.14,22.052 C32.456,22.052 32.18,21.644 32.18,20.852 L32.18,17.504 L33.896,17.504 L33.896,16.4 L32.18,16.4 L32.18,14.576 L31.016,14.576 L30.86,16.4 L29.84,16.472 L29.84,17.504 L30.8,17.504 L30.8,20.84 C30.8,22.232 31.316,23.156 32.804,23.156 Z M35.336,23 L36.704,23 L36.704,16.4 L35.336,16.4 L35.336,23 Z M36.02,15.164 C36.524,15.164 36.908,14.828 36.908,14.348 C36.908,13.856 36.524,13.532 36.02,13.532 C35.516,13.532 35.144,13.856 35.144,14.348 C35.144,14.828 35.516,15.164 36.02,15.164 Z M38.78,23 L40.148,23 L40.148,18.32 C40.7,17.72 41.192,17.42 41.636,17.42 C42.392,17.42 42.74,17.876 42.74,19.016 L42.74,23 L44.12,23 L44.12,18.32 C44.672,17.72 45.152,17.42 45.608,17.42 C46.352,17.42 46.712,17.876 46.712,19.016 L46.712,23 L48.092,23 L48.092,18.848 C48.092,17.168 47.444,16.232 46.064,16.232 C45.236,16.232 44.564,16.748 43.916,17.444 C43.628,16.688 43.076,16.232 42.092,16.232 C41.276,16.232 40.616,16.724 40.052,17.324 L40.016,17.324 L39.908,16.4 L38.78,16.4 L38.78,23 Z M52.832,23.156 C51.044,23.156 49.616,21.884 49.616,19.712 C49.616,17.564 51.08,16.232 52.628,16.232 C54.38,16.232 55.316,17.492 55.316,19.364 C55.316,19.628 55.292,19.904 55.256,20.06 L50.972,20.06 C51.08,21.32 51.872,22.076 53.012,22.076 C53.6,22.076 54.104,21.896 54.584,21.584 L55.064,22.46 C54.452,22.868 53.696,23.156 52.832,23.156 Z M50.96,19.112 L54.128,19.112 C54.128,17.972 53.612,17.312 52.652,17.312 C51.824,17.312 51.092,17.948 50.96,19.112 Z M58.652,23.156 C60.284,23.156 61.16,22.256 61.16,21.152 C61.16,19.904 60.14,19.496 59.216,19.148 C58.496,18.884 57.812,18.668 57.812,18.104 C57.812,17.648 58.148,17.288 58.868,17.288 C59.42,17.288 59.888,17.528 60.344,17.864 L60.992,17.012 C60.452,16.592 59.732,16.232 58.844,16.232 C57.392,16.232 56.504,17.06 56.504,18.164 C56.504,19.28 57.512,19.748 58.388,20.084 C59.108,20.36 59.852,20.624 59.852,21.224 C59.852,21.728 59.48,22.112 58.688,22.112 C57.98,22.112 57.404,21.824 56.816,21.356 L56.168,22.244 C56.804,22.772 57.74,23.156 58.652,23.156 Z" id="7-times" fill="#4A4A4A"></path>
                    </g>
                    <g id="6weeks-copy-2" transform="translate(337.000000, 635.000000)">
                        <g id="shadow" fill-opacity="1" fill="black">
                            <use filter="url(#filter-6)" xlink:href="#path-5"></use>
                        </g>
                        <rect id="Rectangle-6" fill="#FFFFFF" x="0" y="0" width="82" height="36" rx="18"></rect>
                        <path d="M22.316,23 L23.732,23 C23.876,19.544 24.2,17.6 26.276,15.008 L26.276,14.168 L20.588,14.168 L20.588,15.332 L24.74,15.332 C23.036,17.708 22.472,19.772 22.316,23 Z M32.804,23.156 C33.284,23.156 33.728,23.036 34.1,22.916 L33.848,21.896 C33.656,21.98 33.368,22.052 33.14,22.052 C32.456,22.052 32.18,21.644 32.18,20.852 L32.18,17.504 L33.896,17.504 L33.896,16.4 L32.18,16.4 L32.18,14.576 L31.016,14.576 L30.86,16.4 L29.84,16.472 L29.84,17.504 L30.8,17.504 L30.8,20.84 C30.8,22.232 31.316,23.156 32.804,23.156 Z M35.336,23 L36.704,23 L36.704,16.4 L35.336,16.4 L35.336,23 Z M36.02,15.164 C36.524,15.164 36.908,14.828 36.908,14.348 C36.908,13.856 36.524,13.532 36.02,13.532 C35.516,13.532 35.144,13.856 35.144,14.348 C35.144,14.828 35.516,15.164 36.02,15.164 Z M38.78,23 L40.148,23 L40.148,18.32 C40.7,17.72 41.192,17.42 41.636,17.42 C42.392,17.42 42.74,17.876 42.74,19.016 L42.74,23 L44.12,23 L44.12,18.32 C44.672,17.72 45.152,17.42 45.608,17.42 C46.352,17.42 46.712,17.876 46.712,19.016 L46.712,23 L48.092,23 L48.092,18.848 C48.092,17.168 47.444,16.232 46.064,16.232 C45.236,16.232 44.564,16.748 43.916,17.444 C43.628,16.688 43.076,16.232 42.092,16.232 C41.276,16.232 40.616,16.724 40.052,17.324 L40.016,17.324 L39.908,16.4 L38.78,16.4 L38.78,23 Z M52.832,23.156 C51.044,23.156 49.616,21.884 49.616,19.712 C49.616,17.564 51.08,16.232 52.628,16.232 C54.38,16.232 55.316,17.492 55.316,19.364 C55.316,19.628 55.292,19.904 55.256,20.06 L50.972,20.06 C51.08,21.32 51.872,22.076 53.012,22.076 C53.6,22.076 54.104,21.896 54.584,21.584 L55.064,22.46 C54.452,22.868 53.696,23.156 52.832,23.156 Z M50.96,19.112 L54.128,19.112 C54.128,17.972 53.612,17.312 52.652,17.312 C51.824,17.312 51.092,17.948 50.96,19.112 Z M58.652,23.156 C60.284,23.156 61.16,22.256 61.16,21.152 C61.16,19.904 60.14,19.496 59.216,19.148 C58.496,18.884 57.812,18.668 57.812,18.104 C57.812,17.648 58.148,17.288 58.868,17.288 C59.42,17.288 59.888,17.528 60.344,17.864 L60.992,17.012 C60.452,16.592 59.732,16.232 58.844,16.232 C57.392,16.232 56.504,17.06 56.504,18.164 C56.504,19.28 57.512,19.748 58.388,20.084 C59.108,20.36 59.852,20.624 59.852,21.224 C59.852,21.728 59.48,22.112 58.688,22.112 C57.98,22.112 57.404,21.824 56.816,21.356 L56.168,22.244 C56.804,22.772 57.74,23.156 58.652,23.156 Z" id="7-times" fill="#4A4A4A"></path>
                    </g>
                    <g id="6weeks-copy-3" transform="translate(429.000000, 635.000000)">
                        <g id="shadow" fill-opacity="1" fill="black">
                            <use filter="url(#filter-8)" xlink:href="#path-7"></use>
                        </g>
                        <rect id="Rectangle-6" fill="#FFFFFF" x="0" y="0" width="82" height="36" rx="18"></rect>
                        <path d="M22.316,23 L23.732,23 C23.876,19.544 24.2,17.6 26.276,15.008 L26.276,14.168 L20.588,14.168 L20.588,15.332 L24.74,15.332 C23.036,17.708 22.472,19.772 22.316,23 Z M32.804,23.156 C33.284,23.156 33.728,23.036 34.1,22.916 L33.848,21.896 C33.656,21.98 33.368,22.052 33.14,22.052 C32.456,22.052 32.18,21.644 32.18,20.852 L32.18,17.504 L33.896,17.504 L33.896,16.4 L32.18,16.4 L32.18,14.576 L31.016,14.576 L30.86,16.4 L29.84,16.472 L29.84,17.504 L30.8,17.504 L30.8,20.84 C30.8,22.232 31.316,23.156 32.804,23.156 Z M35.336,23 L36.704,23 L36.704,16.4 L35.336,16.4 L35.336,23 Z M36.02,15.164 C36.524,15.164 36.908,14.828 36.908,14.348 C36.908,13.856 36.524,13.532 36.02,13.532 C35.516,13.532 35.144,13.856 35.144,14.348 C35.144,14.828 35.516,15.164 36.02,15.164 Z M38.78,23 L40.148,23 L40.148,18.32 C40.7,17.72 41.192,17.42 41.636,17.42 C42.392,17.42 42.74,17.876 42.74,19.016 L42.74,23 L44.12,23 L44.12,18.32 C44.672,17.72 45.152,17.42 45.608,17.42 C46.352,17.42 46.712,17.876 46.712,19.016 L46.712,23 L48.092,23 L48.092,18.848 C48.092,17.168 47.444,16.232 46.064,16.232 C45.236,16.232 44.564,16.748 43.916,17.444 C43.628,16.688 43.076,16.232 42.092,16.232 C41.276,16.232 40.616,16.724 40.052,17.324 L40.016,17.324 L39.908,16.4 L38.78,16.4 L38.78,23 Z M52.832,23.156 C51.044,23.156 49.616,21.884 49.616,19.712 C49.616,17.564 51.08,16.232 52.628,16.232 C54.38,16.232 55.316,17.492 55.316,19.364 C55.316,19.628 55.292,19.904 55.256,20.06 L50.972,20.06 C51.08,21.32 51.872,22.076 53.012,22.076 C53.6,22.076 54.104,21.896 54.584,21.584 L55.064,22.46 C54.452,22.868 53.696,23.156 52.832,23.156 Z M50.96,19.112 L54.128,19.112 C54.128,17.972 53.612,17.312 52.652,17.312 C51.824,17.312 51.092,17.948 50.96,19.112 Z M58.652,23.156 C60.284,23.156 61.16,22.256 61.16,21.152 C61.16,19.904 60.14,19.496 59.216,19.148 C58.496,18.884 57.812,18.668 57.812,18.104 C57.812,17.648 58.148,17.288 58.868,17.288 C59.42,17.288 59.888,17.528 60.344,17.864 L60.992,17.012 C60.452,16.592 59.732,16.232 58.844,16.232 C57.392,16.232 56.504,17.06 56.504,18.164 C56.504,19.28 57.512,19.748 58.388,20.084 C59.108,20.36 59.852,20.624 59.852,21.224 C59.852,21.728 59.48,22.112 58.688,22.112 C57.98,22.112 57.404,21.824 56.816,21.356 L56.168,22.244 C56.804,22.772 57.74,23.156 58.652,23.156 Z" id="7-times" fill="#4A4A4A"></path>
                    </g>
                    <g id="6weeks-copy-4" transform="translate(521.000000, 635.000000)">
                        <g id="shadow" fill-opacity="1" fill="black">
                            <use filter="url(#filter-10)" xlink:href="#path-9"></use>
                        </g>
                        <rect id="Rectangle-6" fill="#FFFFFF" x="0" y="0" width="82" height="36" rx="18"></rect>
                        <path d="M22.316,23 L23.732,23 C23.876,19.544 24.2,17.6 26.276,15.008 L26.276,14.168 L20.588,14.168 L20.588,15.332 L24.74,15.332 C23.036,17.708 22.472,19.772 22.316,23 Z M32.804,23.156 C33.284,23.156 33.728,23.036 34.1,22.916 L33.848,21.896 C33.656,21.98 33.368,22.052 33.14,22.052 C32.456,22.052 32.18,21.644 32.18,20.852 L32.18,17.504 L33.896,17.504 L33.896,16.4 L32.18,16.4 L32.18,14.576 L31.016,14.576 L30.86,16.4 L29.84,16.472 L29.84,17.504 L30.8,17.504 L30.8,20.84 C30.8,22.232 31.316,23.156 32.804,23.156 Z M35.336,23 L36.704,23 L36.704,16.4 L35.336,16.4 L35.336,23 Z M36.02,15.164 C36.524,15.164 36.908,14.828 36.908,14.348 C36.908,13.856 36.524,13.532 36.02,13.532 C35.516,13.532 35.144,13.856 35.144,14.348 C35.144,14.828 35.516,15.164 36.02,15.164 Z M38.78,23 L40.148,23 L40.148,18.32 C40.7,17.72 41.192,17.42 41.636,17.42 C42.392,17.42 42.74,17.876 42.74,19.016 L42.74,23 L44.12,23 L44.12,18.32 C44.672,17.72 45.152,17.42 45.608,17.42 C46.352,17.42 46.712,17.876 46.712,19.016 L46.712,23 L48.092,23 L48.092,18.848 C48.092,17.168 47.444,16.232 46.064,16.232 C45.236,16.232 44.564,16.748 43.916,17.444 C43.628,16.688 43.076,16.232 42.092,16.232 C41.276,16.232 40.616,16.724 40.052,17.324 L40.016,17.324 L39.908,16.4 L38.78,16.4 L38.78,23 Z M52.832,23.156 C51.044,23.156 49.616,21.884 49.616,19.712 C49.616,17.564 51.08,16.232 52.628,16.232 C54.38,16.232 55.316,17.492 55.316,19.364 C55.316,19.628 55.292,19.904 55.256,20.06 L50.972,20.06 C51.08,21.32 51.872,22.076 53.012,22.076 C53.6,22.076 54.104,21.896 54.584,21.584 L55.064,22.46 C54.452,22.868 53.696,23.156 52.832,23.156 Z M50.96,19.112 L54.128,19.112 C54.128,17.972 53.612,17.312 52.652,17.312 C51.824,17.312 51.092,17.948 50.96,19.112 Z M58.652,23.156 C60.284,23.156 61.16,22.256 61.16,21.152 C61.16,19.904 60.14,19.496 59.216,19.148 C58.496,18.884 57.812,18.668 57.812,18.104 C57.812,17.648 58.148,17.288 58.868,17.288 C59.42,17.288 59.888,17.528 60.344,17.864 L60.992,17.012 C60.452,16.592 59.732,16.232 58.844,16.232 C57.392,16.232 56.504,17.06 56.504,18.164 C56.504,19.28 57.512,19.748 58.388,20.084 C59.108,20.36 59.852,20.624 59.852,21.224 C59.852,21.728 59.48,22.112 58.688,22.112 C57.98,22.112 57.404,21.824 56.816,21.356 L56.168,22.244 C56.804,22.772 57.74,23.156 58.652,23.156 Z" id="7-times" fill="#4A4A4A"></path>
                    </g>
                    <g id="6weeks-copy-5" transform="translate(613.000000, 635.000000)">
                        <g id="shadow" fill-opacity="1" fill="black">
                            <use filter="url(#filter-12)" xlink:href="#path-11"></use>
                        </g>
                        <rect id="Rectangle-6" fill="#FFFFFF" x="0" y="0" width="82" height="36" rx="18"></rect>
                        <path d="M22.316,23 L23.732,23 C23.876,19.544 24.2,17.6 26.276,15.008 L26.276,14.168 L20.588,14.168 L20.588,15.332 L24.74,15.332 C23.036,17.708 22.472,19.772 22.316,23 Z M32.804,23.156 C33.284,23.156 33.728,23.036 34.1,22.916 L33.848,21.896 C33.656,21.98 33.368,22.052 33.14,22.052 C32.456,22.052 32.18,21.644 32.18,20.852 L32.18,17.504 L33.896,17.504 L33.896,16.4 L32.18,16.4 L32.18,14.576 L31.016,14.576 L30.86,16.4 L29.84,16.472 L29.84,17.504 L30.8,17.504 L30.8,20.84 C30.8,22.232 31.316,23.156 32.804,23.156 Z M35.336,23 L36.704,23 L36.704,16.4 L35.336,16.4 L35.336,23 Z M36.02,15.164 C36.524,15.164 36.908,14.828 36.908,14.348 C36.908,13.856 36.524,13.532 36.02,13.532 C35.516,13.532 35.144,13.856 35.144,14.348 C35.144,14.828 35.516,15.164 36.02,15.164 Z M38.78,23 L40.148,23 L40.148,18.32 C40.7,17.72 41.192,17.42 41.636,17.42 C42.392,17.42 42.74,17.876 42.74,19.016 L42.74,23 L44.12,23 L44.12,18.32 C44.672,17.72 45.152,17.42 45.608,17.42 C46.352,17.42 46.712,17.876 46.712,19.016 L46.712,23 L48.092,23 L48.092,18.848 C48.092,17.168 47.444,16.232 46.064,16.232 C45.236,16.232 44.564,16.748 43.916,17.444 C43.628,16.688 43.076,16.232 42.092,16.232 C41.276,16.232 40.616,16.724 40.052,17.324 L40.016,17.324 L39.908,16.4 L38.78,16.4 L38.78,23 Z M52.832,23.156 C51.044,23.156 49.616,21.884 49.616,19.712 C49.616,17.564 51.08,16.232 52.628,16.232 C54.38,16.232 55.316,17.492 55.316,19.364 C55.316,19.628 55.292,19.904 55.256,20.06 L50.972,20.06 C51.08,21.32 51.872,22.076 53.012,22.076 C53.6,22.076 54.104,21.896 54.584,21.584 L55.064,22.46 C54.452,22.868 53.696,23.156 52.832,23.156 Z M50.96,19.112 L54.128,19.112 C54.128,17.972 53.612,17.312 52.652,17.312 C51.824,17.312 51.092,17.948 50.96,19.112 Z M58.652,23.156 C60.284,23.156 61.16,22.256 61.16,21.152 C61.16,19.904 60.14,19.496 59.216,19.148 C58.496,18.884 57.812,18.668 57.812,18.104 C57.812,17.648 58.148,17.288 58.868,17.288 C59.42,17.288 59.888,17.528 60.344,17.864 L60.992,17.012 C60.452,16.592 59.732,16.232 58.844,16.232 C57.392,16.232 56.504,17.06 56.504,18.164 C56.504,19.28 57.512,19.748 58.388,20.084 C59.108,20.36 59.852,20.624 59.852,21.224 C59.852,21.728 59.48,22.112 58.688,22.112 C57.98,22.112 57.404,21.824 56.816,21.356 L56.168,22.244 C56.804,22.772 57.74,23.156 58.652,23.156 Z" id="7-times" fill="#4A4A4A"></path>
                    </g>
                    <g id="5times" transform="translate(153.000000, 576.000000)">
                        <g id="shadow" fill-opacity="1" fill="black">
                            <use filter="url(#filter-14)" xlink:href="#path-13"></use>
                        </g>
                        <rect id="Rectangle-6" fill="#FFFFFF" x="0" y="0" width="82" height="36" rx="18"></rect>
                        <path d="M24.426,23.156 C25.974,23.156 27.402,22.052 27.402,20.096 C27.402,18.164 26.19,17.288 24.714,17.288 C24.234,17.288 23.874,17.408 23.502,17.6 L23.706,15.332 L26.982,15.332 L26.982,14.168 L22.506,14.168 L22.242,18.356 L22.914,18.8 C23.43,18.464 23.766,18.296 24.33,18.296 C25.338,18.296 26.01,18.968 26.01,20.144 C26.01,21.32 25.254,22.028 24.258,22.028 C23.334,22.028 22.698,21.584 22.194,21.08 L21.534,21.98 C22.158,22.592 23.034,23.156 24.426,23.156 Z M34.014,23.156 C34.494,23.156 34.938,23.036 35.31,22.916 L35.058,21.896 C34.866,21.98 34.578,22.052 34.35,22.052 C33.666,22.052 33.39,21.644 33.39,20.852 L33.39,17.504 L35.106,17.504 L35.106,16.4 L33.39,16.4 L33.39,14.576 L32.226,14.576 L32.07,16.4 L31.05,16.472 L31.05,17.504 L32.01,17.504 L32.01,20.84 C32.01,22.232 32.526,23.156 34.014,23.156 Z M36.546,23 L37.914,23 L37.914,16.4 L36.546,16.4 L36.546,23 Z M37.23,15.164 C37.734,15.164 38.118,14.828 38.118,14.348 C38.118,13.856 37.734,13.532 37.23,13.532 C36.726,13.532 36.354,13.856 36.354,14.348 C36.354,14.828 36.726,15.164 37.23,15.164 Z M39.99,23 L41.358,23 L41.358,18.32 C41.91,17.72 42.402,17.42 42.846,17.42 C43.602,17.42 43.95,17.876 43.95,19.016 L43.95,23 L45.33,23 L45.33,18.32 C45.882,17.72 46.362,17.42 46.818,17.42 C47.562,17.42 47.922,17.876 47.922,19.016 L47.922,23 L49.302,23 L49.302,18.848 C49.302,17.168 48.654,16.232 47.274,16.232 C46.446,16.232 45.774,16.748 45.126,17.444 C44.838,16.688 44.286,16.232 43.302,16.232 C42.486,16.232 41.826,16.724 41.262,17.324 L41.226,17.324 L41.118,16.4 L39.99,16.4 L39.99,23 Z M54.042,23.156 C52.254,23.156 50.826,21.884 50.826,19.712 C50.826,17.564 52.29,16.232 53.838,16.232 C55.59,16.232 56.526,17.492 56.526,19.364 C56.526,19.628 56.502,19.904 56.466,20.06 L52.182,20.06 C52.29,21.32 53.082,22.076 54.222,22.076 C54.81,22.076 55.314,21.896 55.794,21.584 L56.274,22.46 C55.662,22.868 54.906,23.156 54.042,23.156 Z M52.17,19.112 L55.338,19.112 C55.338,17.972 54.822,17.312 53.862,17.312 C53.034,17.312 52.302,17.948 52.17,19.112 Z M59.862,23.156 C61.494,23.156 62.37,22.256 62.37,21.152 C62.37,19.904 61.35,19.496 60.426,19.148 C59.706,18.884 59.022,18.668 59.022,18.104 C59.022,17.648 59.358,17.288 60.078,17.288 C60.63,17.288 61.098,17.528 61.554,17.864 L62.202,17.012 C61.662,16.592 60.942,16.232 60.054,16.232 C58.602,16.232 57.714,17.06 57.714,18.164 C57.714,19.28 58.722,19.748 59.598,20.084 C60.318,20.36 61.062,20.624 61.062,21.224 C61.062,21.728 60.69,22.112 59.898,22.112 C59.19,22.112 58.614,21.824 58.026,21.356 L57.378,22.244 C58.014,22.772 58.95,23.156 59.862,23.156 Z" id="5-times" fill="#4A4A4A"></path>
                    </g>
                    <g id="5times-copy" transform="translate(243.000000, 577.000000)">
                        <g id="shadow" fill-opacity="1" fill="black">
                            <use filter="url(#filter-16)" xlink:href="#path-15"></use>
                        </g>
                        <rect id="Rectangle-6" fill="#FFFFFF" x="0" y="0" width="82" height="36" rx="18"></rect>
                        <path d="M24.426,23.156 C25.974,23.156 27.402,22.052 27.402,20.096 C27.402,18.164 26.19,17.288 24.714,17.288 C24.234,17.288 23.874,17.408 23.502,17.6 L23.706,15.332 L26.982,15.332 L26.982,14.168 L22.506,14.168 L22.242,18.356 L22.914,18.8 C23.43,18.464 23.766,18.296 24.33,18.296 C25.338,18.296 26.01,18.968 26.01,20.144 C26.01,21.32 25.254,22.028 24.258,22.028 C23.334,22.028 22.698,21.584 22.194,21.08 L21.534,21.98 C22.158,22.592 23.034,23.156 24.426,23.156 Z M34.014,23.156 C34.494,23.156 34.938,23.036 35.31,22.916 L35.058,21.896 C34.866,21.98 34.578,22.052 34.35,22.052 C33.666,22.052 33.39,21.644 33.39,20.852 L33.39,17.504 L35.106,17.504 L35.106,16.4 L33.39,16.4 L33.39,14.576 L32.226,14.576 L32.07,16.4 L31.05,16.472 L31.05,17.504 L32.01,17.504 L32.01,20.84 C32.01,22.232 32.526,23.156 34.014,23.156 Z M36.546,23 L37.914,23 L37.914,16.4 L36.546,16.4 L36.546,23 Z M37.23,15.164 C37.734,15.164 38.118,14.828 38.118,14.348 C38.118,13.856 37.734,13.532 37.23,13.532 C36.726,13.532 36.354,13.856 36.354,14.348 C36.354,14.828 36.726,15.164 37.23,15.164 Z M39.99,23 L41.358,23 L41.358,18.32 C41.91,17.72 42.402,17.42 42.846,17.42 C43.602,17.42 43.95,17.876 43.95,19.016 L43.95,23 L45.33,23 L45.33,18.32 C45.882,17.72 46.362,17.42 46.818,17.42 C47.562,17.42 47.922,17.876 47.922,19.016 L47.922,23 L49.302,23 L49.302,18.848 C49.302,17.168 48.654,16.232 47.274,16.232 C46.446,16.232 45.774,16.748 45.126,17.444 C44.838,16.688 44.286,16.232 43.302,16.232 C42.486,16.232 41.826,16.724 41.262,17.324 L41.226,17.324 L41.118,16.4 L39.99,16.4 L39.99,23 Z M54.042,23.156 C52.254,23.156 50.826,21.884 50.826,19.712 C50.826,17.564 52.29,16.232 53.838,16.232 C55.59,16.232 56.526,17.492 56.526,19.364 C56.526,19.628 56.502,19.904 56.466,20.06 L52.182,20.06 C52.29,21.32 53.082,22.076 54.222,22.076 C54.81,22.076 55.314,21.896 55.794,21.584 L56.274,22.46 C55.662,22.868 54.906,23.156 54.042,23.156 Z M52.17,19.112 L55.338,19.112 C55.338,17.972 54.822,17.312 53.862,17.312 C53.034,17.312 52.302,17.948 52.17,19.112 Z M59.862,23.156 C61.494,23.156 62.37,22.256 62.37,21.152 C62.37,19.904 61.35,19.496 60.426,19.148 C59.706,18.884 59.022,18.668 59.022,18.104 C59.022,17.648 59.358,17.288 60.078,17.288 C60.63,17.288 61.098,17.528 61.554,17.864 L62.202,17.012 C61.662,16.592 60.942,16.232 60.054,16.232 C58.602,16.232 57.714,17.06 57.714,18.164 C57.714,19.28 58.722,19.748 59.598,20.084 C60.318,20.36 61.062,20.624 61.062,21.224 C61.062,21.728 60.69,22.112 59.898,22.112 C59.19,22.112 58.614,21.824 58.026,21.356 L57.378,22.244 C58.014,22.772 58.95,23.156 59.862,23.156 Z" id="5-times" fill="#4A4A4A"></path>
                    </g>
                    <g id="1time" transform="translate(469.000000, 576.000000)">
                        <g id="shadow" fill-opacity="1" fill="black">
                            <use filter="url(#filter-18)" xlink:href="#path-17"></use>
                        </g>
                        <rect id="Rectangle-6" fill="#FFFFFF" x="0" y="0" width="82" height="36" rx="18"></rect>
                        <path d="M25.122,23 L30.162,23 L30.162,21.86 L28.434,21.86 L28.434,14.168 L27.39,14.168 C26.886,14.48 26.298,14.684 25.47,14.84 L25.47,15.716 L27.054,15.716 L27.054,21.86 L25.122,21.86 L25.122,23 Z M36.894,23.156 C37.374,23.156 37.818,23.036 38.19,22.916 L37.938,21.896 C37.746,21.98 37.458,22.052 37.23,22.052 C36.546,22.052 36.27,21.644 36.27,20.852 L36.27,17.504 L37.986,17.504 L37.986,16.4 L36.27,16.4 L36.27,14.576 L35.106,14.576 L34.95,16.4 L33.93,16.472 L33.93,17.504 L34.89,17.504 L34.89,20.84 C34.89,22.232 35.406,23.156 36.894,23.156 Z M39.426,23 L40.794,23 L40.794,16.4 L39.426,16.4 L39.426,23 Z M40.11,15.164 C40.614,15.164 40.998,14.828 40.998,14.348 C40.998,13.856 40.614,13.532 40.11,13.532 C39.606,13.532 39.234,13.856 39.234,14.348 C39.234,14.828 39.606,15.164 40.11,15.164 Z M42.87,23 L44.238,23 L44.238,18.32 C44.79,17.72 45.282,17.42 45.726,17.42 C46.482,17.42 46.83,17.876 46.83,19.016 L46.83,23 L48.21,23 L48.21,18.32 C48.762,17.72 49.242,17.42 49.698,17.42 C50.442,17.42 50.802,17.876 50.802,19.016 L50.802,23 L52.182,23 L52.182,18.848 C52.182,17.168 51.534,16.232 50.154,16.232 C49.326,16.232 48.654,16.748 48.006,17.444 C47.718,16.688 47.166,16.232 46.182,16.232 C45.366,16.232 44.706,16.724 44.142,17.324 L44.106,17.324 L43.998,16.4 L42.87,16.4 L42.87,23 Z M56.922,23.156 C55.134,23.156 53.706,21.884 53.706,19.712 C53.706,17.564 55.17,16.232 56.718,16.232 C58.47,16.232 59.406,17.492 59.406,19.364 C59.406,19.628 59.382,19.904 59.346,20.06 L55.062,20.06 C55.17,21.32 55.962,22.076 57.102,22.076 C57.69,22.076 58.194,21.896 58.674,21.584 L59.154,22.46 C58.542,22.868 57.786,23.156 56.922,23.156 Z M55.05,19.112 L58.218,19.112 C58.218,17.972 57.702,17.312 56.742,17.312 C55.914,17.312 55.182,17.948 55.05,19.112 Z" id="1-time" fill="#4A4A4A"></path>
                    </g>
                    <g id="1time" transform="translate(588.000000, 576.000000)">
                        <g id="shadow" fill-opacity="1" fill="black">
                            <use filter="url(#filter-20)" xlink:href="#path-19"></use>
                        </g>
                        <rect id="Rectangle-6" fill="#FFFFFF" x="0" y="0" width="82" height="36" rx="18"></rect>
                        <path d="M25.122,23 L30.162,23 L30.162,21.86 L28.434,21.86 L28.434,14.168 L27.39,14.168 C26.886,14.48 26.298,14.684 25.47,14.84 L25.47,15.716 L27.054,15.716 L27.054,21.86 L25.122,21.86 L25.122,23 Z M36.894,23.156 C37.374,23.156 37.818,23.036 38.19,22.916 L37.938,21.896 C37.746,21.98 37.458,22.052 37.23,22.052 C36.546,22.052 36.27,21.644 36.27,20.852 L36.27,17.504 L37.986,17.504 L37.986,16.4 L36.27,16.4 L36.27,14.576 L35.106,14.576 L34.95,16.4 L33.93,16.472 L33.93,17.504 L34.89,17.504 L34.89,20.84 C34.89,22.232 35.406,23.156 36.894,23.156 Z M39.426,23 L40.794,23 L40.794,16.4 L39.426,16.4 L39.426,23 Z M40.11,15.164 C40.614,15.164 40.998,14.828 40.998,14.348 C40.998,13.856 40.614,13.532 40.11,13.532 C39.606,13.532 39.234,13.856 39.234,14.348 C39.234,14.828 39.606,15.164 40.11,15.164 Z M42.87,23 L44.238,23 L44.238,18.32 C44.79,17.72 45.282,17.42 45.726,17.42 C46.482,17.42 46.83,17.876 46.83,19.016 L46.83,23 L48.21,23 L48.21,18.32 C48.762,17.72 49.242,17.42 49.698,17.42 C50.442,17.42 50.802,17.876 50.802,19.016 L50.802,23 L52.182,23 L52.182,18.848 C52.182,17.168 51.534,16.232 50.154,16.232 C49.326,16.232 48.654,16.748 48.006,17.444 C47.718,16.688 47.166,16.232 46.182,16.232 C45.366,16.232 44.706,16.724 44.142,17.324 L44.106,17.324 L43.998,16.4 L42.87,16.4 L42.87,23 Z M56.922,23.156 C55.134,23.156 53.706,21.884 53.706,19.712 C53.706,17.564 55.17,16.232 56.718,16.232 C58.47,16.232 59.406,17.492 59.406,19.364 C59.406,19.628 59.382,19.904 59.346,20.06 L55.062,20.06 C55.17,21.32 55.962,22.076 57.102,22.076 C57.69,22.076 58.194,21.896 58.674,21.584 L59.154,22.46 C58.542,22.868 57.786,23.156 56.922,23.156 Z M55.05,19.112 L58.218,19.112 C58.218,17.972 57.702,17.312 56.742,17.312 C55.914,17.312 55.182,17.948 55.05,19.112 Z" id="1-time" fill="#4A4A4A"></path>
                    </g>
                    <path d="M35.664,30.736 L39.04,30.736 L39.04,29.712 L37.04,29.712 L37.04,16.272 L39.04,16.272 L39.04,15.264 L35.664,15.264 L35.664,30.736 Z M57.184,21.856 L57.184,20.528 L55.232,20.528 C55.552,18.88 55.552,17.632 55.552,16.544 L55.552,15.44 L45.728,15.44 L45.728,16.768 L53.936,16.768 C53.936,17.808 53.904,18.976 53.584,20.528 L44.096,20.528 L44.096,21.856 L49.792,21.856 L49.792,24.224 L45.424,24.224 L45.424,25.552 L53.968,25.552 L53.968,29.232 L55.616,29.232 L55.616,24.224 L51.456,24.224 L51.456,21.856 L57.184,21.856 Z M61.104,16.448 L59.456,16.448 L59.456,25.584 L60.416,25.584 C61.92,25.584 63.584,25.504 65.52,25.152 L65.344,23.744 C63.776,24.032 62.384,24.144 61.104,24.176 L61.104,16.448 Z M69.536,14.784 L69.536,20.528 L67.824,20.528 L67.824,15.072 L66.272,15.072 L66.272,28.512 L67.824,28.512 L67.824,21.888 L69.536,21.888 L69.536,29.232 L71.104,29.232 L71.104,14.784 L69.536,14.784 Z M87.392,14.8 L87.392,23.024 L89.04,23.024 L89.04,14.8 L87.392,14.8 Z M79.584,23.744 L89.04,23.744 L89.04,29.056 L79.584,29.056 L79.584,23.744 Z M87.424,25.056 L81.2,25.056 L81.2,27.744 L87.424,27.744 L87.424,25.056 Z M81.248,15.504 C83.456,15.504 85.072,16.896 85.072,18.912 C85.072,20.928 83.456,22.32 81.248,22.32 C79.04,22.32 77.408,20.928 77.408,18.912 C77.408,16.896 79.04,15.504 81.248,15.504 Z M81.248,16.864 C79.952,16.864 79.024,17.68 79.024,18.912 C79.024,20.16 79.952,20.96 81.248,20.96 C82.528,20.96 83.472,20.16 83.472,18.912 C83.472,17.68 82.528,16.864 81.248,16.864 Z M100.256,21.392 C98.112,20.688 96.88,18.928 96.88,17.072 L96.88,15.52 L95.216,15.52 L95.216,16.944 C95.216,19.024 93.984,20.992 91.712,21.776 L92.592,23.088 C94.256,22.48 95.44,21.232 96.08,19.664 C96.688,21.024 97.84,22.128 99.392,22.688 L100.256,21.392 Z M98.48,27.936 C100.496,27.936 101.664,27.44 101.664,26.512 C101.664,25.616 100.496,25.104 98.48,25.104 C96.464,25.104 95.296,25.616 95.296,26.512 C95.296,27.44 96.464,27.936 98.48,27.936 Z M98.48,23.808 C101.472,23.808 103.296,24.816 103.296,26.512 C103.296,28.224 101.472,29.232 98.48,29.232 C95.504,29.232 93.664,28.224 93.664,26.512 C93.664,24.816 95.504,23.808 98.48,23.808 Z M103.136,18.352 L103.136,14.768 L101.488,14.768 L101.488,23.456 L103.136,23.456 L103.136,19.712 L105.184,19.712 L105.184,18.352 L103.136,18.352 Z M120.496,18.032 L120.496,19.52 L116.96,19.52 L116.96,20.8 L120.496,20.8 L120.496,22.112 L122.144,22.112 L122.144,14.784 L120.496,14.784 L120.496,16.752 L117.504,16.752 C117.584,16.336 117.616,15.888 117.616,15.424 L111.152,15.424 L111.152,16.752 L115.792,16.752 C115.568,18.768 113.792,20.352 110.368,21.088 L110.944,22.432 C114.128,21.712 116.256,20.24 117.152,18.032 L120.496,18.032 Z M114.416,27.776 L114.416,26.448 L122.144,26.448 L122.144,22.704 L112.736,22.704 L112.736,24.016 L120.496,24.016 L120.496,25.216 L112.768,25.216 L112.768,29.104 L122.544,29.104 L122.544,27.776 L114.416,27.776 Z M132.464,22.912 L130.848,22.768 C131.216,20.528 131.248,18.848 131.248,17.632 L125.52,17.632 L125.52,16.304 L132.864,16.304 L132.864,17.264 C132.864,18.528 132.864,20.352 132.464,22.912 Z M129.232,20.448 L129.232,24.752 C130.736,24.688 132.256,24.608 133.664,24.416 L133.744,25.632 C130.768,26.128 127.456,26.192 124.928,26.192 L124.752,24.832 C125.632,24.832 126.608,24.816 127.616,24.8 L127.616,20.448 L129.232,20.448 Z M138.224,20.72 L136.096,20.72 L136.096,14.784 L134.432,14.784 L134.432,29.232 L136.096,29.232 L136.096,22.112 L138.224,22.112 L138.224,20.72 Z M143.04,30.736 L146.432,30.736 L146.432,15.264 L143.04,15.264 L143.04,16.272 L145.04,16.272 L145.04,29.712 L143.04,29.712 L143.04,30.736 Z M36.848,67.536 C38,67.536 38.976,66.592 38.976,65.28 C38.976,63.936 38,62.992 36.848,62.992 C35.696,62.992 34.72,63.936 34.72,65.28 C34.72,66.592 35.696,67.536 36.848,67.536 Z M59.824,63.856 C62.208,63.504 64.16,62.32 65.04,60.72 C65.92,62.32 67.888,63.504 70.272,63.856 L70.864,62.56 C68.112,62.192 66.08,60.608 65.984,58.928 L70.352,58.928 L70.352,57.6 L59.712,57.6 L59.712,58.928 L64.112,58.928 C64.016,60.608 61.984,62.192 59.232,62.56 L59.824,63.856 Z M71.584,64.912 L58.512,64.912 L58.512,66.24 L64.176,66.24 L64.176,71.248 L65.824,71.248 L65.824,66.24 L71.568,66.24 L71.584,64.912 Z M77.936,64.976 L77.936,68.112 L81.584,68.112 L81.584,64.96 C81.024,65.104 80.4,65.168 79.76,65.168 C79.12,65.168 78.496,65.104 77.936,64.976 Z M79.76,58.912 C77.568,58.912 76.048,59.872 76.048,61.392 C76.048,62.928 77.568,63.888 79.76,63.888 C81.936,63.888 83.456,62.928 83.456,61.392 C83.456,59.872 81.936,58.912 79.76,58.912 Z M83.232,68.112 L86.32,68.112 L86.32,69.456 L73.232,69.456 L73.232,68.112 L76.288,68.112 L76.288,64.352 C75.136,63.712 74.448,62.672 74.448,61.392 C74.448,59.088 76.672,57.616 79.76,57.616 C82.832,57.616 85.072,59.088 85.072,61.392 C85.072,62.672 84.384,63.696 83.232,64.352 L83.232,68.112 Z M94.464,58.64 C92.384,58.64 91.024,59.344 91.024,60.512 C91.024,61.696 92.384,62.4 94.464,62.4 C96.528,62.4 97.888,61.696 97.888,60.512 C97.888,59.344 96.528,58.64 94.464,58.64 Z M94.464,63.728 C91.408,63.728 89.328,62.48 89.328,60.512 C89.328,58.56 91.408,57.312 94.464,57.312 C97.504,57.312 99.584,58.56 99.584,60.512 C99.584,62.48 97.504,63.728 94.464,63.728 Z M101.04,64.96 L87.936,64.96 L87.936,66.32 L93.616,66.32 L93.616,71.232 L95.264,71.232 L95.264,66.32 L101.04,66.32 L101.04,64.96 Z M109.2,58.16 C106.96,58.16 105.76,58.592 105.76,59.424 C105.76,60.256 106.96,60.688 109.2,60.688 C111.44,60.688 112.64,60.256 112.64,59.424 C112.64,58.592 111.44,58.16 109.2,58.16 Z M109.2,61.92 C105.952,61.92 104.048,61.04 104.048,59.424 C104.048,57.808 105.952,56.928 109.2,56.928 C112.432,56.928 114.352,57.808 114.352,59.424 C114.352,61.04 112.432,61.92 109.2,61.92 Z M115.728,64.016 L115.728,62.704 L102.656,62.704 L102.656,64.016 L108.352,64.016 L108.352,65.184 L104.208,65.184 L104.208,66.432 L112.48,66.432 L112.48,67.472 L104.24,67.472 L104.24,71.104 L114.512,71.104 L114.512,69.84 L105.872,69.84 L105.872,68.64 L114.096,68.64 L114.096,65.184 L110.016,65.184 L110.016,64.016 L115.728,64.016 Z M125.872,63.584 C123.664,62.88 122.464,61.2 122.464,59.408 L122.464,59.136 L125.488,59.136 L125.488,57.808 L117.728,57.808 L117.728,59.136 L120.8,59.136 L120.8,59.424 C120.8,61.392 119.536,63.248 117.264,64.032 L118.096,65.328 C119.824,64.736 121.04,63.504 121.68,61.968 C122.304,63.312 123.456,64.352 125.072,64.864 L125.872,63.584 Z M124.016,69.936 C126.032,69.936 127.2,69.424 127.2,68.496 C127.2,67.552 126.032,67.056 124.016,67.056 C122,67.056 120.832,67.552 120.832,68.496 C120.832,69.424 122,69.936 124.016,69.936 Z M124.016,65.76 C126.992,65.76 128.832,66.768 128.832,68.496 C128.832,70.208 126.992,71.232 124.016,71.232 C121.04,71.232 119.2,70.208 119.2,68.496 C119.2,66.768 121.04,65.76 124.016,65.76 Z M128.672,60.304 L128.672,56.784 L127.024,56.784 L127.024,65.424 L128.672,65.424 L128.672,61.664 L130.72,61.664 L130.72,60.304 L128.672,60.304 Z M135.36,66.608 C136.336,66.608 136.944,65.328 136.944,63.04 C136.944,60.752 136.336,59.456 135.36,59.456 C134.384,59.456 133.776,60.752 133.776,63.04 C133.776,65.328 134.384,66.608 135.36,66.608 Z M135.36,57.904 C137.232,57.904 138.464,59.856 138.464,63.04 C138.464,66.192 137.232,68.16 135.36,68.16 C133.488,68.16 132.256,66.192 132.256,63.04 C132.256,59.856 133.488,57.904 135.36,57.904 Z M142.88,56.784 L142.88,62.416 L141.232,62.416 L141.232,57.056 L139.68,57.056 L139.68,70.544 L141.232,70.544 L141.232,63.76 L142.88,63.76 L142.88,71.216 L144.448,71.216 L144.448,56.784 L142.88,56.784 Z M158.928,58.08 L155.648,58.08 L155.648,56.72 L153.984,56.72 L153.984,58.08 L150.672,58.08 L150.672,59.296 L158.928,59.296 L158.928,58.08 Z M152.912,62.032 C152.912,62.704 153.648,63.104 154.8,63.104 C155.952,63.104 156.688,62.704 156.688,62.032 C156.688,61.344 155.952,60.928 154.8,60.928 C153.648,60.928 152.912,61.344 152.912,62.032 Z M159.328,64.752 L159.456,65.888 C156.432,66.464 152.992,66.528 150.496,66.544 L150.304,65.232 C151.376,65.232 152.656,65.216 153.984,65.184 L153.984,64.192 C152.368,64 151.36,63.216 151.36,62.032 C151.36,60.656 152.72,59.808 154.8,59.808 C156.88,59.808 158.24,60.656 158.24,62.032 C158.24,63.2 157.248,64 155.648,64.192 L155.648,65.104 C156.896,65.024 158.16,64.928 159.328,64.752 Z M154.048,67.36 L154.048,69.616 L162.24,69.616 L162.24,70.96 L152.4,70.96 L152.4,67.36 L154.048,67.36 Z M161.744,61.68 L163.728,61.68 L163.728,63.04 L161.744,63.04 L161.744,68.08 L160.096,68.08 L160.096,56.768 L161.744,56.768 L161.744,61.68 Z M170.208,59.584 L173.264,59.584 L173.264,58.224 L165.408,58.224 L165.408,59.584 L168.56,59.584 L168.56,60.976 C168.56,63.376 167.088,66.112 164.88,67.168 L165.824,68.48 C167.488,67.664 168.768,65.936 169.408,63.92 C170.064,65.744 171.296,67.344 172.912,68.112 L173.824,66.816 C171.632,65.776 170.208,63.216 170.208,60.976 L170.208,59.584 Z M178.592,62.48 L176.336,62.48 L176.336,56.784 L174.688,56.784 L174.688,71.232 L176.336,71.232 L176.336,63.84 L178.592,63.84 L178.592,62.48 Z M186.96,64.24 C187.68,64.24 188.496,63.824 189.2,62.8 C189.024,60.48 188.144,59.424 186.864,59.424 C185.856,59.424 185.056,60.336 185.056,61.872 C185.056,63.376 185.728,64.24 186.96,64.24 Z M183.536,68.96 L184.528,67.824 C184.992,68.352 185.712,68.704 186.464,68.704 C187.888,68.704 189.12,67.552 189.232,64.192 C188.544,65.04 187.536,65.568 186.64,65.568 C184.672,65.568 183.344,64.336 183.344,61.872 C183.344,59.536 184.944,58 186.848,58 C189.104,58 190.928,59.824 190.928,63.712 C190.928,68.352 188.816,70.208 186.544,70.208 C185.184,70.208 184.224,69.664 183.536,68.96 Z M196.672,68.8 C197.696,68.8 198.496,67.872 198.496,66.352 C198.496,64.832 197.824,63.984 196.56,63.984 C195.872,63.984 195.072,64.352 194.368,65.36 C194.56,67.696 195.408,68.8 196.672,68.8 Z M200.016,59.264 L199.008,60.384 C198.576,59.872 197.856,59.504 197.168,59.504 C195.664,59.504 194.416,60.64 194.336,64 C195.024,63.152 196.048,62.64 196.896,62.64 C198.88,62.64 200.208,63.856 200.208,66.352 C200.208,68.688 198.608,70.208 196.688,70.208 C194.448,70.208 192.624,68.336 192.624,64.336 C192.624,59.808 194.752,58 197.072,58 C198.384,58 199.344,58.56 200.016,59.264 Z M207.424,63.056 L207.424,59.168 L203.952,59.168 L203.952,63.056 L207.424,63.056 Z M212.032,60.352 L209.024,60.352 L209.024,61.872 L212.032,61.872 L212.032,60.352 Z M209.024,63.216 L209.024,64.368 L202.336,64.368 L202.336,57.856 L209.024,57.856 L209.024,59.008 L212.032,59.008 L212.032,56.784 L213.68,56.784 L213.68,65.296 L212.032,65.296 L212.032,63.216 L209.024,63.216 Z M208.864,69.952 C210.912,69.952 212.096,69.424 212.096,68.464 C212.096,67.52 210.912,66.992 208.864,66.992 C206.816,66.992 205.648,67.52 205.648,68.464 C205.648,69.424 206.816,69.952 208.864,69.952 Z M208.864,65.696 C211.888,65.696 213.744,66.72 213.744,68.464 C213.744,70.208 211.888,71.232 208.864,71.232 C205.856,71.232 204,70.208 204,68.464 C204,66.72 205.856,65.696 208.864,65.696 Z M222.128,59.84 L225.856,59.84 L225.856,58.496 L220.512,58.496 L220.512,67.792 L221.472,67.792 C223.504,67.792 224.992,67.728 226.736,67.392 L226.592,66.032 C225.104,66.336 223.792,66.416 222.128,66.432 L222.128,59.84 Z M230.784,56.768 L230.784,62.48 L229.072,62.48 L229.072,57.072 L227.52,57.072 L227.52,70.512 L229.072,70.512 L229.072,63.824 L230.784,63.824 L230.784,71.216 L232.352,71.216 L232.352,56.768 L230.784,56.768 Z M243.152,63.392 C241.008,62.688 239.776,60.928 239.776,59.072 L239.776,57.52 L238.112,57.52 L238.112,58.944 C238.112,61.024 236.88,62.992 234.608,63.776 L235.488,65.088 C237.152,64.48 238.336,63.232 238.976,61.664 C239.584,63.024 240.736,64.128 242.288,64.688 L243.152,63.392 Z M241.376,69.936 C243.392,69.936 244.56,69.44 244.56,68.512 C244.56,67.616 243.392,67.104 241.376,67.104 C239.36,67.104 238.192,67.616 238.192,68.512 C238.192,69.44 239.36,69.936 241.376,69.936 Z M241.376,65.808 C244.368,65.808 246.192,66.816 246.192,68.512 C246.192,70.224 244.368,71.232 241.376,71.232 C238.4,71.232 236.56,70.224 236.56,68.512 C236.56,66.816 238.4,65.808 241.376,65.808 Z M246.032,60.352 L246.032,56.768 L244.384,56.768 L244.384,65.456 L246.032,65.456 L246.032,61.712 L248.08,61.712 L248.08,60.352 L246.032,60.352 Z M254.128,57.792 C256.384,57.792 258.064,59.216 258.064,61.264 C258.064,63.312 256.384,64.736 254.128,64.736 C251.872,64.736 250.208,63.312 250.208,61.264 C250.208,59.216 251.872,57.792 254.128,57.792 Z M254.128,59.2 C252.8,59.2 251.824,60 251.824,61.264 C251.824,62.512 252.8,63.328 254.128,63.328 C255.472,63.328 256.448,62.512 256.448,61.264 C256.448,60 255.472,59.2 254.128,59.2 Z M259.696,56.768 L259.696,71.248 L261.36,71.248 L261.36,56.768 L259.696,56.768 Z M249.744,68.192 C252.304,68.192 255.76,68.16 258.944,67.552 L258.832,66.352 C255.728,66.816 252.128,66.832 249.536,66.832 L249.744,68.192 Z M277.616,61.936 L277.616,58.864 L271.008,58.864 L271.008,61.936 L277.616,61.936 Z M279.248,57.552 L279.248,63.264 L269.376,63.264 L269.376,57.552 L279.248,57.552 Z M280.88,65.04 L267.776,65.04 L267.776,66.368 L273.456,66.368 L273.456,71.232 L275.104,71.232 L275.104,66.368 L280.88,66.368 L280.88,65.04 Z M291.008,63.648 C288.8,62.912 287.584,61.136 287.584,59.312 L287.584,59.056 L290.608,59.056 L290.608,57.712 L282.848,57.712 L282.848,59.056 L285.92,59.056 L285.92,59.312 C285.92,61.296 284.656,63.136 282.368,63.904 L283.232,65.2 C284.928,64.608 286.128,63.424 286.768,61.904 C287.392,63.28 288.544,64.384 290.16,64.912 L291.008,63.648 Z M284.288,67.52 L292.144,67.52 L292.144,71.232 L293.792,71.232 L293.792,66.192 L284.288,66.192 L284.288,67.52 Z M295.84,60.464 L293.792,60.464 L293.792,56.768 L292.144,56.768 L292.144,65.488 L293.792,65.488 L293.792,61.824 L295.84,61.824 L295.84,60.464 Z M301.936,58.768 C300.688,58.768 299.792,59.424 299.792,60.432 C299.792,61.456 300.688,62.112 301.936,62.112 C303.2,62.112 304.08,61.456 304.08,60.432 C304.08,59.424 303.2,58.768 301.936,58.768 Z M301.936,63.472 C299.776,63.472 298.208,62.224 298.208,60.432 C298.208,58.656 299.776,57.408 301.936,57.408 C304.096,57.408 305.664,58.656 305.664,60.432 C305.664,62.224 304.096,63.472 301.936,63.472 Z M306.592,64.016 C303.472,64.48 299.84,64.528 297.232,64.528 L297.424,65.888 C298.544,65.888 299.824,65.872 301.184,65.824 L301.184,70.8 L302.832,70.8 L302.832,65.728 C304.112,65.632 305.44,65.488 306.704,65.232 L306.592,64.016 Z M307.536,56.784 L307.536,71.248 L309.184,71.248 L309.184,56.784 L307.536,56.784 Z M312.4,73.2 C314.048,72.576 315.024,71.28 315.024,69.6 C315.024,68.368 314.496,67.616 313.6,67.616 C312.896,67.616 312.32,68.08 312.32,68.8 C312.32,69.568 312.896,69.984 313.552,69.984 C313.616,69.984 313.664,69.984 313.728,69.968 C313.712,70.912 313.072,71.712 311.984,72.16 L312.4,73.2 Z M330.544,56.768 L330.544,71.264 L332.208,71.264 L332.208,56.768 L330.544,56.768 Z M324.512,57.84 C326.672,57.84 328.24,59.824 328.24,62.928 C328.24,66.064 326.672,68.032 324.512,68.032 C322.368,68.032 320.8,66.064 320.8,62.928 C320.8,59.824 322.368,57.84 324.512,57.84 Z M324.512,59.328 C323.264,59.328 322.384,60.688 322.384,62.928 C322.384,65.2 323.264,66.56 324.512,66.56 C325.776,66.56 326.656,65.2 326.656,62.928 C326.656,60.688 325.776,59.328 324.512,59.328 Z M336.272,62.72 C338.8,62.448 340.784,61.408 341.568,59.92 C342.336,61.408 344.32,62.448 346.864,62.72 L347.44,61.424 C344.768,61.152 342.912,60.032 342.688,58.736 L346.912,58.736 L346.912,57.408 L336.24,57.408 L336.24,58.736 L340.432,58.736 C340.208,60.032 338.352,61.152 335.68,61.424 L336.272,62.72 Z M344.848,68.672 C344.848,67.808 343.648,67.36 341.536,67.36 C339.424,67.36 338.24,67.808 338.24,68.672 C338.24,69.504 339.424,69.968 341.536,69.968 C343.648,69.968 344.848,69.504 344.848,68.672 Z M348.096,64.768 L342.384,64.768 L342.384,66.112 C344.992,66.272 346.512,67.168 346.512,68.672 C346.512,70.304 344.656,71.232 341.536,71.232 C338.432,71.232 336.56,70.304 336.56,68.672 C336.56,67.168 338.112,66.256 340.736,66.096 L340.736,64.768 L335.024,64.768 L335.024,63.456 L348.096,63.456 L348.096,64.768 Z M358.896,61.776 L360.416,61.776 L360.416,65.52 L361.984,65.52 L361.984,56.784 L360.416,56.784 L360.416,60.432 L358.896,60.432 L358.896,57.056 L357.344,57.056 L357.344,65.056 L358.896,65.056 L358.896,61.776 Z M354.448,63.088 L354.448,59.296 L351.872,59.296 L351.872,63.088 L354.448,63.088 Z M355.984,58.032 L355.984,64.336 L350.336,64.336 L350.336,58.032 L355.984,58.032 Z M357.168,69.952 C359.2,69.952 360.416,69.44 360.416,68.528 C360.416,67.616 359.2,67.104 357.168,67.104 C355.136,67.104 353.92,67.616 353.92,68.528 C353.92,69.44 355.136,69.952 357.168,69.952 Z M357.168,65.824 C360.176,65.824 362.064,66.848 362.064,68.528 C362.064,70.208 360.176,71.232 357.168,71.232 C354.176,71.232 352.272,70.208 352.272,68.528 C352.272,66.848 354.176,65.824 357.168,65.824 Z M365.344,57.648 L365.344,58.992 L370.128,58.992 C369.84,61.216 367.888,62.96 364.576,63.856 L365.248,65.168 C369.424,63.984 371.904,61.392 371.904,57.648 L365.344,57.648 Z M368.656,66.864 L368.656,69.728 L374.832,69.728 L374.832,66.864 L368.656,66.864 Z M367.04,71.056 L367.04,65.552 L376.448,65.552 L376.448,71.056 L367.04,71.056 Z M374.8,56.768 L374.8,60.368 L371.936,60.368 L371.936,61.728 L374.8,61.728 L374.8,64.96 L376.448,64.96 L376.448,56.768 L374.8,56.768 Z M379.648,73.2 C381.296,72.576 382.272,71.28 382.272,69.6 C382.272,68.368 381.744,67.616 380.848,67.616 C380.144,67.616 379.568,68.08 379.568,68.8 C379.568,69.568 380.144,69.984 380.8,69.984 C380.864,69.984 380.912,69.984 380.976,69.968 C380.96,70.912 380.32,71.712 379.232,72.16 L379.648,73.2 Z M389.664,59.84 L393.392,59.84 L393.392,58.496 L388.048,58.496 L388.048,67.792 L389.008,67.792 C391.04,67.792 392.528,67.728 394.272,67.392 L394.128,66.032 C392.64,66.336 391.328,66.416 389.664,66.432 L389.664,59.84 Z M398.32,56.768 L398.32,62.48 L396.608,62.48 L396.608,57.072 L395.056,57.072 L395.056,70.512 L396.608,70.512 L396.608,63.824 L398.32,63.824 L398.32,71.216 L399.888,71.216 L399.888,56.768 L398.32,56.768 Z M403.536,65.296 L402.848,63.984 C405.664,63.536 407.952,61.536 407.952,59.36 L407.952,59.328 L403.36,59.328 L403.36,58 L414.272,58 L414.272,59.328 L409.68,59.328 L409.68,59.36 C409.68,61.536 411.984,63.488 414.848,63.936 L414.176,65.248 C411.792,64.8 409.76,63.456 408.816,61.616 C407.888,63.472 405.872,64.848 403.536,65.296 Z M409.664,68.112 L415.376,68.112 L415.376,69.456 L402.288,69.456 L402.288,68.112 L408,68.112 L408,64.736 L409.664,64.736 L409.664,68.112 Z M420.256,66.368 L420.256,69.616 L428.72,69.616 L428.72,70.96 L418.592,70.96 L418.592,66.368 L420.256,66.368 Z M428.144,63.024 L430.096,63.024 L430.096,64.352 L424.448,64.352 L424.448,67.664 L422.8,67.664 L422.8,64.352 L417.008,64.352 L417.008,63.024 L426.48,63.024 C426.832,61.296 426.848,60 426.848,58.832 L418.656,58.832 L418.656,57.504 L428.48,57.504 L428.48,58.704 C428.48,59.904 428.48,61.248 428.144,63.024 Z M445.584,56.8 L445.584,65.024 L447.232,65.024 L447.232,56.8 L445.584,56.8 Z M437.776,65.744 L447.232,65.744 L447.232,71.056 L437.776,71.056 L437.776,65.744 Z M445.616,67.056 L439.392,67.056 L439.392,69.744 L445.616,69.744 L445.616,67.056 Z M439.44,57.504 C441.648,57.504 443.264,58.896 443.264,60.912 C443.264,62.928 441.648,64.32 439.44,64.32 C437.232,64.32 435.6,62.928 435.6,60.912 C435.6,58.896 437.232,57.504 439.44,57.504 Z M439.44,58.864 C438.144,58.864 437.216,59.68 437.216,60.912 C437.216,62.16 438.144,62.96 439.44,62.96 C440.72,62.96 441.664,62.16 441.664,60.912 C441.664,59.68 440.72,58.864 439.44,58.864 Z M458.448,63.392 C456.304,62.688 455.072,60.928 455.072,59.072 L455.072,57.52 L453.408,57.52 L453.408,58.944 C453.408,61.024 452.176,62.992 449.904,63.776 L450.784,65.088 C452.448,64.48 453.632,63.232 454.272,61.664 C454.88,63.024 456.032,64.128 457.584,64.688 L458.448,63.392 Z M456.672,69.936 C458.688,69.936 459.856,69.44 459.856,68.512 C459.856,67.616 458.688,67.104 456.672,67.104 C454.656,67.104 453.488,67.616 453.488,68.512 C453.488,69.44 454.656,69.936 456.672,69.936 Z M456.672,65.808 C459.664,65.808 461.488,66.816 461.488,68.512 C461.488,70.224 459.664,71.232 456.672,71.232 C453.696,71.232 451.856,70.224 451.856,68.512 C451.856,66.816 453.696,65.808 456.672,65.808 Z M461.328,60.352 L461.328,56.768 L459.68,56.768 L459.68,65.456 L461.328,65.456 L461.328,61.712 L463.376,61.712 L463.376,60.352 L461.328,60.352 Z M36.848,95.536 C38,95.536 38.976,94.592 38.976,93.28 C38.976,91.936 38,90.992 36.848,90.992 C35.696,90.992 34.72,91.936 34.72,93.28 C34.72,94.592 35.696,95.536 36.848,95.536 Z M71.6,91.856 L71.6,90.528 L69.648,90.528 C69.968,88.88 69.968,87.632 69.968,86.544 L69.968,85.44 L60.144,85.44 L60.144,86.768 L68.352,86.768 C68.352,87.808 68.32,88.976 68,90.528 L58.512,90.528 L58.512,91.856 L64.208,91.856 L64.208,94.224 L59.84,94.224 L59.84,95.552 L68.384,95.552 L68.384,99.232 L70.032,99.232 L70.032,94.224 L65.872,94.224 L65.872,91.856 L71.6,91.856 Z M75.52,86.448 L73.872,86.448 L73.872,95.584 L74.832,95.584 C76.336,95.584 78,95.504 79.936,95.152 L79.76,93.744 C78.192,94.032 76.8,94.144 75.52,94.176 L75.52,86.448 Z M83.952,84.784 L83.952,90.528 L82.24,90.528 L82.24,85.072 L80.688,85.072 L80.688,98.512 L82.24,98.512 L82.24,91.888 L83.952,91.888 L83.952,99.232 L85.52,99.232 L85.52,84.784 L83.952,84.784 Z M93.824,98 L95.712,98 C95.904,93.392 96.336,90.8 99.104,87.344 L99.104,86.224 L91.52,86.224 L91.52,87.776 L97.056,87.776 C94.784,90.944 94.032,93.696 93.824,98 Z M101.2,86.608 L101.2,87.952 L105.248,87.952 C105.024,90.864 103.712,93.232 100.592,95.04 L101.552,96.208 C105.616,93.872 106.88,90.464 106.88,86.608 L101.2,86.608 Z M111.392,84.784 L111.392,90.432 L109.744,90.432 L109.744,85.168 L108.192,85.168 L108.192,98.56 L109.744,98.56 L109.744,91.776 L111.392,91.776 L111.392,99.232 L112.96,99.232 L112.96,84.784 L111.392,84.784 Z M121.088,87.84 L124.816,87.84 L124.816,86.496 L119.472,86.496 L119.472,95.792 L120.432,95.792 C122.464,95.792 123.952,95.728 125.696,95.392 L125.552,94.032 C124.064,94.336 122.752,94.416 121.088,94.432 L121.088,87.84 Z M129.744,84.768 L129.744,90.48 L128.032,90.48 L128.032,85.072 L126.48,85.072 L126.48,98.512 L128.032,98.512 L128.032,91.824 L129.744,91.824 L129.744,99.216 L131.312,99.216 L131.312,84.768 L129.744,84.768 Z M142.256,86.192 L138.816,86.192 L138.816,84.704 L137.168,84.704 L137.168,86.192 L133.728,86.192 L133.728,87.504 L142.256,87.504 L142.256,86.192 Z M136.064,90.768 C136.064,91.616 136.832,92.128 137.984,92.128 C139.136,92.128 139.92,91.616 139.92,90.768 C139.92,89.904 139.136,89.392 137.984,89.392 C136.832,89.392 136.064,89.904 136.064,90.768 Z M141.488,90.768 C141.488,92.336 140.064,93.392 137.984,93.392 C135.904,93.392 134.48,92.336 134.48,90.768 C134.48,89.184 135.904,88.128 137.984,88.128 C140.064,88.128 141.488,89.184 141.488,90.768 Z M135.488,95.856 L143.344,95.856 L143.344,99.232 L144.992,99.232 L144.992,94.528 L135.488,94.528 L135.488,95.856 Z M147.04,88.656 L144.992,88.656 L144.992,84.784 L143.344,84.784 L143.344,93.824 L144.992,93.824 L144.992,90.016 L147.04,90.016 L147.04,88.656 Z M158.752,88.368 L155.744,88.368 L155.744,89.984 L158.752,89.984 L158.752,88.368 Z M154.128,91.216 L154.128,89.104 L150.72,89.104 L150.72,91.216 L154.128,91.216 Z M155.744,91.328 L155.744,92.528 L149.088,92.528 L149.088,85.664 L150.72,85.664 L150.72,87.808 L154.128,87.808 L154.128,85.664 L155.744,85.664 L155.744,87.024 L158.752,87.024 L158.752,84.784 L160.4,84.784 L160.4,93.488 L158.752,93.488 L158.752,91.328 L155.744,91.328 Z M155.584,97.952 C157.632,97.952 158.816,97.44 158.816,96.496 C158.816,95.552 157.632,95.04 155.584,95.04 C153.536,95.04 152.368,95.552 152.368,96.496 C152.368,97.44 153.536,97.952 155.584,97.952 Z M155.584,93.76 C158.608,93.76 160.464,94.784 160.464,96.496 C160.464,98.224 158.608,99.232 155.584,99.232 C152.576,99.232 150.72,98.224 150.72,96.496 C150.72,94.784 152.576,93.76 155.584,93.76 Z M170.64,93.264 L173.472,93.264 L173.472,84.768 L175.12,84.768 L175.12,95.76 L173.472,95.76 L173.472,94.416 L170.64,94.416 L170.64,93.264 Z M167.76,86.544 C166.56,86.544 165.744,87.056 165.744,87.872 C165.744,88.688 166.56,89.2 167.76,89.2 C168.944,89.2 169.76,88.688 169.76,87.872 C169.76,87.056 168.944,86.544 167.76,86.544 Z M167.76,90.416 C165.632,90.416 164.176,89.408 164.176,87.872 C164.176,86.336 165.632,85.328 167.76,85.328 C169.872,85.328 171.328,86.336 171.328,87.872 C171.328,89.408 169.872,90.416 167.76,90.416 Z M167.104,95.296 L167.104,92.608 C165.728,92.672 164.416,92.688 163.28,92.688 L163.072,91.344 C165.728,91.328 169.28,91.296 172.336,90.912 L172.464,92.096 C171.248,92.304 169.984,92.448 168.752,92.512 L168.752,95.296 L167.104,95.296 Z M166.672,97.616 L175.456,97.616 L175.456,98.96 L165.024,98.96 L165.024,94.688 L166.672,94.688 L166.672,97.616 Z M190,91.552 C187.808,90.944 186.56,89.392 186.56,87.76 L186.56,87.68 L189.6,87.68 L189.6,86.368 L186.576,86.368 L186.576,84.72 L184.912,84.72 L184.912,86.368 L181.872,86.368 L181.872,87.68 L184.912,87.68 L184.912,87.76 C184.912,89.52 183.648,91.152 181.424,91.808 L182.208,93.104 C183.904,92.576 185.12,91.488 185.776,90.096 C186.4,91.376 187.6,92.368 189.248,92.848 L190,91.552 Z M185.152,95.248 L185.152,97.744 L191.136,97.744 L191.136,95.248 L185.152,95.248 Z M183.52,99.056 L183.52,93.936 L192.752,93.936 L192.752,99.056 L183.52,99.056 Z M194.8,88.32 L192.752,88.32 L192.752,84.784 L191.104,84.784 L191.104,93.296 L192.752,93.296 L192.752,89.68 L194.8,89.68 L194.8,88.32 Z M203.616,92.416 L206.528,92.416 L206.528,89.248 L203.568,89.248 C203.68,89.776 203.744,90.32 203.744,90.928 C203.744,91.472 203.696,91.952 203.616,92.416 Z M200.08,94.56 C201.328,94.56 202.176,93.2 202.176,90.928 C202.176,88.688 201.328,87.328 200.08,87.328 C198.848,87.328 197.984,88.688 197.984,90.928 C197.984,93.2 198.848,94.56 200.08,94.56 Z M206.528,84.768 L208.192,84.768 L208.192,99.264 L206.528,99.264 L206.528,93.776 L203.2,93.776 C202.592,95.2 201.456,96.032 200.08,96.032 C197.952,96.032 196.432,94.064 196.432,90.928 C196.432,87.824 197.952,85.84 200.08,85.84 C201.392,85.84 202.464,86.592 203.12,87.888 L206.528,87.888 L206.528,84.768 Z M37.024,123.664 C38.304,123.664 39.328,122.64 39.328,121.232 C39.328,119.824 38.304,118.8 37.024,118.8 C35.744,118.8 34.72,119.824 34.72,121.232 C34.72,122.64 35.744,123.664 37.024,123.664 Z M63.104,124.8 C64.128,124.8 64.928,123.872 64.928,122.352 C64.928,120.832 64.256,119.984 62.992,119.984 C62.304,119.984 61.504,120.352 60.8,121.36 C60.992,123.696 61.84,124.8 63.104,124.8 Z M66.448,115.264 L65.44,116.384 C65.008,115.872 64.288,115.504 63.6,115.504 C62.096,115.504 60.848,116.64 60.768,120 C61.456,119.152 62.48,118.64 63.328,118.64 C65.312,118.64 66.64,119.856 66.64,122.352 C66.64,124.688 65.04,126.208 63.12,126.208 C60.88,126.208 59.056,124.336 59.056,120.336 C59.056,115.808 61.184,114 63.504,114 C64.816,114 65.776,114.56 66.448,115.264 Z M69.456,119.856 C71.84,119.504 73.792,118.32 74.672,116.72 C75.552,118.32 77.52,119.504 79.904,119.856 L80.496,118.56 C77.744,118.192 75.712,116.608 75.616,114.928 L79.984,114.928 L79.984,113.6 L69.344,113.6 L69.344,114.928 L73.744,114.928 C73.648,116.608 71.616,118.192 68.864,118.56 L69.456,119.856 Z M81.216,120.912 L68.144,120.912 L68.144,122.24 L73.808,122.24 L73.808,127.248 L75.456,127.248 L75.456,122.24 L81.2,122.24 L81.216,120.912 Z M91.52,113.984 L89.872,113.984 L89.872,116.352 C89.872,119.024 88.464,121.76 86.208,122.864 L87.216,124.192 C88.864,123.344 90.08,121.664 90.704,119.664 C91.328,121.552 92.48,123.12 94.032,123.92 L95.04,122.608 C92.864,121.536 91.52,118.928 91.52,116.352 L91.52,113.984 Z M99.904,118.512 L97.648,118.512 L97.648,112.784 L96,112.784 L96,127.232 L97.648,127.232 L97.648,119.872 L99.904,119.872 L99.904,118.512 Z M107.68,125.968 C109.792,125.968 110.992,125.52 110.992,124.64 C110.992,123.776 109.792,123.312 107.68,123.312 C105.568,123.312 104.384,123.776 104.384,124.64 C104.384,125.52 105.568,125.968 107.68,125.968 Z M107.68,122.048 C110.8,122.048 112.656,122.992 112.656,124.64 C112.656,126.304 110.8,127.232 107.68,127.232 C104.576,127.232 102.704,126.304 102.704,124.64 C102.704,122.992 104.576,122.048 107.68,122.048 Z M105.92,118.336 L105.92,119.808 L109.472,119.808 L109.472,118.336 C108.944,118.416 108.352,118.464 107.712,118.464 C107.072,118.464 106.448,118.416 105.92,118.336 Z M107.712,114.304 C105.552,114.304 104.256,114.816 104.256,115.744 C104.256,116.672 105.552,117.2 107.712,117.2 C109.856,117.2 111.152,116.672 111.152,115.744 C111.152,114.816 109.856,114.304 107.712,114.304 Z M111.12,119.808 L114.24,119.808 L114.24,121.12 L101.168,121.12 L101.168,119.808 L104.272,119.808 L104.272,117.888 C103.184,117.424 102.56,116.688 102.56,115.744 C102.56,114.048 104.544,113.024 107.712,113.024 C110.864,113.024 112.864,114.048 112.864,115.744 C112.864,116.688 112.224,117.424 111.12,117.904 L111.12,119.808 Z M131.84,114.368 L126.848,114.368 L126.848,112.736 L125.2,112.736 L125.2,114.368 L120.144,114.368 L120.144,115.68 L131.84,115.68 L131.84,114.368 Z M129.12,118.832 C129.12,118.048 128.048,117.632 126.032,117.632 C124.016,117.632 122.928,118.048 122.928,118.832 C122.928,119.616 124.016,120.048 126.032,120.048 C128.048,120.048 129.12,119.616 129.12,118.832 Z M121.216,118.832 C121.216,117.264 123.024,116.384 126.032,116.384 C129.04,116.384 130.848,117.264 130.848,118.832 C130.848,120.4 129.04,121.28 126.032,121.28 C123.024,121.28 121.216,120.4 121.216,118.832 Z M132.592,122.144 L119.488,122.144 L119.488,123.472 L125.2,123.472 L125.2,127.248 L126.848,127.248 L126.848,123.472 L132.592,123.472 L132.592,122.144 Z M140.416,115.712 L140.416,119.76 L142.192,119.76 C143.904,119.76 144.832,119.056 144.832,117.632 C144.832,116.208 143.904,115.712 142.192,115.712 L140.416,115.712 Z M147.088,126 L144.992,126 L142.32,121.248 L140.416,121.248 L140.416,126 L138.56,126 L138.56,114.224 L142.416,114.224 C144.848,114.224 146.672,115.088 146.672,117.632 C146.672,119.456 145.696,120.544 144.208,121.008 L147.088,126 Z M152.368,126.208 C149.984,126.208 148.08,124.512 148.08,121.616 C148.08,118.752 150.032,116.976 152.096,116.976 C154.432,116.976 155.68,118.656 155.68,121.152 C155.68,121.504 155.648,121.872 155.6,122.08 L149.888,122.08 C150.032,123.76 151.088,124.768 152.608,124.768 C153.392,124.768 154.064,124.528 154.704,124.112 L155.344,125.28 C154.528,125.824 153.52,126.208 152.368,126.208 Z M149.872,120.816 L154.096,120.816 C154.096,119.296 153.408,118.416 152.128,118.416 C151.024,118.416 150.048,119.264 149.872,120.816 Z M157.744,126 L159.568,126 L159.568,119.76 C160.304,118.96 160.96,118.56 161.552,118.56 C162.56,118.56 163.024,119.168 163.024,120.688 L163.024,126 L164.864,126 L164.864,119.76 C165.6,118.96 166.24,118.56 166.848,118.56 C167.84,118.56 168.32,119.168 168.32,120.688 L168.32,126 L170.16,126 L170.16,120.464 C170.16,118.224 169.296,116.976 167.456,116.976 C166.352,116.976 165.456,117.664 164.592,118.592 C164.208,117.584 163.472,116.976 162.16,116.976 C161.072,116.976 160.192,117.632 159.44,118.432 L159.392,118.432 L159.248,117.2 L157.744,117.2 L157.744,126 Z M172.816,126 L174.64,126 L174.64,117.2 L172.816,117.2 L172.816,126 Z M173.728,115.552 C174.4,115.552 174.912,115.104 174.912,114.464 C174.912,113.808 174.4,113.376 173.728,113.376 C173.056,113.376 172.56,113.808 172.56,114.464 C172.56,115.104 173.056,115.552 173.728,115.552 Z M179.792,126.208 C181.968,126.208 183.136,125.008 183.136,123.536 C183.136,121.872 181.776,121.328 180.544,120.864 C179.584,120.512 178.672,120.224 178.672,119.472 C178.672,118.864 179.12,118.384 180.08,118.384 C180.816,118.384 181.44,118.704 182.048,119.152 L182.912,118.016 C182.192,117.456 181.232,116.976 180.048,116.976 C178.112,116.976 176.928,118.08 176.928,119.552 C176.928,121.04 178.272,121.664 179.44,122.112 C180.4,122.48 181.392,122.832 181.392,123.632 C181.392,124.304 180.896,124.816 179.84,124.816 C178.896,124.816 178.128,124.432 177.344,123.808 L176.48,124.992 C177.328,125.696 178.576,126.208 179.792,126.208 Z M187.472,126.208 C189.648,126.208 190.816,125.008 190.816,123.536 C190.816,121.872 189.456,121.328 188.224,120.864 C187.264,120.512 186.352,120.224 186.352,119.472 C186.352,118.864 186.8,118.384 187.76,118.384 C188.496,118.384 189.12,118.704 189.728,119.152 L190.592,118.016 C189.872,117.456 188.912,116.976 187.728,116.976 C185.792,116.976 184.608,118.08 184.608,119.552 C184.608,121.04 185.952,121.664 187.12,122.112 C188.08,122.48 189.072,122.832 189.072,123.632 C189.072,124.304 188.576,124.816 187.52,124.816 C186.576,124.816 185.808,124.432 185.024,123.808 L184.16,124.992 C185.008,125.696 186.256,126.208 187.472,126.208 Z M192.768,126 L194.592,126 L194.592,117.2 L192.768,117.2 L192.768,126 Z M193.68,115.552 C194.352,115.552 194.864,115.104 194.864,114.464 C194.864,113.808 194.352,113.376 193.68,113.376 C193.008,113.376 192.512,113.808 192.512,114.464 C192.512,115.104 193.008,115.552 193.68,115.552 Z M200.88,126.208 C198.704,126.208 196.736,124.528 196.736,121.616 C196.736,118.672 198.704,116.976 200.88,116.976 C203.056,116.976 205.024,118.672 205.024,121.616 C205.024,124.528 203.056,126.208 200.88,126.208 Z M200.88,124.704 C202.272,124.704 203.136,123.472 203.136,121.616 C203.136,119.744 202.272,118.496 200.88,118.496 C199.504,118.496 198.64,119.744 198.64,121.616 C198.64,123.472 199.504,124.704 200.88,124.704 Z M207.184,126 L209.008,126 L209.008,119.76 C209.792,118.976 210.352,118.56 211.168,118.56 C212.208,118.56 212.656,119.168 212.656,120.688 L212.656,126 L214.496,126 L214.496,120.464 C214.496,118.224 213.664,116.976 211.792,116.976 C210.592,116.976 209.696,117.632 208.88,118.416 L208.832,118.416 L208.688,117.2 L207.184,117.2 L207.184,126 Z M220.768,126 L222.592,126 L222.592,120.512 C223.152,119.12 224.016,118.624 224.736,118.624 C225.088,118.624 225.312,118.672 225.616,118.768 L225.952,117.168 C225.68,117.04 225.392,116.976 224.96,116.976 C224.016,116.976 223.088,117.648 222.464,118.784 L222.416,118.784 L222.272,117.2 L220.768,117.2 L220.768,126 Z M228.944,126.208 C227.424,126.208 226.352,125.216 226.352,123.664 C226.352,121.776 227.952,120.8 231.616,120.4 C231.6,119.376 231.232,118.48 229.936,118.48 C229.008,118.48 228.144,118.896 227.392,119.376 L226.704,118.128 C227.616,117.552 228.848,116.976 230.256,116.976 C232.448,116.976 233.456,118.368 233.456,120.704 L233.456,126 L231.952,126 L231.792,124.992 L231.744,124.992 C230.944,125.68 230,126.208 228.944,126.208 Z M229.504,124.752 C230.272,124.752 230.896,124.384 231.616,123.728 L231.616,121.568 C229.008,121.888 228.128,122.544 228.128,123.536 C228.128,124.4 228.72,124.752 229.504,124.752 Z M238.752,126.208 C239.392,126.208 239.984,126.048 240.48,125.888 L240.144,124.528 C239.888,124.64 239.504,124.736 239.2,124.736 C238.288,124.736 237.92,124.192 237.92,123.136 L237.92,118.672 L240.208,118.672 L240.208,117.2 L237.92,117.2 L237.92,114.768 L236.368,114.768 L236.16,117.2 L234.8,117.296 L234.8,118.672 L236.08,118.672 L236.08,123.12 C236.08,124.976 236.768,126.208 238.752,126.208 Z M245.52,126.208 C243.136,126.208 241.232,124.512 241.232,121.616 C241.232,118.752 243.184,116.976 245.248,116.976 C247.584,116.976 248.832,118.656 248.832,121.152 C248.832,121.504 248.8,121.872 248.752,122.08 L243.04,122.08 C243.184,123.76 244.24,124.768 245.76,124.768 C246.544,124.768 247.216,124.528 247.856,124.112 L248.496,125.28 C247.68,125.824 246.672,126.208 245.52,126.208 Z M243.024,120.816 L247.248,120.816 C247.248,119.296 246.56,118.416 245.28,118.416 C244.176,118.416 243.2,119.264 243.024,120.816 Z M257.392,126.208 C259.552,126.208 261.328,124.96 261.328,122.832 C261.328,121.248 260.256,120.224 258.896,119.888 L258.896,119.808 C260.144,119.344 260.928,118.4 260.928,117.04 C260.928,115.088 259.44,114 257.328,114 C255.968,114 254.88,114.592 253.952,115.424 L254.912,116.576 C255.584,115.92 256.352,115.472 257.264,115.456 C258.384,115.472 259.072,116.128 259.072,117.168 C259.072,118.352 258.304,119.232 255.984,119.232 L255.984,120.592 C258.64,120.592 259.472,121.44 259.472,122.752 C259.472,123.968 258.56,124.704 257.232,124.704 C256.016,124.704 255.136,124.112 254.448,123.408 L253.552,124.592 C254.336,125.472 255.536,126.208 257.392,126.208 Z M266.512,126.208 C268.672,126.208 270.448,124.96 270.448,122.832 C270.448,121.248 269.376,120.224 268.016,119.888 L268.016,119.808 C269.264,119.344 270.048,118.4 270.048,117.04 C270.048,115.088 268.56,114 266.448,114 C265.088,114 264,114.592 263.072,115.424 L264.032,116.576 C264.704,115.92 265.472,115.472 266.384,115.456 C267.504,115.472 268.192,116.128 268.192,117.168 C268.192,118.352 267.424,119.232 265.104,119.232 L265.104,120.592 C267.76,120.592 268.592,121.44 268.592,122.752 C268.592,123.968 267.68,124.704 266.352,124.704 C265.136,124.704 264.256,124.112 263.568,123.408 L262.672,124.592 C263.456,125.472 264.656,126.208 266.512,126.208 Z M274.672,121.456 C273.024,121.456 271.92,120.08 271.92,117.712 C271.92,115.344 273.024,114 274.672,114 C276.32,114 277.44,115.344 277.44,117.712 C277.44,120.08 276.32,121.456 274.672,121.456 Z M274.672,120.368 C275.504,120.368 276.096,119.52 276.096,117.712 C276.096,115.888 275.504,115.088 274.672,115.088 C273.856,115.088 273.264,115.888 273.264,117.712 C273.264,119.52 273.856,120.368 274.672,120.368 Z M275.04,126.208 L281.488,114 L282.656,114 L276.192,126.208 L275.04,126.208 Z M283.04,126.208 C281.392,126.208 280.272,124.848 280.272,122.48 C280.272,120.112 281.392,118.768 283.04,118.768 C284.672,118.768 285.792,120.112 285.792,122.48 C285.792,124.848 284.672,126.208 283.04,126.208 Z M283.04,125.136 C283.856,125.136 284.448,124.288 284.448,122.48 C284.448,120.656 283.856,119.856 283.04,119.856 C282.208,119.856 281.616,120.656 281.616,122.48 C281.616,124.288 282.208,125.136 283.04,125.136 Z M293.376,115.712 L293.376,119.76 L295.152,119.76 C296.864,119.76 297.792,119.056 297.792,117.632 C297.792,116.208 296.864,115.712 295.152,115.712 L293.376,115.712 Z M300.048,126 L297.952,126 L295.28,121.248 L293.376,121.248 L293.376,126 L291.52,126 L291.52,114.224 L295.376,114.224 C297.808,114.224 299.632,115.088 299.632,117.632 C299.632,119.456 298.656,120.544 297.168,121.008 L300.048,126 Z M305.328,126.208 C302.944,126.208 301.04,124.512 301.04,121.616 C301.04,118.752 302.992,116.976 305.056,116.976 C307.392,116.976 308.64,118.656 308.64,121.152 C308.64,121.504 308.608,121.872 308.56,122.08 L302.848,122.08 C302.992,123.76 304.048,124.768 305.568,124.768 C306.352,124.768 307.024,124.528 307.664,124.112 L308.304,125.28 C307.488,125.824 306.48,126.208 305.328,126.208 Z M302.832,120.816 L307.056,120.816 C307.056,119.296 306.368,118.416 305.088,118.416 C303.984,118.416 303.008,119.264 302.832,120.816 Z M313.088,126.208 C315.264,126.208 316.432,125.008 316.432,123.536 C316.432,121.872 315.072,121.328 313.84,120.864 C312.88,120.512 311.968,120.224 311.968,119.472 C311.968,118.864 312.416,118.384 313.376,118.384 C314.112,118.384 314.736,118.704 315.344,119.152 L316.208,118.016 C315.488,117.456 314.528,116.976 313.344,116.976 C311.408,116.976 310.224,118.08 310.224,119.552 C310.224,121.04 311.568,121.664 312.736,122.112 C313.696,122.48 314.688,122.832 314.688,123.632 C314.688,124.304 314.192,124.816 313.136,124.816 C312.192,124.816 311.424,124.432 310.64,123.808 L309.776,124.992 C310.624,125.696 311.872,126.208 313.088,126.208 Z M318.384,129.568 L318.384,117.2 L319.888,117.2 L320.032,118.16 L320.08,118.16 C320.848,117.52 321.808,116.976 322.784,116.976 C325.024,116.976 326.272,118.752 326.272,121.456 C326.272,124.48 324.464,126.208 322.48,126.208 C321.696,126.208 320.912,125.856 320.16,125.216 L320.208,126.72 L320.208,129.568 L318.384,129.568 Z M322.128,124.688 C323.408,124.688 324.368,123.552 324.368,121.488 C324.368,119.648 323.776,118.512 322.304,118.512 C321.616,118.512 320.96,118.864 320.208,119.584 L320.208,123.888 C320.896,124.48 321.584,124.688 322.128,124.688 Z M331.984,126.208 C329.808,126.208 327.84,124.528 327.84,121.616 C327.84,118.672 329.808,116.976 331.984,116.976 C334.16,116.976 336.128,118.672 336.128,121.616 C336.128,124.528 334.16,126.208 331.984,126.208 Z M331.984,124.704 C333.376,124.704 334.24,123.472 334.24,121.616 C334.24,119.744 333.376,118.496 331.984,118.496 C330.608,118.496 329.744,119.744 329.744,121.616 C329.744,123.472 330.608,124.704 331.984,124.704 Z M338.288,126 L340.112,126 L340.112,119.76 C340.896,118.976 341.456,118.56 342.272,118.56 C343.312,118.56 343.76,119.168 343.76,120.688 L343.76,126 L345.6,126 L345.6,120.464 C345.6,118.224 344.768,116.976 342.896,116.976 C341.696,116.976 340.8,117.632 339.984,118.416 L339.936,118.416 L339.792,117.2 L338.288,117.2 L338.288,126 Z M350.656,126.208 C352.832,126.208 354,125.008 354,123.536 C354,121.872 352.64,121.328 351.408,120.864 C350.448,120.512 349.536,120.224 349.536,119.472 C349.536,118.864 349.984,118.384 350.944,118.384 C351.68,118.384 352.304,118.704 352.912,119.152 L353.776,118.016 C353.056,117.456 352.096,116.976 350.912,116.976 C348.976,116.976 347.792,118.08 347.792,119.552 C347.792,121.04 349.136,121.664 350.304,122.112 C351.264,122.48 352.256,122.832 352.256,123.632 C352.256,124.304 351.76,124.816 350.704,124.816 C349.76,124.816 348.992,124.432 348.208,123.808 L347.344,124.992 C348.192,125.696 349.44,126.208 350.656,126.208 Z M359.616,126.208 C357.232,126.208 355.328,124.512 355.328,121.616 C355.328,118.752 357.28,116.976 359.344,116.976 C361.68,116.976 362.928,118.656 362.928,121.152 C362.928,121.504 362.896,121.872 362.848,122.08 L357.136,122.08 C357.28,123.76 358.336,124.768 359.856,124.768 C360.64,124.768 361.312,124.528 361.952,124.112 L362.592,125.28 C361.776,125.824 360.768,126.208 359.616,126.208 Z M357.12,120.816 L361.344,120.816 C361.344,119.296 360.656,118.416 359.376,118.416 C358.272,118.416 357.296,119.264 357.12,120.816 Z M368.592,126 L370.416,126 L370.416,120.512 C370.976,119.12 371.84,118.624 372.56,118.624 C372.912,118.624 373.136,118.672 373.44,118.768 L373.776,117.168 C373.504,117.04 373.216,116.976 372.784,116.976 C371.84,116.976 370.912,117.648 370.288,118.784 L370.24,118.784 L370.096,117.2 L368.592,117.2 L368.592,126 Z M376.768,126.208 C375.248,126.208 374.176,125.216 374.176,123.664 C374.176,121.776 375.776,120.8 379.44,120.4 C379.424,119.376 379.056,118.48 377.76,118.48 C376.832,118.48 375.968,118.896 375.216,119.376 L374.528,118.128 C375.44,117.552 376.672,116.976 378.08,116.976 C380.272,116.976 381.28,118.368 381.28,120.704 L381.28,126 L379.776,126 L379.616,124.992 L379.568,124.992 C378.768,125.68 377.824,126.208 376.768,126.208 Z M377.328,124.752 C378.096,124.752 378.72,124.384 379.44,123.728 L379.44,121.568 C376.832,121.888 375.952,122.544 375.952,123.536 C375.952,124.4 376.544,124.752 377.328,124.752 Z M386.576,126.208 C387.216,126.208 387.808,126.048 388.304,125.888 L387.968,124.528 C387.712,124.64 387.328,124.736 387.024,124.736 C386.112,124.736 385.744,124.192 385.744,123.136 L385.744,118.672 L388.032,118.672 L388.032,117.2 L385.744,117.2 L385.744,114.768 L384.192,114.768 L383.984,117.2 L382.624,117.296 L382.624,118.672 L383.904,118.672 L383.904,123.12 C383.904,124.976 384.592,126.208 386.576,126.208 Z M393.344,126.208 C390.96,126.208 389.056,124.512 389.056,121.616 C389.056,118.752 391.008,116.976 393.072,116.976 C395.408,116.976 396.656,118.656 396.656,121.152 C396.656,121.504 396.624,121.872 396.576,122.08 L390.864,122.08 C391.008,123.76 392.064,124.768 393.584,124.768 C394.368,124.768 395.04,124.528 395.68,124.112 L396.32,125.28 C395.504,125.824 394.496,126.208 393.344,126.208 Z M390.848,120.816 L395.072,120.816 C395.072,119.296 394.384,118.416 393.104,118.416 C392,118.416 391.024,119.264 390.848,120.816 Z M405.216,126.208 C407.28,126.208 409.184,124.736 409.184,122.128 C409.184,119.552 407.568,118.384 405.6,118.384 C404.96,118.384 404.48,118.544 403.984,118.8 L404.256,115.776 L408.624,115.776 L408.624,114.224 L402.656,114.224 L402.304,119.808 L403.2,120.4 C403.888,119.952 404.336,119.728 405.088,119.728 C406.432,119.728 407.328,120.624 407.328,122.192 C407.328,123.76 406.32,124.704 404.992,124.704 C403.76,124.704 402.912,124.112 402.24,123.44 L401.36,124.64 C402.192,125.456 403.36,126.208 405.216,126.208 Z M414.944,124.8 C415.968,124.8 416.768,123.872 416.768,122.352 C416.768,120.832 416.096,119.984 414.832,119.984 C414.144,119.984 413.344,120.352 412.64,121.36 C412.832,123.696 413.68,124.8 414.944,124.8 Z M418.288,115.264 L417.28,116.384 C416.848,115.872 416.128,115.504 415.44,115.504 C413.936,115.504 412.688,116.64 412.608,120 C413.296,119.152 414.32,118.64 415.168,118.64 C417.152,118.64 418.48,119.856 418.48,122.352 C418.48,124.688 416.88,126.208 414.96,126.208 C412.72,126.208 410.896,124.336 410.896,120.336 C410.896,115.808 413.024,114 415.344,114 C416.656,114 417.616,114.56 418.288,115.264 Z M422.496,121.456 C420.848,121.456 419.744,120.08 419.744,117.712 C419.744,115.344 420.848,114 422.496,114 C424.144,114 425.264,115.344 425.264,117.712 C425.264,120.08 424.144,121.456 422.496,121.456 Z M422.496,120.368 C423.328,120.368 423.92,119.52 423.92,117.712 C423.92,115.888 423.328,115.088 422.496,115.088 C421.68,115.088 421.088,115.888 421.088,117.712 C421.088,119.52 421.68,120.368 422.496,120.368 Z M422.864,126.208 L429.312,114 L430.48,114 L424.016,126.208 L422.864,126.208 Z M430.864,126.208 C429.216,126.208 428.096,124.848 428.096,122.48 C428.096,120.112 429.216,118.768 430.864,118.768 C432.496,118.768 433.616,120.112 433.616,122.48 C433.616,124.848 432.496,126.208 430.864,126.208 Z M430.864,125.136 C431.68,125.136 432.272,124.288 432.272,122.48 C432.272,120.656 431.68,119.856 430.864,119.856 C430.032,119.856 429.44,120.656 429.44,122.48 C429.44,124.288 430.032,125.136 430.864,125.136 Z" id="[-국내-임상-결과-]-•-주요우울장" fill="#4A4A4A"></path>
                    <path d="M0,528 L760,528" id="Path-2" stroke="#D1D1D1"></path>
                </g>
            </g>
        </g>
    </g>
</svg>