<?xml version="1.0" encoding="UTF-8"?>
<svg width="603px" height="705px" viewBox="0 0 603 705" version="1.1" xmlns="http://www.w3.org/2000/svg" xmlns:xlink="http://www.w3.org/1999/xlink">
    <!-- Generator: Sketch 45.1 (43504) - http://www.bohemiancoding.com/sketch -->
    <title>madrs_compressed</title>
    <desc>Created with Sketch.</desc>
    <defs>
        <rect id="path-1" x="0" y="0" width="182" height="36" rx="18"></rect>
        <filter x="-8.8%" y="-38.9%" width="117.6%" height="188.9%" filterUnits="objectBoundingBox" id="filter-2">
            <feOffset dx="0" dy="2" in="SourceAlpha" result="shadowOffsetOuter1"></feOffset>
            <feGaussianBlur stdDeviation="5" in="shadowOffsetOuter1" result="shadowBlurOuter1"></feGaussianBlur>
            <feColorMatrix values="0 0 0 0 0   0 0 0 0 0   0 0 0 0 0  0 0 0 0.16 0" type="matrix" in="shadowBlurOuter1"></feColorMatrix>
        </filter>
        <rect id="path-3" x="0" y="0" width="82" height="36" rx="18"></rect>
        <filter x="-19.5%" y="-38.9%" width="139.0%" height="188.9%" filterUnits="objectBoundingBox" id="filter-4">
            <feOffset dx="0" dy="2" in="SourceAlpha" result="shadowOffsetOuter1"></feOffset>
            <feGaussianBlur stdDeviation="5" in="shadowOffsetOuter1" result="shadowBlurOuter1"></feGaussianBlur>
            <feColorMatrix values="0 0 0 0 0   0 0 0 0 0   0 0 0 0 0  0 0 0 0.16 0" type="matrix" in="shadowBlurOuter1"></feColorMatrix>
        </filter>
        <rect id="path-5" x="0" y="0" width="82" height="36" rx="18"></rect>
        <filter x="-19.5%" y="-38.9%" width="139.0%" height="188.9%" filterUnits="objectBoundingBox" id="filter-6">
            <feOffset dx="0" dy="2" in="SourceAlpha" result="shadowOffsetOuter1"></feOffset>
            <feGaussianBlur stdDeviation="5" in="shadowOffsetOuter1" result="shadowBlurOuter1"></feGaussianBlur>
            <feColorMatrix values="0 0 0 0 0   0 0 0 0 0   0 0 0 0 0  0 0 0 0.16 0" type="matrix" in="shadowBlurOuter1"></feColorMatrix>
        </filter>
        <rect id="path-7" x="0" y="0" width="82" height="36" rx="18"></rect>
        <filter x="-19.5%" y="-38.9%" width="139.0%" height="188.9%" filterUnits="objectBoundingBox" id="filter-8">
            <feOffset dx="0" dy="2" in="SourceAlpha" result="shadowOffsetOuter1"></feOffset>
            <feGaussianBlur stdDeviation="5" in="shadowOffsetOuter1" result="shadowBlurOuter1"></feGaussianBlur>
            <feColorMatrix values="0 0 0 0 0   0 0 0 0 0   0 0 0 0 0  0 0 0 0.16 0" type="matrix" in="shadowBlurOuter1"></feColorMatrix>
        </filter>
        <rect id="path-9" x="0" y="0" width="82" height="36" rx="18"></rect>
        <filter x="-19.5%" y="-38.9%" width="139.0%" height="188.9%" filterUnits="objectBoundingBox" id="filter-10">
            <feOffset dx="0" dy="2" in="SourceAlpha" result="shadowOffsetOuter1"></feOffset>
            <feGaussianBlur stdDeviation="5" in="shadowOffsetOuter1" result="shadowBlurOuter1"></feGaussianBlur>
            <feColorMatrix values="0 0 0 0 0   0 0 0 0 0   0 0 0 0 0  0 0 0 0.16 0" type="matrix" in="shadowBlurOuter1"></feColorMatrix>
        </filter>
    </defs>
    <g id="design_web" stroke="none" stroke-width="1" fill="none" fill-rule="evenodd">
        <g id="013_web_product_efficacy-&amp;-safety" transform="translate(-597.000000, -716.000000)">
            <g id="madrs_compressed" transform="translate(597.000000, 716.000000)">
                <g id="madrs">
                    <path d="M0,517 L603,517" id="Path-2" stroke="#D1D1D1"></path>
                    <path d="M0,704.5 L603,704.5" id="Path-2-Copy" stroke="#00AFDB"></path>
                    <path d="M0,0.5 L603,0.5" id="Path-2-Copy-2" stroke="#00AFDB"></path>
                    <g id="tDCSgraph" transform="translate(106.000000, 228.000000)" fill="#00AFDB">
                        <rect id="Rectangle-2" x="0" y="0" width="24" height="233.123319"></rect>
                        <rect id="Rectangle-2-Copy-2" x="127" y="52" width="24" height="180.992709"></rect>
                        <rect id="Rectangle-2-Copy-4" x="248" y="96" width="24" height="136.865307"></rect>
                        <rect id="Rectangle-2-Copy-7" x="371" y="109" width="24" height="124.052022"></rect>
                    </g>
                    <g id="medicinegraph" transform="translate(136.000000, 209.000000)" fill="#DAEBEF">
                        <rect id="Rectangle-2-Copy" x="0" y="0" width="24" height="252"></rect>
                        <rect id="Rectangle-2-Copy-3" x="127" y="71.0072912" width="24" height="180.992709"></rect>
                        <rect id="Rectangle-2-Copy-5" x="248" y="132.569109" width="24" height="119.430891"></rect>
                        <rect id="Rectangle-2-Copy-6" x="371" y="147.016394" width="24" height="104.983606"></rect>
                    </g>
                    <g id="linegraph" transform="translate(111.000000, 205.000000)" stroke="#00AFDB" stroke-width="2">
                        <polyline id="Path-3" points="4.97468324 5.60967092 132.697338 56.2737203 254.402331 102.5129 378.986521 115.443804"></polyline>
                        <circle id="Oval-3" fill="#FFFFFF" cx="5" cy="5" r="5"></circle>
                        <circle id="Oval-3" fill="#FFFFFF" cx="133" cy="56" r="5"></circle>
                        <circle id="Oval-3-Copy" fill="#FFFFFF" cx="254" cy="101" r="5"></circle>
                        <circle id="Oval-3-Copy-2" fill="#FFFFFF" cx="378" cy="115" r="5"></circle>
                    </g>
                    <g id="highlight" transform="translate(415.000000, 211.000000)">
                        <circle id="Oval-4" stroke="#D1F1F9" cx="74" cy="74" r="74"></circle>
                        <circle id="Oval-4" stroke="#A8E5F5" cx="74" cy="74" r="64"></circle>
                        <circle id="Oval-4" stroke="#83E1F8" cx="74" cy="74" r="54"></circle>
                        <circle id="Oval-4" stroke="#5DDAFA" cx="74" cy="74" r="44"></circle>
                    </g>
                    <g id="numbers" transform="translate(99.000000, 176.000000)">
                        <path d="M7.7,13.752 L3.028,13.752 L6.068,10.072 C6.772,9.224 7.732,8.168 7.732,6.856 C7.732,4.968 6.324,3.832 4.564,3.832 C2.836,3.832 1.396,4.968 1.396,6.792 L2.756,6.792 C2.788,5.656 3.572,5.064 4.564,5.064 C5.476,5.064 6.356,5.64 6.356,6.792 C6.356,7.624 5.86,8.376 5.108,9.256 L1.22,13.848 L1.22,15 L7.7,15 L7.7,13.752 Z M11.252,15 L13.38,10.136 C13.092,10.312 12.644,10.36 12.34,10.36 C10.58,10.36 9.444,8.968 9.444,7.128 C9.444,5.176 10.74,3.832 12.628,3.832 C14.484,3.832 15.812,5.144 15.812,7.064 C15.812,7.832 15.412,8.808 15.06,9.624 L12.788,15 L11.252,15 Z M14.436,7.128 C14.436,5.88 13.716,5.08 12.628,5.08 C11.556,5.08 10.82,5.88 10.82,7.128 C10.82,8.36 11.556,9.176 12.628,9.176 C13.716,9.176 14.436,8.36 14.436,7.128 Z M19.428,13.144 L17.572,13.144 L17.572,15 L19.428,15 L19.428,13.144 Z M23.028,15 L25.156,10.136 C24.868,10.312 24.42,10.36 24.116,10.36 C22.356,10.36 21.22,8.968 21.22,7.128 C21.22,5.176 22.516,3.832 24.404,3.832 C26.26,3.832 27.588,5.144 27.588,7.064 C27.588,7.832 27.188,8.808 26.836,9.624 L24.564,15 L23.028,15 Z M26.212,7.128 C26.212,5.88 25.492,5.08 24.404,5.08 C23.332,5.08 22.596,5.88 22.596,7.128 C22.596,8.36 23.332,9.176 24.404,9.176 C25.492,9.176 26.212,8.36 26.212,7.128 Z" id="29.9" fill="#000000"></path>
                        <path d="M134.556,55.96 L133.18,55.96 L131.596,57.176 L131.596,58.68 L133.18,57.544 L133.18,67 L134.556,67 L134.556,55.96 Z M140.252,67 L142.38,62.136 C142.092,62.312 141.644,62.36 141.34,62.36 C139.58,62.36 138.444,60.968 138.444,59.128 C138.444,57.176 139.74,55.832 141.628,55.832 C143.484,55.832 144.812,57.144 144.812,59.064 C144.812,59.832 144.412,60.808 144.06,61.624 L141.788,67 L140.252,67 Z M143.436,59.128 C143.436,57.88 142.716,57.08 141.628,57.08 C140.556,57.08 139.82,57.88 139.82,59.128 C139.82,60.36 140.556,61.176 141.628,61.176 C142.716,61.176 143.436,60.36 143.436,59.128 Z M148.428,65.144 L146.572,65.144 L146.572,67 L148.428,67 L148.428,65.144 Z M151.532,59.144 L151.532,57.208 L155.052,57.208 L151.532,67 L152.988,67 L156.492,57.208 L156.492,55.96 L150.284,55.96 L150.284,59.144 L151.532,59.144 Z" id="19.7" fill="#000000"></path>
                        <path d="M256.556,99.96 L255.18,99.96 L253.596,101.176 L253.596,102.68 L255.18,101.544 L255.18,111 L256.556,111 L256.556,99.96 Z M264.972,99.96 L262.844,104.824 C263.132,104.648 263.58,104.6 263.884,104.6 C265.644,104.6 266.78,105.992 266.78,107.832 C266.78,109.784 265.484,111.128 263.596,111.128 C261.74,111.128 260.412,109.816 260.412,107.896 C260.412,107.128 260.812,106.152 261.164,105.336 L263.436,99.96 L264.972,99.96 Z M261.788,107.832 C261.788,109.08 262.508,109.88 263.596,109.88 C264.668,109.88 265.404,109.08 265.404,107.832 C265.404,106.6 264.668,105.784 263.596,105.784 C262.508,105.784 261.788,106.6 261.788,107.832 Z M270.428,109.144 L268.572,109.144 L268.572,111 L270.428,111 L270.428,109.144 Z M272.06,107.896 C272.06,106.648 272.876,105.64 273.74,105.272 C272.86,104.84 272.22,103.912 272.22,102.872 C272.22,101.032 273.724,99.832 275.388,99.832 C277.052,99.832 278.556,101.032 278.556,102.872 C278.556,103.912 277.9,104.84 277.02,105.272 C277.916,105.64 278.716,106.648 278.716,107.896 C278.716,109.848 277.116,111.128 275.388,111.128 C273.66,111.128 272.06,109.848 272.06,107.896 Z M273.436,107.896 C273.436,108.984 274.268,109.88 275.388,109.88 C276.476,109.88 277.34,108.984 277.34,107.896 C277.34,106.68 276.316,105.928 275.388,105.928 C274.428,105.928 273.436,106.68 273.436,107.896 Z M273.58,102.872 C273.58,103.88 274.38,104.696 275.388,104.696 C276.38,104.696 277.18,103.88 277.18,102.872 C277.18,101.88 276.38,101.08 275.388,101.08 C274.38,101.08 273.58,101.88 273.58,102.872 Z" id="16.8" fill="#000000"></path>
                        <path d="M373.628,99.06 L370.794,99.06 L368.038,101.036 L368.038,104.078 L370.612,102.31 L370.612,117 L373.628,117 L373.628,99.06 Z M384.938,99.06 L378.724,112.164 L378.724,114.296 L386.602,114.296 L386.602,117 L389.618,117 L389.618,114.296 L391.256,114.296 L391.256,111.67 L389.618,111.67 L389.618,106.782 L386.602,106.782 L386.602,111.67 L382.39,111.67 L388.136,99.06 L384.938,99.06 Z M397.08,113.412 L393.492,113.412 L393.492,117 L397.08,117 L397.08,113.412 Z M408.156,99.06 L404.516,106.678 C405.036,106.418 405.66,106.34 406.232,106.34 C409.04,106.34 411.068,108.602 411.068,111.644 C411.068,115.258 408.65,117.234 405.426,117.234 C402.228,117.234 399.758,115.284 399.758,111.696 C399.758,110.37 400.408,108.758 401.214,106.99 L404.88,99.06 L408.156,99.06 Z M402.774,111.722 C402.774,113.464 403.762,114.608 405.426,114.608 C407.064,114.608 408.052,113.464 408.052,111.722 C408.052,110.006 407.064,108.836 405.426,108.836 C403.762,108.836 402.774,110.006 402.774,111.722 Z" id="14.6" fill="#00AFDB"></path>
                    </g>
                    <g id="bottom" transform="translate(96.000000, 475.000000)" font-size="16" font-family="SourceHanSansKR-Medium, Source Han Sans KR" fill="#263238" font-weight="400">
                        <text id="BASELINE">
                            <tspan x="0.424" y="19">BASELINE</tspan>
                        </text>
                        <text id="2-WEEKS">
                            <tspan x="132.332" y="19">2 WEEKS</tspan>
                        </text>
                        <text id="4-WEEKS">
                            <tspan x="254.332" y="19">4 WEEKS</tspan>
                        </text>
                        <text id="6-WEEKS">
                            <tspan x="377.332" y="19">6 WEEKS</tspan>
                        </text>
                    </g>
                </g>
                <text id="TDCS" font-family="SourceHanSansKR-Medium, Source Han Sans KR" font-size="18" font-weight="400" fill="#747474">
                    <tspan x="10.185" y="591">TDCS</tspan>
                </text>
                <text id="SSRI" font-family="SourceHanSansKR-Medium, Source Han Sans KR" font-size="18" font-weight="400" letter-spacing="1" fill="#747474">
                    <tspan x="10.033" y="649">SSR</tspan>
                    <tspan x="46.405" y="649">I</tspan>
                </text>
                <path d="M562,635 L111,635 L111,635 C107.134007,635 104,638.134007 104,642 C104,645.865993 107.134007,649 111,649 L562,649 L562,655 L584.304348,641.5 L562,628 L562,635 Z" id="Combined-Shape" fill="#DAEBEF"></path>
                <path d="M562,577 L111,577 L111,577 C107.134007,577 104,580.134007 104,584 C104,587.865993 107.134007,591 111,591 L562,591 L562,597 L584.304348,583.5 L562,570 L562,577 Z" id="Combined-Shape" fill="#00AFDB"></path>
                <g id="6weeks" transform="translate(246.000000, 624.000000)">
                    <g id="shadow" fill-opacity="1" fill="black">
                        <use filter="url(#filter-2)" xlink:href="#path-1"></use>
                    </g>
                    <rect id="Rectangle-6" fill="#FFFFFF" x="0" y="0" width="182" height="36" rx="18"></rect>
                    <path d="M29.158,22.1 C29.926,22.1 30.526,21.404 30.526,20.264 C30.526,19.124 30.022,18.488 29.074,18.488 C28.558,18.488 27.958,18.764 27.43,19.52 C27.574,21.272 28.21,22.1 29.158,22.1 Z M31.666,14.948 L30.91,15.788 C30.586,15.404 30.046,15.128 29.53,15.128 C28.402,15.128 27.466,15.98 27.406,18.5 C27.922,17.864 28.69,17.48 29.326,17.48 C30.814,17.48 31.81,18.392 31.81,20.264 C31.81,22.016 30.61,23.156 29.17,23.156 C27.49,23.156 26.122,21.752 26.122,18.752 C26.122,15.356 27.718,14 29.458,14 C30.442,14 31.162,14.42 31.666,14.948 Z M37.138,23 L38.734,23 L39.538,19.748 C39.706,19.124 39.826,18.512 39.958,17.828 L40.018,17.828 C40.162,18.512 40.282,19.112 40.438,19.736 L41.278,23 L42.934,23 L44.638,16.4 L43.342,16.4 L42.49,19.976 C42.346,20.612 42.238,21.224 42.106,21.848 L42.058,21.848 C41.902,21.224 41.77,20.612 41.614,19.976 L40.666,16.4 L39.382,16.4 L38.458,19.976 C38.302,20.6 38.17,21.224 38.026,21.848 L37.978,21.848 C37.858,21.224 37.75,20.612 37.618,19.976 L36.742,16.4 L35.35,16.4 L37.138,23 Z M48.682,23.156 C46.894,23.156 45.466,21.884 45.466,19.712 C45.466,17.564 46.93,16.232 48.478,16.232 C50.23,16.232 51.166,17.492 51.166,19.364 C51.166,19.628 51.142,19.904 51.106,20.06 L46.822,20.06 C46.93,21.32 47.722,22.076 48.862,22.076 C49.45,22.076 49.954,21.896 50.434,21.584 L50.914,22.46 C50.302,22.868 49.546,23.156 48.682,23.156 Z M46.81,19.112 L49.978,19.112 C49.978,17.972 49.462,17.312 48.502,17.312 C47.674,17.312 46.942,17.948 46.81,19.112 Z M55.462,23.156 C53.674,23.156 52.246,21.884 52.246,19.712 C52.246,17.564 53.71,16.232 55.258,16.232 C57.01,16.232 57.946,17.492 57.946,19.364 C57.946,19.628 57.922,19.904 57.886,20.06 L53.602,20.06 C53.71,21.32 54.502,22.076 55.642,22.076 C56.23,22.076 56.734,21.896 57.214,21.584 L57.694,22.46 C57.082,22.868 56.326,23.156 55.462,23.156 Z M53.59,19.112 L56.758,19.112 C56.758,17.972 56.242,17.312 55.282,17.312 C54.454,17.312 53.722,17.948 53.59,19.112 Z M59.494,23 L60.838,23 L60.838,21.296 L61.954,20.012 L63.742,23 L65.242,23 L62.746,19.076 L64.99,16.4 L63.466,16.4 L60.874,19.604 L60.838,19.604 L60.838,13.436 L59.494,13.436 L59.494,23 Z M68.182,23.156 C69.814,23.156 70.69,22.256 70.69,21.152 C70.69,19.904 69.67,19.496 68.746,19.148 C68.026,18.884 67.342,18.668 67.342,18.104 C67.342,17.648 67.678,17.288 68.398,17.288 C68.95,17.288 69.418,17.528 69.874,17.864 L70.522,17.012 C69.982,16.592 69.262,16.232 68.374,16.232 C66.922,16.232 66.034,17.06 66.034,18.164 C66.034,19.28 67.042,19.748 67.918,20.084 C68.638,20.36 69.382,20.624 69.382,21.224 C69.382,21.728 69.01,22.112 68.218,22.112 C67.51,22.112 66.934,21.824 66.346,21.356 L65.698,22.244 C66.334,22.772 67.27,23.156 68.182,23.156 Z M72.058,25.4 C73.294,24.932 74.026,23.96 74.026,22.7 C74.026,21.776 73.63,21.212 72.958,21.212 C72.43,21.212 71.998,21.56 71.998,22.1 C71.998,22.676 72.43,22.988 72.922,22.988 C72.97,22.988 73.006,22.988 73.054,22.976 C73.042,23.684 72.562,24.284 71.746,24.62 L72.058,25.4 Z M79.018,19.556 L81.442,19.556 L81.442,17.24 C81.442,16.76 81.49,16.016 81.514,15.536 L81.466,15.536 C81.25,15.98 81.01,16.436 80.758,16.892 L79.018,19.556 Z M83.866,19.556 L83.866,20.624 L82.738,20.624 L82.738,23 L81.442,23 L81.442,20.624 L77.626,20.624 L77.626,19.7 L81.142,14.168 L82.738,14.168 L82.738,19.556 L83.866,19.556 Z M84.754,23 L90.454,23 L90.454,21.824 L88.246,21.824 C87.814,21.824 87.262,21.86 86.806,21.908 C88.678,20.12 90.034,18.356 90.034,16.652 C90.034,15.056 88.99,14 87.37,14 C86.218,14 85.438,14.504 84.682,15.32 L85.462,16.088 C85.93,15.548 86.506,15.104 87.202,15.104 C88.186,15.104 88.702,15.764 88.702,16.724 C88.702,18.176 87.358,19.892 84.754,22.196 L84.754,23 Z M97.03,23.156 C97.51,23.156 97.954,23.036 98.326,22.916 L98.074,21.896 C97.882,21.98 97.594,22.052 97.366,22.052 C96.682,22.052 96.406,21.644 96.406,20.852 L96.406,17.504 L98.122,17.504 L98.122,16.4 L96.406,16.4 L96.406,14.576 L95.242,14.576 L95.086,16.4 L94.066,16.472 L94.066,17.504 L95.026,17.504 L95.026,20.84 C95.026,22.232 95.542,23.156 97.03,23.156 Z M99.562,23 L100.93,23 L100.93,16.4 L99.562,16.4 L99.562,23 Z M100.246,15.164 C100.75,15.164 101.134,14.828 101.134,14.348 C101.134,13.856 100.75,13.532 100.246,13.532 C99.742,13.532 99.37,13.856 99.37,14.348 C99.37,14.828 99.742,15.164 100.246,15.164 Z M103.006,23 L104.374,23 L104.374,18.32 C104.926,17.72 105.418,17.42 105.862,17.42 C106.618,17.42 106.966,17.876 106.966,19.016 L106.966,23 L108.346,23 L108.346,18.32 C108.898,17.72 109.378,17.42 109.834,17.42 C110.578,17.42 110.938,17.876 110.938,19.016 L110.938,23 L112.318,23 L112.318,18.848 C112.318,17.168 111.67,16.232 110.29,16.232 C109.462,16.232 108.79,16.748 108.142,17.444 C107.854,16.688 107.302,16.232 106.318,16.232 C105.502,16.232 104.842,16.724 104.278,17.324 L104.242,17.324 L104.134,16.4 L103.006,16.4 L103.006,23 Z M117.058,23.156 C115.27,23.156 113.842,21.884 113.842,19.712 C113.842,17.564 115.306,16.232 116.854,16.232 C118.606,16.232 119.542,17.492 119.542,19.364 C119.542,19.628 119.518,19.904 119.482,20.06 L115.198,20.06 C115.306,21.32 116.098,22.076 117.238,22.076 C117.826,22.076 118.33,21.896 118.81,21.584 L119.29,22.46 C118.678,22.868 117.922,23.156 117.058,23.156 Z M115.186,19.112 L118.354,19.112 C118.354,17.972 117.838,17.312 116.878,17.312 C116.05,17.312 115.318,17.948 115.186,19.112 Z M122.878,23.156 C124.51,23.156 125.386,22.256 125.386,21.152 C125.386,19.904 124.366,19.496 123.442,19.148 C122.722,18.884 122.038,18.668 122.038,18.104 C122.038,17.648 122.374,17.288 123.094,17.288 C123.646,17.288 124.114,17.528 124.57,17.864 L125.218,17.012 C124.678,16.592 123.958,16.232 123.07,16.232 C121.618,16.232 120.73,17.06 120.73,18.164 C120.73,19.28 121.738,19.748 122.614,20.084 C123.334,20.36 124.078,20.624 124.078,21.224 C124.078,21.728 123.706,22.112 122.914,22.112 C122.206,22.112 121.63,21.824 121.042,21.356 L120.394,22.244 C121.03,22.772 121.966,23.156 122.878,23.156 Z M131.83,23.156 C130.174,23.156 129.106,21.896 129.106,19.712 C129.106,17.564 130.462,16.232 131.938,16.232 C132.694,16.232 133.174,16.52 133.714,16.976 L133.654,15.884 L133.654,13.436 L135.034,13.436 L135.034,23 L133.906,23 L133.786,22.256 L133.75,22.256 C133.258,22.76 132.574,23.156 131.83,23.156 Z M132.154,22.016 C132.706,22.016 133.174,21.764 133.654,21.212 L133.654,17.984 C133.162,17.54 132.694,17.384 132.202,17.384 C131.278,17.384 130.534,18.26 130.534,19.688 C130.534,21.188 131.122,22.016 132.154,22.016 Z M138.67,23.156 C137.53,23.156 136.726,22.412 136.726,21.248 C136.726,19.832 137.926,19.1 140.674,18.8 C140.662,18.032 140.386,17.36 139.414,17.36 C138.718,17.36 138.07,17.672 137.506,18.032 L136.99,17.096 C137.674,16.664 138.598,16.232 139.654,16.232 C141.298,16.232 142.054,17.276 142.054,19.028 L142.054,23 L140.926,23 L140.806,22.244 L140.77,22.244 C140.17,22.76 139.462,23.156 138.67,23.156 Z M139.09,22.064 C139.666,22.064 140.134,21.788 140.674,21.296 L140.674,19.676 C138.718,19.916 138.058,20.408 138.058,21.152 C138.058,21.8 138.502,22.064 139.09,22.064 Z M144.01,23 L145.378,23 L145.378,16.4 L144.01,16.4 L144.01,23 Z M144.694,15.164 C145.198,15.164 145.582,14.828 145.582,14.348 C145.582,13.856 145.198,13.532 144.694,13.532 C144.19,13.532 143.818,13.856 143.818,14.348 C143.818,14.828 144.19,15.164 144.694,15.164 Z M148.822,23.156 C149.158,23.156 149.398,23.108 149.566,23.048 L149.386,22.004 C149.266,22.028 149.218,22.028 149.158,22.028 C148.99,22.028 148.822,21.896 148.822,21.524 L148.822,13.436 L147.454,13.436 L147.454,21.452 C147.454,22.52 147.826,23.156 148.822,23.156 Z M156.358,16.4 L155.014,16.4 L153.958,19.796 L153.442,21.656 L153.382,21.656 C153.178,21.044 152.974,20.384 152.782,19.796 L151.558,16.4 L150.142,16.4 L152.758,22.952 L152.626,23.408 C152.386,24.116 151.966,24.644 151.246,24.644 C151.078,24.644 150.886,24.584 150.766,24.548 L150.502,25.628 C150.73,25.712 150.994,25.76 151.33,25.76 C152.722,25.76 153.418,24.812 153.934,23.396 L156.358,16.4 Z" id="6-weeks,-42-times-da" fill="#4A4A4A"></path>
                </g>
                <g id="5times" transform="translate(100.000000, 546.000000)">
                    <g id="shadow" fill-opacity="1" fill="black">
                        <use filter="url(#filter-4)" xlink:href="#path-3"></use>
                    </g>
                    <rect id="Rectangle-6" fill="#FFFFFF" x="0" y="0" width="82" height="36" rx="18"></rect>
                    <path d="M24.426,23.156 C25.974,23.156 27.402,22.052 27.402,20.096 C27.402,18.164 26.19,17.288 24.714,17.288 C24.234,17.288 23.874,17.408 23.502,17.6 L23.706,15.332 L26.982,15.332 L26.982,14.168 L22.506,14.168 L22.242,18.356 L22.914,18.8 C23.43,18.464 23.766,18.296 24.33,18.296 C25.338,18.296 26.01,18.968 26.01,20.144 C26.01,21.32 25.254,22.028 24.258,22.028 C23.334,22.028 22.698,21.584 22.194,21.08 L21.534,21.98 C22.158,22.592 23.034,23.156 24.426,23.156 Z M34.014,23.156 C34.494,23.156 34.938,23.036 35.31,22.916 L35.058,21.896 C34.866,21.98 34.578,22.052 34.35,22.052 C33.666,22.052 33.39,21.644 33.39,20.852 L33.39,17.504 L35.106,17.504 L35.106,16.4 L33.39,16.4 L33.39,14.576 L32.226,14.576 L32.07,16.4 L31.05,16.472 L31.05,17.504 L32.01,17.504 L32.01,20.84 C32.01,22.232 32.526,23.156 34.014,23.156 Z M36.546,23 L37.914,23 L37.914,16.4 L36.546,16.4 L36.546,23 Z M37.23,15.164 C37.734,15.164 38.118,14.828 38.118,14.348 C38.118,13.856 37.734,13.532 37.23,13.532 C36.726,13.532 36.354,13.856 36.354,14.348 C36.354,14.828 36.726,15.164 37.23,15.164 Z M39.99,23 L41.358,23 L41.358,18.32 C41.91,17.72 42.402,17.42 42.846,17.42 C43.602,17.42 43.95,17.876 43.95,19.016 L43.95,23 L45.33,23 L45.33,18.32 C45.882,17.72 46.362,17.42 46.818,17.42 C47.562,17.42 47.922,17.876 47.922,19.016 L47.922,23 L49.302,23 L49.302,18.848 C49.302,17.168 48.654,16.232 47.274,16.232 C46.446,16.232 45.774,16.748 45.126,17.444 C44.838,16.688 44.286,16.232 43.302,16.232 C42.486,16.232 41.826,16.724 41.262,17.324 L41.226,17.324 L41.118,16.4 L39.99,16.4 L39.99,23 Z M54.042,23.156 C52.254,23.156 50.826,21.884 50.826,19.712 C50.826,17.564 52.29,16.232 53.838,16.232 C55.59,16.232 56.526,17.492 56.526,19.364 C56.526,19.628 56.502,19.904 56.466,20.06 L52.182,20.06 C52.29,21.32 53.082,22.076 54.222,22.076 C54.81,22.076 55.314,21.896 55.794,21.584 L56.274,22.46 C55.662,22.868 54.906,23.156 54.042,23.156 Z M52.17,19.112 L55.338,19.112 C55.338,17.972 54.822,17.312 53.862,17.312 C53.034,17.312 52.302,17.948 52.17,19.112 Z M59.862,23.156 C61.494,23.156 62.37,22.256 62.37,21.152 C62.37,19.904 61.35,19.496 60.426,19.148 C59.706,18.884 59.022,18.668 59.022,18.104 C59.022,17.648 59.358,17.288 60.078,17.288 C60.63,17.288 61.098,17.528 61.554,17.864 L62.202,17.012 C61.662,16.592 60.942,16.232 60.054,16.232 C58.602,16.232 57.714,17.06 57.714,18.164 C57.714,19.28 58.722,19.748 59.598,20.084 C60.318,20.36 61.062,20.624 61.062,21.224 C61.062,21.728 60.69,22.112 59.898,22.112 C59.19,22.112 58.614,21.824 58.026,21.356 L57.378,22.244 C58.014,22.772 58.95,23.156 59.862,23.156 Z" id="5-times" fill="#4A4A4A"></path>
                </g>
                <g id="5times-copy" transform="translate(100.000000, 586.000000)">
                    <g id="shadow" fill-opacity="1" fill="black">
                        <use filter="url(#filter-6)" xlink:href="#path-5"></use>
                    </g>
                    <rect id="Rectangle-6" fill="#FFFFFF" x="0" y="0" width="82" height="36" rx="18"></rect>
                    <path d="M24.426,23.156 C25.974,23.156 27.402,22.052 27.402,20.096 C27.402,18.164 26.19,17.288 24.714,17.288 C24.234,17.288 23.874,17.408 23.502,17.6 L23.706,15.332 L26.982,15.332 L26.982,14.168 L22.506,14.168 L22.242,18.356 L22.914,18.8 C23.43,18.464 23.766,18.296 24.33,18.296 C25.338,18.296 26.01,18.968 26.01,20.144 C26.01,21.32 25.254,22.028 24.258,22.028 C23.334,22.028 22.698,21.584 22.194,21.08 L21.534,21.98 C22.158,22.592 23.034,23.156 24.426,23.156 Z M34.014,23.156 C34.494,23.156 34.938,23.036 35.31,22.916 L35.058,21.896 C34.866,21.98 34.578,22.052 34.35,22.052 C33.666,22.052 33.39,21.644 33.39,20.852 L33.39,17.504 L35.106,17.504 L35.106,16.4 L33.39,16.4 L33.39,14.576 L32.226,14.576 L32.07,16.4 L31.05,16.472 L31.05,17.504 L32.01,17.504 L32.01,20.84 C32.01,22.232 32.526,23.156 34.014,23.156 Z M36.546,23 L37.914,23 L37.914,16.4 L36.546,16.4 L36.546,23 Z M37.23,15.164 C37.734,15.164 38.118,14.828 38.118,14.348 C38.118,13.856 37.734,13.532 37.23,13.532 C36.726,13.532 36.354,13.856 36.354,14.348 C36.354,14.828 36.726,15.164 37.23,15.164 Z M39.99,23 L41.358,23 L41.358,18.32 C41.91,17.72 42.402,17.42 42.846,17.42 C43.602,17.42 43.95,17.876 43.95,19.016 L43.95,23 L45.33,23 L45.33,18.32 C45.882,17.72 46.362,17.42 46.818,17.42 C47.562,17.42 47.922,17.876 47.922,19.016 L47.922,23 L49.302,23 L49.302,18.848 C49.302,17.168 48.654,16.232 47.274,16.232 C46.446,16.232 45.774,16.748 45.126,17.444 C44.838,16.688 44.286,16.232 43.302,16.232 C42.486,16.232 41.826,16.724 41.262,17.324 L41.226,17.324 L41.118,16.4 L39.99,16.4 L39.99,23 Z M54.042,23.156 C52.254,23.156 50.826,21.884 50.826,19.712 C50.826,17.564 52.29,16.232 53.838,16.232 C55.59,16.232 56.526,17.492 56.526,19.364 C56.526,19.628 56.502,19.904 56.466,20.06 L52.182,20.06 C52.29,21.32 53.082,22.076 54.222,22.076 C54.81,22.076 55.314,21.896 55.794,21.584 L56.274,22.46 C55.662,22.868 54.906,23.156 54.042,23.156 Z M52.17,19.112 L55.338,19.112 C55.338,17.972 54.822,17.312 53.862,17.312 C53.034,17.312 52.302,17.948 52.17,19.112 Z M59.862,23.156 C61.494,23.156 62.37,22.256 62.37,21.152 C62.37,19.904 61.35,19.496 60.426,19.148 C59.706,18.884 59.022,18.668 59.022,18.104 C59.022,17.648 59.358,17.288 60.078,17.288 C60.63,17.288 61.098,17.528 61.554,17.864 L62.202,17.012 C61.662,16.592 60.942,16.232 60.054,16.232 C58.602,16.232 57.714,17.06 57.714,18.164 C57.714,19.28 58.722,19.748 59.598,20.084 C60.318,20.36 61.062,20.624 61.062,21.224 C61.062,21.728 60.69,22.112 59.898,22.112 C59.19,22.112 58.614,21.824 58.026,21.356 L57.378,22.244 C58.014,22.772 58.95,23.156 59.862,23.156 Z" id="5-times" fill="#4A4A4A"></path>
                </g>
                <g id="1time" transform="translate(346.000000, 565.000000)">
                    <g id="shadow" fill-opacity="1" fill="black">
                        <use filter="url(#filter-8)" xlink:href="#path-7"></use>
                    </g>
                    <rect id="Rectangle-6" fill="#FFFFFF" x="0" y="0" width="82" height="36" rx="18"></rect>
                    <path d="M25.122,23 L30.162,23 L30.162,21.86 L28.434,21.86 L28.434,14.168 L27.39,14.168 C26.886,14.48 26.298,14.684 25.47,14.84 L25.47,15.716 L27.054,15.716 L27.054,21.86 L25.122,21.86 L25.122,23 Z M36.894,23.156 C37.374,23.156 37.818,23.036 38.19,22.916 L37.938,21.896 C37.746,21.98 37.458,22.052 37.23,22.052 C36.546,22.052 36.27,21.644 36.27,20.852 L36.27,17.504 L37.986,17.504 L37.986,16.4 L36.27,16.4 L36.27,14.576 L35.106,14.576 L34.95,16.4 L33.93,16.472 L33.93,17.504 L34.89,17.504 L34.89,20.84 C34.89,22.232 35.406,23.156 36.894,23.156 Z M39.426,23 L40.794,23 L40.794,16.4 L39.426,16.4 L39.426,23 Z M40.11,15.164 C40.614,15.164 40.998,14.828 40.998,14.348 C40.998,13.856 40.614,13.532 40.11,13.532 C39.606,13.532 39.234,13.856 39.234,14.348 C39.234,14.828 39.606,15.164 40.11,15.164 Z M42.87,23 L44.238,23 L44.238,18.32 C44.79,17.72 45.282,17.42 45.726,17.42 C46.482,17.42 46.83,17.876 46.83,19.016 L46.83,23 L48.21,23 L48.21,18.32 C48.762,17.72 49.242,17.42 49.698,17.42 C50.442,17.42 50.802,17.876 50.802,19.016 L50.802,23 L52.182,23 L52.182,18.848 C52.182,17.168 51.534,16.232 50.154,16.232 C49.326,16.232 48.654,16.748 48.006,17.444 C47.718,16.688 47.166,16.232 46.182,16.232 C45.366,16.232 44.706,16.724 44.142,17.324 L44.106,17.324 L43.998,16.4 L42.87,16.4 L42.87,23 Z M56.922,23.156 C55.134,23.156 53.706,21.884 53.706,19.712 C53.706,17.564 55.17,16.232 56.718,16.232 C58.47,16.232 59.406,17.492 59.406,19.364 C59.406,19.628 59.382,19.904 59.346,20.06 L55.062,20.06 C55.17,21.32 55.962,22.076 57.102,22.076 C57.69,22.076 58.194,21.896 58.674,21.584 L59.154,22.46 C58.542,22.868 57.786,23.156 56.922,23.156 Z M55.05,19.112 L58.218,19.112 C58.218,17.972 57.702,17.312 56.742,17.312 C55.914,17.312 55.182,17.948 55.05,19.112 Z" id="1-time" fill="#4A4A4A"></path>
                </g>
                <g id="1time" transform="translate(465.000000, 565.000000)">
                    <g id="shadow" fill-opacity="1" fill="black">
                        <use filter="url(#filter-10)" xlink:href="#path-9"></use>
                    </g>
                    <rect id="Rectangle-6" fill="#FFFFFF" x="0" y="0" width="82" height="36" rx="18"></rect>
                    <path d="M25.122,23 L30.162,23 L30.162,21.86 L28.434,21.86 L28.434,14.168 L27.39,14.168 C26.886,14.48 26.298,14.684 25.47,14.84 L25.47,15.716 L27.054,15.716 L27.054,21.86 L25.122,21.86 L25.122,23 Z M36.894,23.156 C37.374,23.156 37.818,23.036 38.19,22.916 L37.938,21.896 C37.746,21.98 37.458,22.052 37.23,22.052 C36.546,22.052 36.27,21.644 36.27,20.852 L36.27,17.504 L37.986,17.504 L37.986,16.4 L36.27,16.4 L36.27,14.576 L35.106,14.576 L34.95,16.4 L33.93,16.472 L33.93,17.504 L34.89,17.504 L34.89,20.84 C34.89,22.232 35.406,23.156 36.894,23.156 Z M39.426,23 L40.794,23 L40.794,16.4 L39.426,16.4 L39.426,23 Z M40.11,15.164 C40.614,15.164 40.998,14.828 40.998,14.348 C40.998,13.856 40.614,13.532 40.11,13.532 C39.606,13.532 39.234,13.856 39.234,14.348 C39.234,14.828 39.606,15.164 40.11,15.164 Z M42.87,23 L44.238,23 L44.238,18.32 C44.79,17.72 45.282,17.42 45.726,17.42 C46.482,17.42 46.83,17.876 46.83,19.016 L46.83,23 L48.21,23 L48.21,18.32 C48.762,17.72 49.242,17.42 49.698,17.42 C50.442,17.42 50.802,17.876 50.802,19.016 L50.802,23 L52.182,23 L52.182,18.848 C52.182,17.168 51.534,16.232 50.154,16.232 C49.326,16.232 48.654,16.748 48.006,17.444 C47.718,16.688 47.166,16.232 46.182,16.232 C45.366,16.232 44.706,16.724 44.142,17.324 L44.106,17.324 L43.998,16.4 L42.87,16.4 L42.87,23 Z M56.922,23.156 C55.134,23.156 53.706,21.884 53.706,19.712 C53.706,17.564 55.17,16.232 56.718,16.232 C58.47,16.232 59.406,17.492 59.406,19.364 C59.406,19.628 59.382,19.904 59.346,20.06 L55.062,20.06 C55.17,21.32 55.962,22.076 57.102,22.076 C57.69,22.076 58.194,21.896 58.674,21.584 L59.154,22.46 C58.542,22.868 57.786,23.156 56.922,23.156 Z M55.05,19.112 L58.218,19.112 C58.218,17.972 57.702,17.312 56.742,17.312 C55.914,17.312 55.182,17.948 55.05,19.112 Z" id="1-time" fill="#4A4A4A"></path>
                </g>
                <text id="[-SSRI와-tDCS를-각각-6주간" font-family="SourceHanSansKR-Medium, Source Han Sans KR" font-size="16" font-weight="400" line-spacing="28" fill="#4A4A4A">
                    <tspan x="10" y="51">	[ SSRI와  tDCS를 각각 6주간 환자에게 적용한 임상실험 결과 ]</tspan>
                    <tspan x="10" y="79">	•     약 적용 횟수 -  6주 동안 매일 섭취하여 </tspan>
                    <tspan x="298.008" y="79" font-family="SourceHanSansKR-Bold, Source Han Sans KR" font-weight="bold">총 42회</tspan>
                    <tspan x="349.928" y="79"></tspan>
                    <tspan x="10" y="106">	•     tDCS 적용 횟수 - 첫 2주간 월-금 5회씩 적용, 남은 4주는 2주에 한번씩 </tspan>
                    <tspan x="505.144" y="106" font-family="SourceHanSansKR-Bold, Source Han Sans KR" font-weight="bold">총 12회</tspan>
                </text>
            </g>
        </g>
    </g>
</svg>