<svg xmlns="http://www.w3.org/2000/svg" xmlns:xlink="http://www.w3.org/1999/xlink" width="100" height="100" viewBox="0 0 100 100">
    <defs>
        <circle id="b" cx="40" cy="40" r="40"/>
        <filter id="a" width="140%" height="140%" x="-20%" y="-17.5%" filterUnits="objectBoundingBox">
            <feOffset dy="2" in="SourceAlpha" result="shadowOffsetOuter1"/>
            <feGaussianBlur in="shadowOffsetOuter1" result="shadowBlurOuter1" stdDeviation="5"/>
            <feColorMatrix in="shadowBlurOuter1" values="0 0 0 0 0 0 0 0 0 0 0 0 0 0 0 0 0 0 0.2 0"/>
        </filter>
    </defs>
    <g fill="none" fill-rule="evenodd">
        <g transform="translate(10 8)">
            <use fill="#000" filter="url(#a)" xlink:href="#b"/>
            <use fill="#FFF" xlink:href="#b"/>
        </g>
        <g fill="#00AEDB">
            <path d="M41.642 55.521c-1.487.906-2.921.74-4.033-.703-.001 0-.005-.001-.006-.003-3.207-4.154-5.499-9.003-5.603-12.433-.01-1.417.63-2.52 2.804-1.459 1.463.716 3.158 1.876 4.954 3.393 2.042 1.725 4.214 3.911 6.324 6.438.224.267.442.535.659.803-1.804 1.67-3.544 3.019-5.099 3.964zM67.646 42.249c-.03-1.7-1.556-2.202-3.214-1.324-1.364.723-2.908 1.804-4.535 3.179-2.043 1.726-4.214 3.912-6.325 6.439-.223.267-.443.535-.658.803a56.718 56.718 0 0 0-3.107 4.226 43.101 43.101 0 0 0-2.331 3.922c-1.04 1.995-.263 3.046 1.235 3.338.053.009.106.02.159.027.06.01.12.019.183.027.228.024.452.036.676.039.026 0 .05.004.075.004 7.677-.001 17.555-13.444 17.842-20.68M41.553 37.402c.342.648.72 1.317 1.131 1.999 1.311 2.177 2.965 4.502 4.891 6.81.577.689 1.157 1.352 1.74 1.99a61.571 61.571 0 0 0 1.739-1.99c1.926-2.308 3.579-4.633 4.89-6.81.412-.682.79-1.35 1.13-1.999.96-1.823.934-3.705-2.214-4.092A47.103 47.103 0 0 0 49.31 33c-1.85 0-3.722.093-5.523.307-3.168.38-3.196 2.269-2.235 4.095"/>
        </g>
    </g>
</svg>
