<svg xmlns="http://www.w3.org/2000/svg" width="36" height="36" viewBox="0 0 36 36">
    <defs>
        <path id="a" d="M25 18V0H0v18h25z"/>
    </defs>
    <g fill="none" fill-rule="evenodd">
        <circle cx="18" cy="18" r="17.5" stroke="#FFF"/>
        <g fill="#FFF">
            <path d="M10.762 19.8c-.657 0-1.19-.537-1.19-1.2 0-.663.533-1.2 1.19-1.2.657 0 1.19.537 1.19 1.2 0 .663-.533 1.2-1.19 1.2m.322-3.99s-.651 0-1.242.664V13.8H8.381v7.025h1.476v-.55s.348.725 1.227.725c0 0 2.059-.088 2.059-2.621 0 0-.076-2.57-2.06-2.57M13.143 13.8v1.63s.765-.036.765 1.401V21h1.616v-4.554s.069-2.646-2.381-2.646M19.095 19.8c-.657 0-1.19-.537-1.19-1.2 0-.663.533-1.2 1.19-1.2.658 0 1.19.537 1.19 1.2 0 .663-.532 1.2-1.19 1.2m-.027-3.6s-2.353 0-2.353 2.416c0 0-.077 2.384 2.353 2.384 0 0 2.408-.004 2.408-2.384 0 0 .078-2.416-2.408-2.416M25.048 19.8c-.658 0-1.19-.537-1.19-1.2 0-.663.532-1.2 1.19-1.2.657 0 1.19.537 1.19 1.2 0 .663-.533 1.2-1.19 1.2zm.946-3.437v.449s-.424-.612-1.239-.612c0 0-2.088-.095-2.088 2.46 0 0-.023 2.382 2.03 2.382 0 0 .838.037 1.297-.612v.375s.104 1.173-.94 1.173h-.356V23.4h.573s2.158.025 2.158-2.508v-4.53h-1.435z"/>
        </g>
    </g>
</svg>
