<svg xmlns="http://www.w3.org/2000/svg" width="36" height="36" viewBox="0 0 36 36">
    <g fill="none" fill-rule="evenodd">
        <path d="M0 0h36v36H0z"/>
        <circle cx="18" cy="18" r="17.5" stroke="#FFF"/>
        <path fill="#FFF" d="M24.997 13.371a3.749 3.749 0 0 0 1.533-2.094 6.655 6.655 0 0 1-2.215.919C23.68 11.459 22.773 11 21.769 11c-1.925 0-3.486 1.695-3.486 3.786 0 .297.029.586.089.863-2.898-.159-5.467-1.664-7.189-3.957a4.028 4.028 0 0 0-.472 1.905c0 1.313.616 2.472 1.552 3.152a3.292 3.292 0 0 1-1.58-.473v.046c0 1.836 1.2 3.366 2.798 3.713a3.16 3.16 0 0 1-.92.133 3.19 3.19 0 0 1-.655-.067c.443 1.504 1.731 2.6 3.258 2.63-1.195 1.016-2.698 1.62-4.332 1.62-.281 0-.56-.016-.832-.052C11.544 25.373 13.377 26 15.346 26c6.416 0 9.923-5.77 9.923-10.774 0-.165-.002-.328-.01-.49A7.43 7.43 0 0 0 27 12.776a6.54 6.54 0 0 1-2.003.595z"/>
    </g>
</svg>
