<?xml version="1.0" encoding="UTF-8"?>
<svg width="763px" height="322px" viewBox="0 0 763 322" version="1.1" xmlns="http://www.w3.org/2000/svg" xmlns:xlink="http://www.w3.org/1999/xlink">
    <!-- Generator: Sketch 48.1 (47250) - http://www.bohemiancoding.com/sketch -->
    <title>imgsideEffectTable</title>
    <desc>Created with Sketch.</desc>
    <defs></defs>
    <g id="010_web_technology_clinical-indications-&amp;-research-applicationsEN" stroke="none" stroke-width="1" fill="none" fill-rule="evenodd" transform="translate(-340.000000, -1738.000000)">
        <g id="Group-4" transform="translate(340.000000, 1738.000000)">
            <g id="imgsideEffectTable">
                <rect id="Rectangle-3" fill="#EAF7FA" x="0" y="0" width="761.883306" height="47.4337536"></rect>
                <rect id="Rectangle-3-Copy" fill="#EAF7FA" x="0" y="47.1643729" width="241.808133" height="274.284011"></rect>
                <path d="M343.980025,71.4962191 L346.71763,71.4962191 L346.71763,68.8805864 C346.71763,68.3384864 346.77184,67.4982313 346.798945,66.9561313 L346.744735,66.9561313 C346.50079,67.4575738 346.22974,67.9725689 345.945138,68.4875639 L343.980025,71.4962191 Z M349.455236,71.4962191 L349.455236,72.7023917 L348.1813,72.7023917 L348.1813,75.3857869 L346.71763,75.3857869 L346.71763,72.7023917 L342.407935,72.7023917 L342.407935,71.6588492 L346.378818,65.4111462 L348.1813,65.4111462 L348.1813,71.4962191 L349.455236,71.4962191 Z M354.008876,74.3693494 C354.876236,74.3693494 355.553861,73.5833043 355.553861,72.2958167 C355.553861,71.0083291 354.984656,70.2900466 353.914008,70.2900466 C353.331251,70.2900466 352.653626,70.6017541 352.057316,71.4555616 C352.219946,73.4342268 352.938228,74.3693494 354.008876,74.3693494 Z M356.841349,66.2920588 L355.987541,67.2407338 C355.621623,66.8070538 355.011761,66.4953463 354.429003,66.4953463 C353.155068,66.4953463 352.097973,67.4575738 352.030211,70.3035991 C352.612968,69.5853165 353.480328,69.1516365 354.198611,69.1516365 C355.879121,69.1516365 357.003979,70.1816265 357.003979,72.2958167 C357.003979,74.2744819 355.648728,75.5619694 354.022428,75.5619694 C352.125078,75.5619694 350.580093,73.9763268 350.580093,70.5882016 C350.580093,66.7528438 352.382576,65.2214112 354.347688,65.2214112 C355.458993,65.2214112 356.272144,65.6957487 356.841349,66.2920588 Z M363.847992,78.0827346 L364.823772,77.6490546 C363.658257,75.711047 363.116157,73.4206743 363.116157,71.1438541 C363.116157,68.8805864 363.658257,66.5902138 364.823772,64.6386536 L363.847992,64.2185261 C362.587609,66.2649537 361.842221,68.4740114 361.842221,71.1438541 C361.842221,73.8408018 362.587609,76.0227545 363.847992,78.0827346 Z M369.079257,75.5619694 C370.908845,75.5619694 372.413172,74.5048744 372.413172,72.7023917 C372.413172,71.3606941 371.505155,70.4933341 370.353192,70.2087315 L370.353192,70.140969 C371.410287,69.7479465 372.07436,68.948349 372.07436,67.7963864 C372.07436,66.1429812 370.813977,65.2214112 369.025047,65.2214112 C367.873084,65.2214112 366.951514,65.7228537 366.165469,66.4275838 L366.978619,67.4033638 C367.547824,66.8477113 368.198344,66.4682413 368.970837,66.4546888 C369.919512,66.4682413 370.50227,67.0238938 370.50227,67.9048064 C370.50227,68.9076914 369.85175,69.653079 367.886637,69.653079 L367.886637,70.8050416 C370.136352,70.8050416 370.841082,71.5233241 370.841082,72.6346292 C370.841082,73.6646193 370.06859,74.2880344 368.943732,74.2880344 C367.913742,74.2880344 367.168354,73.7865918 366.585597,73.1902818 L365.826657,74.1931668 C366.490729,74.9385544 367.507167,75.5619694 369.079257,75.5619694 Z M376.817735,70.5068866 C377.427598,70.5068866 378.118775,70.1545215 378.715085,69.2871615 C378.566008,67.3220488 377.82062,66.4275838 376.73642,66.4275838 C375.882613,66.4275838 375.204987,67.2000763 375.204987,68.5011164 C375.204987,69.7750515 375.774193,70.5068866 376.817735,70.5068866 Z M373.9175,74.5048744 L374.757755,73.5426468 C375.150777,73.9898793 375.76064,74.2880344 376.397608,74.2880344 C377.60378,74.2880344 378.647323,73.3122543 378.74219,70.4662291 C378.159433,71.1845116 377.305625,71.6317442 376.546685,71.6317442 C374.879727,71.6317442 373.75487,70.5882016 373.75487,68.5011164 C373.75487,66.5224513 375.11012,65.2214112 376.722868,65.2214112 C378.63377,65.2214112 380.178755,66.7663963 380.178755,70.059654 C380.178755,73.9898793 378.389825,75.5619694 376.46537,75.5619694 C375.313407,75.5619694 374.500257,75.1011844 373.9175,74.5048744 Z M382.916361,75.5619694 C383.499118,75.5619694 383.959903,75.1147369 383.959903,74.4777694 C383.959903,73.8408018 383.499118,73.3664643 382.916361,73.3664643 C382.333603,73.3664643 381.872818,73.8408018 381.872818,74.4777694 C381.872818,75.1147369 382.333603,75.5619694 382.916361,75.5619694 Z M388.567753,75.5619694 C390.397341,75.5619694 391.901669,74.5048744 391.901669,72.7023917 C391.901669,71.3606941 390.993651,70.4933341 389.841689,70.2087315 L389.841689,70.140969 C390.898784,69.7479465 391.562856,68.948349 391.562856,67.7963864 C391.562856,66.1429812 390.302474,65.2214112 388.513543,65.2214112 C387.361581,65.2214112 386.440011,65.7228537 385.653966,66.4275838 L386.467116,67.4033638 C387.036321,66.8477113 387.686841,66.4682413 388.459333,66.4546888 C389.408009,66.4682413 389.990766,67.0238938 389.990766,67.9048064 C389.990766,68.9076914 389.340246,69.653079 387.375133,69.653079 L387.375133,70.8050416 C389.624849,70.8050416 390.329579,71.5233241 390.329579,72.6346292 C390.329579,73.6646193 389.557086,74.2880344 388.432228,74.2880344 C387.402238,74.2880344 386.656851,73.7865918 386.074093,73.1902818 L385.315153,74.1931668 C385.979226,74.9385544 386.995663,75.5619694 388.567753,75.5619694 Z M395.479529,71.5368766 C394.083621,71.5368766 393.148499,70.3713616 393.148499,68.3655914 C393.148499,66.3598213 394.083621,65.2214112 395.479529,65.2214112 C396.875437,65.2214112 397.824112,66.3598213 397.824112,68.3655914 C397.824112,70.3713616 396.875437,71.5368766 395.479529,71.5368766 Z M395.479529,70.6153066 C396.184259,70.6153066 396.685702,69.897024 396.685702,68.3655914 C396.685702,66.8206063 396.184259,66.1429812 395.479529,66.1429812 C394.788351,66.1429812 394.286909,66.8206063 394.286909,68.3655914 C394.286909,69.897024 394.788351,70.6153066 395.479529,70.6153066 Z M395.791237,75.5619694 L401.252894,65.2214112 L402.242227,65.2214112 L396.767017,75.5619694 L395.791237,75.5619694 Z M402.567487,75.5619694 C401.171579,75.5619694 400.222904,74.4100069 400.222904,72.4042367 C400.222904,70.3984666 401.171579,69.2600565 402.567487,69.2600565 C403.949842,69.2600565 404.898517,70.3984666 404.898517,72.4042367 C404.898517,74.4100069 403.949842,75.5619694 402.567487,75.5619694 Z M402.567487,74.6539519 C403.258665,74.6539519 403.760107,73.9356693 403.760107,72.4042367 C403.760107,70.8592516 403.258665,70.1816265 402.567487,70.1816265 C401.862757,70.1816265 401.361314,70.8592516 401.361314,72.4042367 C401.361314,73.9356693 401.862757,74.6539519 402.567487,74.6539519 Z M406.985602,78.0827346 C408.259537,76.0227545 409.004925,73.8408018 409.004925,71.1438541 C409.004925,68.4740114 408.259537,66.2649537 406.985602,64.2185261 L406.009822,64.6386536 C407.175337,66.5902138 407.717437,68.8805864 407.717437,71.1438541 C407.717437,73.4206743 407.175337,75.711047 406.009822,77.6490546 L406.985602,78.0827346 Z" id="46-(39.3%)" fill="#000000"></path>
                <path d="M602.847266,75.3857869 L609.284704,75.3857869 L609.284704,74.0576418 L606.791044,74.0576418 C606.303154,74.0576418 605.679739,74.0982993 605.164743,74.1525093 C607.278934,72.1331867 608.810366,70.140969 608.810366,68.2165139 C608.810366,66.4140313 607.631299,65.2214112 605.801711,65.2214112 C604.500671,65.2214112 603.619758,65.7906162 602.765951,66.7121863 L603.646863,67.5795463 C604.175411,66.9696838 604.825931,66.4682413 605.611976,66.4682413 C606.723281,66.4682413 607.306039,67.2136288 607.306039,68.2978289 C607.306039,69.9376815 605.788159,71.8756892 602.847266,74.4777694 L602.847266,75.3857869 Z M612.591514,75.3857869 L614.190709,75.3857869 C614.353339,71.4826666 614.719257,69.2871615 617.063839,66.3598213 L617.063839,65.4111462 L610.639954,65.4111462 L610.639954,66.7257388 L615.329119,66.7257388 C613.404664,69.409134 612.767697,71.7401642 612.591514,75.3857869 Z M623.962062,78.0827346 L624.937842,77.6490546 C623.772327,75.711047 623.230227,73.4206743 623.230227,71.1438541 C623.230227,68.8805864 623.772327,66.5902138 624.937842,64.6386536 L623.962062,64.2185261 C622.70168,66.2649537 621.956292,68.4740114 621.956292,71.1438541 C621.956292,73.8408018 622.70168,76.0227545 623.962062,78.0827346 Z M629.193328,75.5619694 C631.022915,75.5619694 632.527243,74.5048744 632.527243,72.7023917 C632.527243,71.3606941 631.619225,70.4933341 630.467263,70.2087315 L630.467263,70.140969 C631.524358,69.7479465 632.188431,68.948349 632.188431,67.7963864 C632.188431,66.1429812 630.928048,65.2214112 629.139118,65.2214112 C627.987155,65.2214112 627.065585,65.7228537 626.27954,66.4275838 L627.09269,67.4033638 C627.661895,66.8477113 628.312415,66.4682413 629.084908,66.4546888 C630.033583,66.4682413 630.61634,67.0238938 630.61634,67.9048064 C630.61634,68.9076914 629.96582,69.653079 628.000708,69.653079 L628.000708,70.8050416 C630.250423,70.8050416 630.955153,71.5233241 630.955153,72.6346292 C630.955153,73.6646193 630.18266,74.2880344 629.057803,74.2880344 C628.027813,74.2880344 627.282425,73.7865918 626.699668,73.1902818 L625.940728,74.1931668 C626.6048,74.9385544 627.621238,75.5619694 629.193328,75.5619694 Z M633.882493,75.3857869 L640.319931,75.3857869 L640.319931,74.0576418 L637.826271,74.0576418 C637.338381,74.0576418 636.714966,74.0982993 636.199971,74.1525093 C638.314161,72.1331867 639.845594,70.140969 639.845594,68.2165139 C639.845594,66.4140313 638.666526,65.2214112 636.836938,65.2214112 C635.535898,65.2214112 634.654986,65.7906162 633.801178,66.7121863 L634.682091,67.5795463 C635.210638,66.9696838 635.861158,66.4682413 636.647203,66.4682413 C637.758508,66.4682413 638.341266,67.2136288 638.341266,68.2978289 C638.341266,69.9376815 636.823386,71.8756892 633.882493,74.4777694 L633.882493,75.3857869 Z M643.030431,75.5619694 C643.613189,75.5619694 644.073974,75.1147369 644.073974,74.4777694 C644.073974,73.8408018 643.613189,73.3664643 643.030431,73.3664643 C642.447674,73.3664643 641.986889,73.8408018 641.986889,74.4777694 C641.986889,75.1147369 642.447674,75.5619694 643.030431,75.5619694 Z M648.695377,70.5068866 C649.305239,70.5068866 649.996417,70.1545215 650.592727,69.2871615 C650.443649,67.3220488 649.698262,66.4275838 648.614062,66.4275838 C647.760254,66.4275838 647.082629,67.2000763 647.082629,68.5011164 C647.082629,69.7750515 647.651834,70.5068866 648.695377,70.5068866 Z M645.795142,74.5048744 L646.635397,73.5426468 C647.028419,73.9898793 647.638282,74.2880344 648.275249,74.2880344 C649.481422,74.2880344 650.524964,73.3122543 650.619832,70.4662291 C650.037074,71.1845116 649.183267,71.6317442 648.424327,71.6317442 C646.757369,71.6317442 645.632512,70.5882016 645.632512,68.5011164 C645.632512,66.5224513 646.987762,65.2214112 648.600509,65.2214112 C650.511412,65.2214112 652.056397,66.7663963 652.056397,70.059654 C652.056397,73.9898793 650.267467,75.5619694 648.343012,75.5619694 C647.191049,75.5619694 646.377899,75.1011844 645.795142,74.5048744 Z M655.5936,71.5368766 C654.197692,71.5368766 653.26257,70.3713616 653.26257,68.3655914 C653.26257,66.3598213 654.197692,65.2214112 655.5936,65.2214112 C656.989507,65.2214112 657.938182,66.3598213 657.938182,68.3655914 C657.938182,70.3713616 656.989507,71.5368766 655.5936,71.5368766 Z M655.5936,70.6153066 C656.29833,70.6153066 656.799772,69.897024 656.799772,68.3655914 C656.799772,66.8206063 656.29833,66.1429812 655.5936,66.1429812 C654.902422,66.1429812 654.40098,66.8206063 654.40098,68.3655914 C654.40098,69.897024 654.902422,70.6153066 655.5936,70.6153066 Z M655.905307,75.5619694 L661.366965,65.2214112 L662.356298,65.2214112 L656.881087,75.5619694 L655.905307,75.5619694 Z M662.681558,75.5619694 C661.28565,75.5619694 660.336975,74.4100069 660.336975,72.4042367 C660.336975,70.3984666 661.28565,69.2600565 662.681558,69.2600565 C664.063913,69.2600565 665.012588,70.3984666 665.012588,72.4042367 C665.012588,74.4100069 664.063913,75.5619694 662.681558,75.5619694 Z M662.681558,74.6539519 C663.372735,74.6539519 663.874178,73.9356693 663.874178,72.4042367 C663.874178,70.8592516 663.372735,70.1816265 662.681558,70.1816265 C661.976828,70.1816265 661.475385,70.8592516 661.475385,72.4042367 C661.475385,73.9356693 661.976828,74.6539519 662.681558,74.6539519 Z M667.099673,78.0827346 C668.373608,76.0227545 669.118996,73.8408018 669.118996,71.1438541 C669.118996,68.4740114 668.373608,66.2649537 667.099673,64.2185261 L666.123893,64.6386536 C667.289408,66.5902138 667.831508,68.8805864 667.831508,71.1438541 C667.831508,73.4206743 667.289408,75.711047 666.123893,77.6490546 L667.099673,78.0827346 Z" id="27-(32.9%)" fill="#000000"></path>
                <text id="Real" font-family="SourceHanSansKR-Medium, Source Han Sans KR" font-size="14" font-weight="400" fill="#00AFDB">
                    <tspan x="362" y="30">Real</tspan>
                </text>
                <text id="Side-Effect" font-family="SourceHanSansKR-Medium, Source Han Sans KR" font-size="14" font-weight="400" fill="#00AFDB">
                    <tspan x="87" y="29">Side Effect</tspan>
                </text>
                <text id="Itching" font-family="SourceHanSansKR-Medium, Source Han Sans KR" font-size="14" font-weight="400" fill="#000000">
                    <tspan x="96" y="75">Itching</tspan>
                </text>
                <text id="Tingling" font-family="SourceHanSansKR-Medium, Source Han Sans KR" font-size="14" font-weight="400" fill="#000000">
                    <tspan x="91" y="121">Tingling</tspan>
                </text>
                <text id="Headache" font-family="SourceHanSansKR-Medium, Source Han Sans KR" font-size="14" font-weight="400" fill="#000000">
                    <tspan x="86" y="167">Headache</tspan>
                </text>
                <text id="Burning" font-family="SourceHanSansKR-Medium, Source Han Sans KR" font-size="14" font-weight="400" fill="#000000">
                    <tspan x="92" y="213">Burning</tspan>
                </text>
                <text id="Discomfort" font-family="SourceHanSansKR-Medium, Source Han Sans KR" font-size="14" font-weight="400" fill="#000000">
                    <tspan x="82" y="259">Discomfort</tspan>
                </text>
                <text id="Total" font-family="SourceHanSansKR-Bold, Source Han Sans KR" font-size="14" font-weight="bold" fill="#000000">
                    <tspan x="102" y="305">Total</tspan>
                </text>
                <text id="Sham" font-family="SourceHanSansKR-Medium, Source Han Sans KR" font-size="14" font-weight="400" fill="#00AFDB">
                    <tspan x="622" y="30">Sham</tspan>
                </text>
                <path d="M603.416471,121.125478 L609.108521,121.125478 L609.108521,119.83799 L607.156961,119.83799 L607.156961,111.150837 L605.977894,111.150837 C605.408689,111.503202 604.744616,111.733595 603.809493,111.909777 L603.809493,112.89911 L605.598424,112.89911 L605.598424,119.83799 L603.416471,119.83799 L603.416471,121.125478 Z M613.607952,121.30166 C615.356224,121.30166 616.968972,120.05483 616.968972,117.845773 C616.968972,115.66382 615.600169,114.674487 613.933212,114.674487 C613.391112,114.674487 612.984537,114.810012 612.564409,115.026852 L612.794802,112.46543 L616.494634,112.46543 L616.494634,111.150837 L611.439551,111.150837 L611.141396,115.88066 L611.900337,116.382103 C612.483094,116.002633 612.862564,115.812897 613.499532,115.812897 C614.637942,115.812897 615.396882,116.571838 615.396882,117.899983 C615.396882,119.228128 614.543074,120.027725 613.418217,120.027725 C612.374674,120.027725 611.656391,119.526283 611.087186,118.957078 L610.341799,119.973515 C611.046529,120.664693 612.035862,121.30166 613.607952,121.30166 Z M623.962062,123.822426 L624.937842,123.388746 C623.772327,121.450738 623.230227,119.160365 623.230227,116.883545 C623.230227,114.620277 623.772327,112.329905 624.937842,110.378345 L623.962062,109.958217 C622.70168,112.004645 621.956292,114.213702 621.956292,116.883545 C621.956292,119.580493 622.70168,121.762445 623.962062,123.822426 Z M626.726773,121.125478 L632.418823,121.125478 L632.418823,119.83799 L630.467263,119.83799 L630.467263,111.150837 L629.288195,111.150837 C628.71899,111.503202 628.054918,111.733595 627.119795,111.909777 L627.119795,112.89911 L628.908725,112.89911 L628.908725,119.83799 L626.726773,119.83799 L626.726773,121.125478 Z M637.162198,121.30166 C635.291953,121.30166 633.909598,120.190355 633.909598,118.64537 C633.909598,117.330778 634.776958,116.449865 635.698528,115.961975 L635.698528,115.894212 C634.953141,115.365665 634.356831,114.620277 634.356831,113.563182 C634.356831,112.004645 635.563003,110.988207 637.202856,110.988207 C638.937576,110.988207 640.021776,112.072407 640.021776,113.630945 C640.021776,114.647382 639.330599,115.514742 638.707184,115.975527 L638.707184,116.04329 C639.601649,116.558285 640.387694,117.330778 640.387694,118.686028 C640.387694,120.16325 639.086654,121.30166 637.162198,121.30166 Z M637.812718,115.582505 C638.409029,115.026852 638.707184,114.389885 638.707184,113.725812 C638.707184,112.804242 638.151531,112.113065 637.175751,112.113065 C636.362601,112.113065 635.752738,112.668717 635.752738,113.563182 C635.752738,114.647382 636.701413,115.148825 637.812718,115.582505 Z M637.189303,120.176803 C638.205741,120.176803 638.910471,119.580493 638.910471,118.64537 C638.910471,117.425645 637.812718,116.96486 636.457468,116.409208 C635.766291,116.883545 635.291953,117.628933 635.291953,118.496293 C635.291953,119.485625 636.118656,120.176803 637.189303,120.176803 Z M643.030431,121.30166 C643.613189,121.30166 644.073974,120.854428 644.073974,120.21746 C644.073974,119.580493 643.613189,119.106155 643.030431,119.106155 C642.447674,119.106155 641.986889,119.580493 641.986889,120.21746 C641.986889,120.854428 642.447674,121.30166 643.030431,121.30166 Z M648.681824,121.30166 C650.511412,121.30166 652.01574,120.244565 652.01574,118.442083 C652.01574,117.100385 651.107722,116.233025 649.955759,115.948422 L649.955759,115.88066 C651.012854,115.487637 651.676927,114.68804 651.676927,113.536077 C651.676927,111.882672 650.416544,110.961102 648.627614,110.961102 C647.475652,110.961102 646.554082,111.462545 645.768037,112.167275 L646.581187,113.143055 C647.150392,112.587402 647.800912,112.207932 648.573404,112.19438 C649.522079,112.207932 650.104837,112.763585 650.104837,113.644497 C650.104837,114.647382 649.454317,115.39277 647.489204,115.39277 L647.489204,116.544733 C649.738919,116.544733 650.443649,117.263015 650.443649,118.37432 C650.443649,119.40431 649.671157,120.027725 648.546299,120.027725 C647.516309,120.027725 646.770922,119.526283 646.188164,118.929973 L645.429224,119.932858 C646.093297,120.678245 647.109734,121.30166 648.681824,121.30166 Z M655.5936,117.276568 C654.197692,117.276568 653.26257,116.111053 653.26257,114.105282 C653.26257,112.099512 654.197692,110.961102 655.5936,110.961102 C656.989507,110.961102 657.938182,112.099512 657.938182,114.105282 C657.938182,116.111053 656.989507,117.276568 655.5936,117.276568 Z M655.5936,116.354998 C656.29833,116.354998 656.799772,115.636715 656.799772,114.105282 C656.799772,112.560297 656.29833,111.882672 655.5936,111.882672 C654.902422,111.882672 654.40098,112.560297 654.40098,114.105282 C654.40098,115.636715 654.902422,116.354998 655.5936,116.354998 Z M655.905307,121.30166 L661.366965,110.961102 L662.356298,110.961102 L656.881087,121.30166 L655.905307,121.30166 Z M662.681558,121.30166 C661.28565,121.30166 660.336975,120.149698 660.336975,118.143928 C660.336975,116.138158 661.28565,114.999747 662.681558,114.999747 C664.063913,114.999747 665.012588,116.138158 665.012588,118.143928 C665.012588,120.149698 664.063913,121.30166 662.681558,121.30166 Z M662.681558,120.393643 C663.372735,120.393643 663.874178,119.67536 663.874178,118.143928 C663.874178,116.598943 663.372735,115.921317 662.681558,115.921317 C661.976828,115.921317 661.475385,116.598943 661.475385,118.143928 C661.475385,119.67536 661.976828,120.393643 662.681558,120.393643 Z M667.099673,123.822426 C668.373608,121.762445 669.118996,119.580493 669.118996,116.883545 C669.118996,114.213702 668.373608,112.004645 667.099673,109.958217 L666.123893,110.378345 C667.289408,112.329905 667.831508,114.620277 667.831508,116.883545 C667.831508,119.160365 667.289408,121.450738 666.123893,123.388746 L667.099673,123.822426 Z" id="15-(18.3%)" fill="#000000"></path>
                <path d="M342.733195,121.125478 L349.170633,121.125478 L349.170633,119.797333 L346.676973,119.797333 C346.189083,119.797333 345.565668,119.83799 345.050673,119.8922 C347.164863,117.872878 348.696295,115.88066 348.696295,113.956205 C348.696295,112.153722 347.517228,110.961102 345.68764,110.961102 C344.3866,110.961102 343.505688,111.530307 342.65188,112.451877 L343.532793,113.319237 C344.06134,112.709375 344.71186,112.207932 345.497905,112.207932 C346.60921,112.207932 347.191968,112.95332 347.191968,114.03752 C347.191968,115.677372 345.674088,117.61538 342.733195,120.21746 L342.733195,121.125478 Z M354.008876,120.10904 C354.876236,120.10904 355.553861,119.322995 355.553861,118.035508 C355.553861,116.74802 354.984656,116.029738 353.914008,116.029738 C353.331251,116.029738 352.653626,116.341445 352.057316,117.195253 C352.219946,119.173918 352.938228,120.10904 354.008876,120.10904 Z M356.841349,112.03175 L355.987541,112.980425 C355.621623,112.546745 355.011761,112.235037 354.429003,112.235037 C353.155068,112.235037 352.097973,113.197265 352.030211,116.04329 C352.612968,115.325007 353.480328,114.891327 354.198611,114.891327 C355.879121,114.891327 357.003979,115.921317 357.003979,118.035508 C357.003979,120.014173 355.648728,121.30166 354.022428,121.30166 C352.125078,121.30166 350.580093,119.716018 350.580093,116.327893 C350.580093,112.492535 352.382576,110.961102 354.347688,110.961102 C355.458993,110.961102 356.272144,111.43544 356.841349,112.03175 Z M363.847992,123.822426 L364.823772,123.388746 C363.658257,121.450738 363.116157,119.160365 363.116157,116.883545 C363.116157,114.620277 363.658257,112.329905 364.823772,110.378345 L363.847992,109.958217 C362.587609,112.004645 361.842221,114.213702 361.842221,116.883545 C361.842221,119.580493 362.587609,121.762445 363.847992,123.822426 Z M366.043497,121.125478 L372.480935,121.125478 L372.480935,119.797333 L369.987275,119.797333 C369.499385,119.797333 368.875969,119.83799 368.360974,119.8922 C370.475165,117.872878 372.006597,115.88066 372.006597,113.956205 C372.006597,112.153722 370.82753,110.961102 368.997942,110.961102 C367.696902,110.961102 366.815989,111.530307 365.962182,112.451877 L366.843094,113.319237 C367.371642,112.709375 368.022162,112.207932 368.808207,112.207932 C369.919512,112.207932 370.50227,112.95332 370.50227,114.03752 C370.50227,115.677372 368.984389,117.61538 366.043497,120.21746 L366.043497,121.125478 Z M373.768422,121.125478 L380.20586,121.125478 L380.20586,119.797333 L377.7122,119.797333 C377.22431,119.797333 376.600895,119.83799 376.0859,119.8922 C378.20009,117.872878 379.731523,115.88066 379.731523,113.956205 C379.731523,112.153722 378.552455,110.961102 376.722868,110.961102 C375.421827,110.961102 374.540915,111.530307 373.687107,112.451877 L374.56802,113.319237 C375.096567,112.709375 375.747088,112.207932 376.533133,112.207932 C377.644438,112.207932 378.227195,112.95332 378.227195,114.03752 C378.227195,115.677372 376.709315,117.61538 373.768422,120.21746 L373.768422,121.125478 Z M382.916361,121.30166 C383.499118,121.30166 383.959903,120.854428 383.959903,120.21746 C383.959903,119.580493 383.499118,119.106155 382.916361,119.106155 C382.333603,119.106155 381.872818,119.580493 381.872818,120.21746 C381.872818,120.854428 382.333603,121.30166 382.916361,121.30166 Z M385.531993,121.125478 L391.969431,121.125478 L391.969431,119.797333 L389.475771,119.797333 C388.987881,119.797333 388.364466,119.83799 387.849471,119.8922 C389.963661,117.872878 391.495094,115.88066 391.495094,113.956205 C391.495094,112.153722 390.316026,110.961102 388.486438,110.961102 C387.185398,110.961102 386.304486,111.530307 385.450678,112.451877 L386.331591,113.319237 C386.860138,112.709375 387.510658,112.207932 388.296703,112.207932 C389.408009,112.207932 389.990766,112.95332 389.990766,114.03752 C389.990766,115.677372 388.472886,117.61538 385.531993,120.21746 L385.531993,121.125478 Z M395.479529,117.276568 C394.083621,117.276568 393.148499,116.111053 393.148499,114.105282 C393.148499,112.099512 394.083621,110.961102 395.479529,110.961102 C396.875437,110.961102 397.824112,112.099512 397.824112,114.105282 C397.824112,116.111053 396.875437,117.276568 395.479529,117.276568 Z M395.479529,116.354998 C396.184259,116.354998 396.685702,115.636715 396.685702,114.105282 C396.685702,112.560297 396.184259,111.882672 395.479529,111.882672 C394.788351,111.882672 394.286909,112.560297 394.286909,114.105282 C394.286909,115.636715 394.788351,116.354998 395.479529,116.354998 Z M395.791237,121.30166 L401.252894,110.961102 L402.242227,110.961102 L396.767017,121.30166 L395.791237,121.30166 Z M402.567487,121.30166 C401.171579,121.30166 400.222904,120.149698 400.222904,118.143928 C400.222904,116.138158 401.171579,114.999747 402.567487,114.999747 C403.949842,114.999747 404.898517,116.138158 404.898517,118.143928 C404.898517,120.149698 403.949842,121.30166 402.567487,121.30166 Z M402.567487,120.393643 C403.258665,120.393643 403.760107,119.67536 403.760107,118.143928 C403.760107,116.598943 403.258665,115.921317 402.567487,115.921317 C401.862757,115.921317 401.361314,116.598943 401.361314,118.143928 C401.361314,119.67536 401.862757,120.393643 402.567487,120.393643 Z M406.985602,123.822426 C408.259537,121.762445 409.004925,119.580493 409.004925,116.883545 C409.004925,114.213702 408.259537,112.004645 406.985602,109.958217 L406.009822,110.378345 C407.175337,112.329905 407.717437,114.620277 407.717437,116.883545 C407.717437,119.160365 407.175337,121.450738 406.009822,123.388746 L406.985602,123.822426 Z" id="26-(22.2%)" fill="#000000"></path>
                <path d="M343.3024,166.865169 L348.99445,166.865169 L348.99445,165.577681 L347.04289,165.577681 L347.04289,156.890528 L345.863823,156.890528 C345.294618,157.242893 344.630545,157.473286 343.695423,157.649468 L343.695423,158.638801 L345.484353,158.638801 L345.484353,165.577681 L343.3024,165.577681 L343.3024,166.865169 Z M352.477443,166.865169 L354.076638,166.865169 C354.239268,162.962049 354.605186,160.766543 356.949769,157.839203 L356.949769,156.890528 L350.525883,156.890528 L350.525883,158.205121 L355.215048,158.205121 C353.290593,160.888516 352.653626,163.219546 352.477443,166.865169 Z M363.847992,169.562117 L364.823772,169.128437 C363.658257,167.190429 363.116157,164.900056 363.116157,162.623236 C363.116157,160.359968 363.658257,158.069596 364.823772,156.118036 L363.847992,155.697908 C362.587609,157.744336 361.842221,159.953393 361.842221,162.623236 C361.842221,165.320184 362.587609,167.502136 363.847992,169.562117 Z M366.612702,166.865169 L372.304752,166.865169 L372.304752,165.577681 L370.353192,165.577681 L370.353192,156.890528 L369.174125,156.890528 C368.604919,157.242893 367.940847,157.473286 367.005724,157.649468 L367.005724,158.638801 L368.794654,158.638801 L368.794654,165.577681 L366.612702,165.577681 L366.612702,166.865169 Z M375.015252,162.975601 L377.752858,162.975601 L377.752858,160.359968 C377.752858,159.817868 377.807068,158.977613 377.834173,158.435513 L377.779963,158.435513 C377.536018,158.936956 377.264968,159.451951 376.980365,159.966946 L375.015252,162.975601 Z M380.490463,162.975601 L380.490463,164.181774 L379.216528,164.181774 L379.216528,166.865169 L377.752858,166.865169 L377.752858,164.181774 L373.443162,164.181774 L373.443162,163.138231 L377.414045,156.890528 L379.216528,156.890528 L379.216528,162.975601 L380.490463,162.975601 Z M382.916361,167.041351 C383.499118,167.041351 383.959903,166.594119 383.959903,165.957151 C383.959903,165.320184 383.499118,164.845846 382.916361,164.845846 C382.333603,164.845846 381.872818,165.320184 381.872818,165.957151 C381.872818,166.594119 382.333603,167.041351 382.916361,167.041351 Z M388.811698,167.041351 C386.941453,167.041351 385.559098,165.930046 385.559098,164.385061 C385.559098,163.070469 386.426458,162.189556 387.348028,161.701666 L387.348028,161.633903 C386.602641,161.105356 386.006331,160.359968 386.006331,159.302873 C386.006331,157.744336 387.212503,156.727898 388.852356,156.727898 C390.587076,156.727898 391.671276,157.812098 391.671276,159.370636 C391.671276,160.387073 390.980099,161.254433 390.356684,161.715218 L390.356684,161.782981 C391.251149,162.297976 392.037194,163.070469 392.037194,164.425719 C392.037194,165.902941 390.736154,167.041351 388.811698,167.041351 Z M389.462219,161.322196 C390.058529,160.766543 390.356684,160.129576 390.356684,159.465503 C390.356684,158.543933 389.801031,157.852756 388.825251,157.852756 C388.012101,157.852756 387.402238,158.408408 387.402238,159.302873 C387.402238,160.387073 388.350913,160.888516 389.462219,161.322196 Z M388.838803,165.916494 C389.855241,165.916494 390.559971,165.320184 390.559971,164.385061 C390.559971,163.165336 389.462219,162.704551 388.106968,162.148898 C387.415791,162.623236 386.941453,163.368624 386.941453,164.235984 C386.941453,165.225316 387.768156,165.916494 388.838803,165.916494 Z M395.479529,163.016259 C394.083621,163.016259 393.148499,161.850743 393.148499,159.844973 C393.148499,157.839203 394.083621,156.700793 395.479529,156.700793 C396.875437,156.700793 397.824112,157.839203 397.824112,159.844973 C397.824112,161.850743 396.875437,163.016259 395.479529,163.016259 Z M395.479529,162.094688 C396.184259,162.094688 396.685702,161.376406 396.685702,159.844973 C396.685702,158.299988 396.184259,157.622363 395.479529,157.622363 C394.788351,157.622363 394.286909,158.299988 394.286909,159.844973 C394.286909,161.376406 394.788351,162.094688 395.479529,162.094688 Z M395.791237,167.041351 L401.252894,156.700793 L402.242227,156.700793 L396.767017,167.041351 L395.791237,167.041351 Z M402.567487,167.041351 C401.171579,167.041351 400.222904,165.889389 400.222904,163.883619 C400.222904,161.877848 401.171579,160.739438 402.567487,160.739438 C403.949842,160.739438 404.898517,161.877848 404.898517,163.883619 C404.898517,165.889389 403.949842,167.041351 402.567487,167.041351 Z M402.567487,166.133334 C403.258665,166.133334 403.760107,165.415051 403.760107,163.883619 C403.760107,162.338633 403.258665,161.661008 402.567487,161.661008 C401.862757,161.661008 401.361314,162.338633 401.361314,163.883619 C401.361314,165.415051 401.862757,166.133334 402.567487,166.133334 Z M406.985602,169.562117 C408.259537,167.502136 409.004925,165.320184 409.004925,162.623236 C409.004925,159.953393 408.259537,157.744336 406.985602,155.697908 L406.009822,156.118036 C407.175337,158.069596 407.717437,160.359968 407.717437,162.623236 C407.717437,164.900056 407.175337,167.190429 406.009822,169.128437 L406.985602,169.562117 Z" id="17-(14.8%)" fill="#000000"></path>
                <path d="M603.416471,166.865169 L609.108521,166.865169 L609.108521,165.577681 L607.156961,165.577681 L607.156961,156.890528 L605.977894,156.890528 C605.408689,157.242893 604.744616,157.473286 603.809493,157.649468 L603.809493,158.638801 L605.598424,158.638801 L605.598424,165.577681 L603.416471,165.577681 L603.416471,166.865169 Z M613.607952,167.041351 C615.437539,167.041351 616.941867,165.984256 616.941867,164.181774 C616.941867,162.840076 616.033849,161.972716 614.881887,161.688113 L614.881887,161.620351 C615.938982,161.227328 616.603054,160.427731 616.603054,159.275768 C616.603054,157.622363 615.342672,156.700793 613.553742,156.700793 C612.401779,156.700793 611.480209,157.202236 610.694164,157.906966 L611.507314,158.882746 C612.076519,158.327093 612.727039,157.947623 613.499532,157.934071 C614.448207,157.947623 615.030964,158.503276 615.030964,159.384188 C615.030964,160.387073 614.380444,161.132461 612.415332,161.132461 L612.415332,162.284423 C614.665047,162.284423 615.369777,163.002706 615.369777,164.114011 C615.369777,165.144001 614.597284,165.767416 613.472427,165.767416 C612.442437,165.767416 611.697049,165.265974 611.114291,164.669664 L610.355351,165.672549 C611.019424,166.417936 612.035862,167.041351 613.607952,167.041351 Z M623.962062,169.562117 L624.937842,169.128437 C623.772327,167.190429 623.230227,164.900056 623.230227,162.623236 C623.230227,160.359968 623.772327,158.069596 624.937842,156.118036 L623.962062,155.697908 C622.70168,157.744336 621.956292,159.953393 621.956292,162.623236 C621.956292,165.320184 622.70168,167.502136 623.962062,169.562117 Z M626.726773,166.865169 L632.418823,166.865169 L632.418823,165.577681 L630.467263,165.577681 L630.467263,156.890528 L629.288195,156.890528 C628.71899,157.242893 628.054918,157.473286 627.119795,157.649468 L627.119795,158.638801 L628.908725,158.638801 L628.908725,165.577681 L626.726773,165.577681 L626.726773,166.865169 Z M637.433248,165.848731 C638.300608,165.848731 638.978234,165.062686 638.978234,163.775199 C638.978234,162.487711 638.409029,161.769428 637.338381,161.769428 C636.755623,161.769428 636.077998,162.081136 635.481688,162.934944 C635.644318,164.913609 636.362601,165.848731 637.433248,165.848731 Z M640.265721,157.771441 L639.411914,158.720116 C639.045996,158.286436 638.436134,157.974728 637.853376,157.974728 C636.579441,157.974728 635.522346,158.936956 635.454583,161.782981 C636.037341,161.064698 636.904701,160.631018 637.622983,160.631018 C639.303494,160.631018 640.428351,161.661008 640.428351,163.775199 C640.428351,165.753864 639.073101,167.041351 637.446801,167.041351 C635.549451,167.041351 634.004466,165.455709 634.004466,162.067583 C634.004466,158.232226 635.806948,156.700793 637.772061,156.700793 C638.883366,156.700793 639.696516,157.175131 640.265721,157.771441 Z M643.030431,167.041351 C643.613189,167.041351 644.073974,166.594119 644.073974,165.957151 C644.073974,165.320184 643.613189,164.845846 643.030431,164.845846 C642.447674,164.845846 641.986889,165.320184 641.986889,165.957151 C641.986889,166.594119 642.447674,167.041351 643.030431,167.041351 Z M645.646064,166.865169 L652.083502,166.865169 L652.083502,165.537024 L649.589842,165.537024 C649.101952,165.537024 648.478537,165.577681 647.963542,165.631891 C650.077732,163.612569 651.609164,161.620351 651.609164,159.695896 C651.609164,157.893413 650.430097,156.700793 648.600509,156.700793 C647.299469,156.700793 646.418557,157.269998 645.564749,158.191568 L646.445662,159.058928 C646.974209,158.449066 647.624729,157.947623 648.410774,157.947623 C649.522079,157.947623 650.104837,158.693011 650.104837,159.777211 C650.104837,161.417063 648.586957,163.355071 645.646064,165.957151 L645.646064,166.865169 Z M655.5936,163.016259 C654.197692,163.016259 653.26257,161.850743 653.26257,159.844973 C653.26257,157.839203 654.197692,156.700793 655.5936,156.700793 C656.989507,156.700793 657.938182,157.839203 657.938182,159.844973 C657.938182,161.850743 656.989507,163.016259 655.5936,163.016259 Z M655.5936,162.094688 C656.29833,162.094688 656.799772,161.376406 656.799772,159.844973 C656.799772,158.299988 656.29833,157.622363 655.5936,157.622363 C654.902422,157.622363 654.40098,158.299988 654.40098,159.844973 C654.40098,161.376406 654.902422,162.094688 655.5936,162.094688 Z M655.905307,167.041351 L661.366965,156.700793 L662.356298,156.700793 L656.881087,167.041351 L655.905307,167.041351 Z M662.681558,167.041351 C661.28565,167.041351 660.336975,165.889389 660.336975,163.883619 C660.336975,161.877848 661.28565,160.739438 662.681558,160.739438 C664.063913,160.739438 665.012588,161.877848 665.012588,163.883619 C665.012588,165.889389 664.063913,167.041351 662.681558,167.041351 Z M662.681558,166.133334 C663.372735,166.133334 663.874178,165.415051 663.874178,163.883619 C663.874178,162.338633 663.372735,161.661008 662.681558,161.661008 C661.976828,161.661008 661.475385,162.338633 661.475385,163.883619 C661.475385,165.415051 661.976828,166.133334 662.681558,166.133334 Z M667.099673,169.562117 C668.373608,167.502136 669.118996,165.320184 669.118996,162.623236 C669.118996,159.953393 668.373608,157.744336 667.099673,155.697908 L666.123893,156.118036 C667.289408,158.069596 667.831508,160.359968 667.831508,162.623236 C667.831508,164.900056 667.289408,167.190429 666.123893,169.128437 L667.099673,169.562117 Z" id="13-(16.2%)" fill="#000000"></path>
                <path d="M347.537557,212.60486 L353.229607,212.60486 L353.229607,211.317372 L351.278047,211.317372 L351.278047,202.630219 L350.098979,202.630219 C349.529774,202.982584 348.865702,203.212977 347.930579,203.389159 L347.930579,204.378492 L349.719509,204.378492 L349.719509,211.317372 L347.537557,211.317372 L347.537557,212.60486 Z M357.95943,212.781042 C355.994317,212.781042 354.733935,211.046322 354.733935,207.576882 C354.733935,204.120994 355.994317,202.440484 357.95943,202.440484 C359.91099,202.440484 361.184925,204.134547 361.184925,207.576882 C361.184925,211.046322 359.91099,212.781042 357.95943,212.781042 Z M357.95943,211.547765 C358.975867,211.547765 359.69415,210.463565 359.69415,207.576882 C359.69415,204.717304 358.975867,203.673762 357.95943,203.673762 C356.942992,203.673762 356.22471,204.717304 356.22471,207.576882 C356.22471,210.463565 356.942992,211.547765 357.95943,211.547765 Z M368.083148,215.301807 L369.058928,214.868127 C367.893413,212.93012 367.351313,210.639747 367.351313,208.362927 C367.351313,206.099659 367.893413,203.809287 369.058928,201.857726 L368.083148,201.437599 C366.822766,203.484027 366.077378,205.693084 366.077378,208.362927 C366.077378,211.059875 366.822766,213.241827 368.083148,215.301807 Z M373.558359,212.781042 C371.688113,212.781042 370.305758,211.669737 370.305758,210.124752 C370.305758,208.81016 371.173118,207.929247 372.094688,207.441357 L372.094688,207.373594 C371.349301,206.845047 370.752991,206.099659 370.752991,205.042564 C370.752991,203.484027 371.959163,202.467589 373.599016,202.467589 C375.333736,202.467589 376.417936,203.551789 376.417936,205.110327 C376.417936,206.126764 375.726759,206.994124 375.103344,207.454909 L375.103344,207.522672 C375.997809,208.037667 376.783854,208.81016 376.783854,210.16541 C376.783854,211.642632 375.482814,212.781042 373.558359,212.781042 Z M374.208879,207.061887 C374.805189,206.506234 375.103344,205.869267 375.103344,205.205194 C375.103344,204.283624 374.547691,203.592447 373.571911,203.592447 C372.758761,203.592447 372.148898,204.148099 372.148898,205.042564 C372.148898,206.126764 373.097574,206.628207 374.208879,207.061887 Z M373.585464,211.656185 C374.601901,211.656185 375.306631,211.059875 375.306631,210.124752 C375.306631,208.905027 374.208879,208.444242 372.853629,207.888589 C372.162451,208.362927 371.688113,209.108315 371.688113,209.975675 C371.688113,210.965007 372.514816,211.656185 373.585464,211.656185 Z M379.426592,212.781042 C380.009349,212.781042 380.470134,212.33381 380.470134,211.696842 C380.470134,211.059875 380.009349,210.585537 379.426592,210.585537 C378.843834,210.585537 378.383049,211.059875 378.383049,211.696842 C378.383049,212.33381 378.843834,212.781042 379.426592,212.781042 Z M384.061547,212.60486 L385.660742,212.60486 C385.823372,208.701739 386.18929,206.506234 388.533872,203.578894 L388.533872,202.630219 L382.109987,202.630219 L382.109987,203.944812 L386.799152,203.944812 C384.874697,206.628207 384.237729,208.959237 384.061547,212.60486 Z M391.98976,208.755949 C390.593852,208.755949 389.65873,207.590434 389.65873,205.584664 C389.65873,203.578894 390.593852,202.440484 391.98976,202.440484 C393.385668,202.440484 394.334343,203.578894 394.334343,205.584664 C394.334343,207.590434 393.385668,208.755949 391.98976,208.755949 Z M391.98976,207.834379 C392.69449,207.834379 393.195933,207.116097 393.195933,205.584664 C393.195933,204.039679 392.69449,203.362054 391.98976,203.362054 C391.298582,203.362054 390.79714,204.039679 390.79714,205.584664 C390.79714,207.116097 391.298582,207.834379 391.98976,207.834379 Z M392.301468,212.781042 L397.763125,202.440484 L398.752458,202.440484 L393.277248,212.781042 L392.301468,212.781042 Z M399.077718,212.781042 C397.68181,212.781042 396.733135,211.62908 396.733135,209.62331 C396.733135,207.617539 397.68181,206.479129 399.077718,206.479129 C400.460073,206.479129 401.408748,207.617539 401.408748,209.62331 C401.408748,211.62908 400.460073,212.781042 399.077718,212.781042 Z M399.077718,211.873025 C399.768896,211.873025 400.270338,211.154742 400.270338,209.62331 C400.270338,208.078324 399.768896,207.400699 399.077718,207.400699 C398.372988,207.400699 397.871545,208.078324 397.871545,209.62331 C397.871545,211.154742 398.372988,211.873025 399.077718,211.873025 Z M403.495833,215.301807 C404.769768,213.241827 405.515156,211.059875 405.515156,208.362927 C405.515156,205.693084 404.769768,203.484027 403.495833,201.437599 L402.520053,201.857726 C403.685568,203.809287 404.227668,206.099659 404.227668,208.362927 C404.227668,210.639747 403.685568,212.93012 402.520053,214.868127 L403.495833,215.301807 Z" id="10-(8.7%)" fill="#000000"></path>
                <path d="M616.291347,212.781042 C614.421102,212.781042 613.038747,211.669737 613.038747,210.124752 C613.038747,208.81016 613.906107,207.929247 614.827677,207.441357 L614.827677,207.373594 C614.082289,206.845047 613.485979,206.099659 613.485979,205.042564 C613.485979,203.484027 614.692152,202.467589 616.332004,202.467589 C618.066724,202.467589 619.150925,203.551789 619.150925,205.110327 C619.150925,206.126764 618.459747,206.994124 617.836332,207.454909 L617.836332,207.522672 C618.730797,208.037667 619.516842,208.81016 619.516842,210.16541 C619.516842,211.642632 618.215802,212.781042 616.291347,212.781042 Z M616.941867,207.061887 C617.538177,206.506234 617.836332,205.869267 617.836332,205.205194 C617.836332,204.283624 617.280679,203.592447 616.304899,203.592447 C615.491749,203.592447 614.881887,204.148099 614.881887,205.042564 C614.881887,206.126764 615.830562,206.628207 616.941867,207.061887 Z M616.318452,211.656185 C617.334889,211.656185 618.039619,211.059875 618.039619,210.124752 C618.039619,208.905027 616.941867,208.444242 615.586617,207.888589 C614.895439,208.362927 614.421102,209.108315 614.421102,209.975675 C614.421102,210.965007 615.247804,211.656185 616.318452,211.656185 Z M626.401513,215.301807 L627.377293,214.868127 C626.211778,212.93012 625.669678,210.639747 625.669678,208.362927 C625.669678,206.099659 626.211778,203.809287 627.377293,201.857726 L626.401513,201.437599 C625.14113,203.484027 624.395742,205.693084 624.395742,208.362927 C624.395742,211.059875 625.14113,213.241827 626.401513,215.301807 Z M629.166223,212.60486 L634.858273,212.60486 L634.858273,211.317372 L632.906713,211.317372 L632.906713,202.630219 L631.727645,202.630219 C631.15844,202.982584 630.494368,203.212977 629.559245,203.389159 L629.559245,204.378492 L631.348175,204.378492 L631.348175,211.317372 L629.166223,211.317372 L629.166223,212.60486 Z M639.588096,212.781042 C637.622983,212.781042 636.362601,211.046322 636.362601,207.576882 C636.362601,204.120994 637.622983,202.440484 639.588096,202.440484 C641.539656,202.440484 642.813591,204.134547 642.813591,207.576882 C642.813591,211.046322 641.539656,212.781042 639.588096,212.781042 Z M639.588096,211.547765 C640.604534,211.547765 641.322816,210.463565 641.322816,207.576882 C641.322816,204.717304 640.604534,203.673762 639.588096,203.673762 C638.571659,203.673762 637.853376,204.717304 637.853376,207.576882 C637.853376,210.463565 638.571659,211.547765 639.588096,211.547765 Z M646.269479,208.755949 C644.873571,208.755949 643.938449,207.590434 643.938449,205.584664 C643.938449,203.578894 644.873571,202.440484 646.269479,202.440484 C647.665387,202.440484 648.614062,203.578894 648.614062,205.584664 C648.614062,207.590434 647.665387,208.755949 646.269479,208.755949 Z M646.269479,207.834379 C646.974209,207.834379 647.475652,207.116097 647.475652,205.584664 C647.475652,204.039679 646.974209,203.362054 646.269479,203.362054 C645.578302,203.362054 645.076859,204.039679 645.076859,205.584664 C645.076859,207.116097 645.578302,207.834379 646.269479,207.834379 Z M646.581187,212.781042 L652.042845,202.440484 L653.032177,202.440484 L647.556967,212.781042 L646.581187,212.781042 Z M653.357437,212.781042 C651.96153,212.781042 651.012854,211.62908 651.012854,209.62331 C651.012854,207.617539 651.96153,206.479129 653.357437,206.479129 C654.739792,206.479129 655.688467,207.617539 655.688467,209.62331 C655.688467,211.62908 654.739792,212.781042 653.357437,212.781042 Z M653.357437,211.873025 C654.048615,211.873025 654.550057,211.154742 654.550057,209.62331 C654.550057,208.078324 654.048615,207.400699 653.357437,207.400699 C652.652707,207.400699 652.151265,208.078324 652.151265,209.62331 C652.151265,211.154742 652.652707,211.873025 653.357437,211.873025 Z M657.775552,215.301807 C659.049488,213.241827 659.794875,211.059875 659.794875,208.362927 C659.794875,205.693084 659.049488,203.484027 657.775552,201.437599 L656.799772,201.857726 C657.965287,203.809287 658.507388,206.099659 658.507388,208.362927 C658.507388,210.639747 657.965287,212.93012 656.799772,214.868127 L657.775552,215.301807 Z" id="8-(10%)" fill="#000000"></path>
                <path d="M343.3024,258.344551 L348.99445,258.344551 L348.99445,257.057063 L347.04289,257.057063 L347.04289,248.36991 L345.863823,248.36991 C345.294618,248.722275 344.630545,248.952668 343.695423,249.12885 L343.695423,250.118183 L345.484353,250.118183 L345.484353,257.057063 L343.3024,257.057063 L343.3024,258.344551 Z M350.458121,258.344551 L356.895559,258.344551 L356.895559,257.016406 L354.401898,257.016406 C353.914008,257.016406 353.290593,257.057063 352.775598,257.111273 C354.889788,255.09195 356.421221,253.099733 356.421221,251.175278 C356.421221,249.372795 355.242153,248.180175 353.412566,248.180175 C352.111526,248.180175 351.230613,248.74938 350.376806,249.67095 L351.257718,250.53831 C351.786266,249.928448 352.436786,249.427005 353.222831,249.427005 C354.334136,249.427005 354.916893,250.172393 354.916893,251.256593 C354.916893,252.896445 353.399013,254.834453 350.458121,257.436533 L350.458121,258.344551 Z M363.847992,261.041498 L364.823772,260.607818 C363.658257,258.669811 363.116157,256.379438 363.116157,254.102618 C363.116157,251.83935 363.658257,249.548978 364.823772,247.597417 L363.847992,247.17729 C362.587609,249.223718 361.842221,251.432775 361.842221,254.102618 C361.842221,256.799566 362.587609,258.981518 363.847992,261.041498 Z M366.612702,258.344551 L372.304752,258.344551 L372.304752,257.057063 L370.353192,257.057063 L370.353192,248.36991 L369.174125,248.36991 C368.604919,248.722275 367.940847,248.952668 367.005724,249.12885 L367.005724,250.118183 L368.794654,250.118183 L368.794654,257.057063 L366.612702,257.057063 L366.612702,258.344551 Z M377.034575,258.520733 C375.069462,258.520733 373.80908,256.786013 373.80908,253.316573 C373.80908,249.860685 375.069462,248.180175 377.034575,248.180175 C378.986135,248.180175 380.26007,249.874238 380.26007,253.316573 C380.26007,256.786013 378.986135,258.520733 377.034575,258.520733 Z M377.034575,257.287456 C378.051013,257.287456 378.769295,256.203256 378.769295,253.316573 C378.769295,250.456995 378.051013,249.413453 377.034575,249.413453 C376.018138,249.413453 375.299855,250.456995 375.299855,253.316573 C375.299855,256.203256 376.018138,257.287456 377.034575,257.287456 Z M382.916361,258.520733 C383.499118,258.520733 383.959903,258.073501 383.959903,257.436533 C383.959903,256.799566 383.499118,256.325228 382.916361,256.325228 C382.333603,256.325228 381.872818,256.799566 381.872818,257.436533 C381.872818,258.073501 382.333603,258.520733 382.916361,258.520733 Z M386.778823,254.454983 L389.516429,254.454983 L389.516429,251.83935 C389.516429,251.29725 389.570639,250.456995 389.597744,249.914895 L389.543534,249.914895 C389.299589,250.416338 389.028539,250.931333 388.743936,251.446328 L386.778823,254.454983 Z M392.254034,254.454983 L392.254034,255.661156 L390.980099,255.661156 L390.980099,258.344551 L389.516429,258.344551 L389.516429,255.661156 L385.206733,255.661156 L385.206733,254.617613 L389.177616,248.36991 L390.980099,248.36991 L390.980099,254.454983 L392.254034,254.454983 Z M395.479529,254.49564 C394.083621,254.49564 393.148499,253.330125 393.148499,251.324355 C393.148499,249.318585 394.083621,248.180175 395.479529,248.180175 C396.875437,248.180175 397.824112,249.318585 397.824112,251.324355 C397.824112,253.330125 396.875437,254.49564 395.479529,254.49564 Z M395.479529,253.57407 C396.184259,253.57407 396.685702,252.855788 396.685702,251.324355 C396.685702,249.77937 396.184259,249.101745 395.479529,249.101745 C394.788351,249.101745 394.286909,249.77937 394.286909,251.324355 C394.286909,252.855788 394.788351,253.57407 395.479529,253.57407 Z M395.791237,258.520733 L401.252894,248.180175 L402.242227,248.180175 L396.767017,258.520733 L395.791237,258.520733 Z M402.567487,258.520733 C401.171579,258.520733 400.222904,257.368771 400.222904,255.363001 C400.222904,253.35723 401.171579,252.21882 402.567487,252.21882 C403.949842,252.21882 404.898517,253.35723 404.898517,255.363001 C404.898517,257.368771 403.949842,258.520733 402.567487,258.520733 Z M402.567487,257.612716 C403.258665,257.612716 403.760107,256.894433 403.760107,255.363001 C403.760107,253.818015 403.258665,253.14039 402.567487,253.14039 C401.862757,253.14039 401.361314,253.818015 401.361314,255.363001 C401.361314,256.894433 401.862757,257.612716 402.567487,257.612716 Z M406.985602,261.041498 C408.259537,258.981518 409.004925,256.799566 409.004925,254.102618 C409.004925,251.432775 408.259537,249.223718 406.985602,247.17729 L406.009822,247.597417 C407.175337,249.548978 407.717437,251.83935 407.717437,254.102618 C407.717437,256.379438 407.175337,258.669811 406.009822,260.607818 L406.985602,261.041498 Z" id="12-(10.4%)" fill="#000000"></path>
                <path d="M603.416471,258.344551 L609.108521,258.344551 L609.108521,257.057063 L607.156961,257.057063 L607.156961,248.36991 L605.977894,248.36991 C605.408689,248.722275 604.744616,248.952668 603.809493,249.12885 L603.809493,250.118183 L605.598424,250.118183 L605.598424,257.057063 L603.416471,257.057063 L603.416471,258.344551 Z M611.141396,258.344551 L616.833447,258.344551 L616.833447,257.057063 L614.881887,257.057063 L614.881887,248.36991 L613.702819,248.36991 C613.133614,248.722275 612.469542,248.952668 611.534419,249.12885 L611.534419,250.118183 L613.323349,250.118183 L613.323349,257.057063 L611.141396,257.057063 L611.141396,258.344551 Z M623.962062,261.041498 L624.937842,260.607818 C623.772327,258.669811 623.230227,256.379438 623.230227,254.102618 C623.230227,251.83935 623.772327,249.548978 624.937842,247.597417 L623.962062,247.17729 C622.70168,249.223718 621.956292,251.432775 621.956292,254.102618 C621.956292,256.799566 622.70168,258.981518 623.962062,261.041498 Z M626.726773,258.344551 L632.418823,258.344551 L632.418823,257.057063 L630.467263,257.057063 L630.467263,248.36991 L629.288195,248.36991 C628.71899,248.722275 628.054918,248.952668 627.119795,249.12885 L627.119795,250.118183 L628.908725,250.118183 L628.908725,257.057063 L626.726773,257.057063 L626.726773,258.344551 Z M636.918253,258.520733 C638.747841,258.520733 640.252169,257.463638 640.252169,255.661156 C640.252169,254.319458 639.344151,253.452098 638.192188,253.167495 L638.192188,253.099733 C639.249284,252.70671 639.913356,251.907113 639.913356,250.75515 C639.913356,249.101745 638.652974,248.180175 636.864043,248.180175 C635.712081,248.180175 634.790511,248.681618 634.004466,249.386348 L634.817616,250.362128 C635.386821,249.806475 636.037341,249.427005 636.809833,249.413453 C637.758508,249.427005 638.341266,249.982658 638.341266,250.86357 C638.341266,251.866455 637.690746,252.611843 635.725633,252.611843 L635.725633,253.763805 C637.975348,253.763805 638.680079,254.482088 638.680079,255.593393 C638.680079,256.623383 637.907586,257.246798 636.782728,257.246798 C635.752738,257.246798 635.007351,256.745356 634.424593,256.149046 L633.665653,257.151931 C634.329726,257.897318 635.346163,258.520733 636.918253,258.520733 Z M643.030431,258.520733 C643.613189,258.520733 644.073974,258.073501 644.073974,257.436533 C644.073974,256.799566 643.613189,256.325228 643.030431,256.325228 C642.447674,256.325228 641.986889,256.799566 641.986889,257.436533 C641.986889,258.073501 642.447674,258.520733 643.030431,258.520733 Z M646.892894,254.454983 L649.630499,254.454983 L649.630499,251.83935 C649.630499,251.29725 649.684709,250.456995 649.711814,249.914895 L649.657604,249.914895 C649.413659,250.416338 649.142609,250.931333 648.858007,251.446328 L646.892894,254.454983 Z M652.368105,254.454983 L652.368105,255.661156 L651.094169,255.661156 L651.094169,258.344551 L649.630499,258.344551 L649.630499,255.661156 L645.320804,255.661156 L645.320804,254.617613 L649.291687,248.36991 L651.094169,248.36991 L651.094169,254.454983 L652.368105,254.454983 Z M655.5936,254.49564 C654.197692,254.49564 653.26257,253.330125 653.26257,251.324355 C653.26257,249.318585 654.197692,248.180175 655.5936,248.180175 C656.989507,248.180175 657.938182,249.318585 657.938182,251.324355 C657.938182,253.330125 656.989507,254.49564 655.5936,254.49564 Z M655.5936,253.57407 C656.29833,253.57407 656.799772,252.855788 656.799772,251.324355 C656.799772,249.77937 656.29833,249.101745 655.5936,249.101745 C654.902422,249.101745 654.40098,249.77937 654.40098,251.324355 C654.40098,252.855788 654.902422,253.57407 655.5936,253.57407 Z M655.905307,258.520733 L661.366965,248.180175 L662.356298,248.180175 L656.881087,258.520733 L655.905307,258.520733 Z M662.681558,258.520733 C661.28565,258.520733 660.336975,257.368771 660.336975,255.363001 C660.336975,253.35723 661.28565,252.21882 662.681558,252.21882 C664.063913,252.21882 665.012588,253.35723 665.012588,255.363001 C665.012588,257.368771 664.063913,258.520733 662.681558,258.520733 Z M662.681558,257.612716 C663.372735,257.612716 663.874178,256.894433 663.874178,255.363001 C663.874178,253.818015 663.372735,253.14039 662.681558,253.14039 C661.976828,253.14039 661.475385,253.818015 661.475385,255.363001 C661.475385,256.894433 661.976828,257.612716 662.681558,257.612716 Z M667.099673,261.041498 C668.373608,258.981518 669.118996,256.799566 669.118996,254.102618 C669.118996,251.432775 668.373608,249.223718 667.099673,247.17729 L666.123893,247.597417 C667.289408,249.548978 667.831508,251.83935 667.831508,254.102618 C667.831508,256.379438 667.289408,258.669811 666.123893,260.607818 L667.099673,261.041498 Z" id="11-(13.4%)" fill="#000000"></path>
                <polygon id="Line-2" fill="#00AFDB" fill-rule="nonzero" points="240.961102 1.29043583 240.961102 321.373218 241.808133 321.373218 241.808133 1.29043583"></polygon>
                <polygon id="Line-2-Copy" fill="#00AFDB" fill-rule="nonzero" points="506.922204 1.29043583 506.922204 321.373218 507.769236 321.373218 507.769236 1.29043583"></polygon>
                <path d="M361.718503,304.084242 L367.749366,304.084242 L367.749366,302.471494 L365.865569,302.471494 L365.865569,294.055391 L364.388346,294.055391 C363.751378,294.448413 363.060201,294.705911 362.057316,294.895646 L362.057316,296.128924 L363.873351,296.128924 L363.873351,302.471494 L361.718503,302.471494 L361.718503,304.084242 Z M369.700926,304.084242 L375.731789,304.084242 L375.731789,302.471494 L373.847992,302.471494 L373.847992,294.055391 L372.370769,294.055391 C371.733801,294.448413 371.042624,294.705911 370.039739,294.895646 L370.039739,296.128924 L371.855774,296.128924 L371.855774,302.471494 L369.700926,302.471494 L369.700926,304.084242 Z M379.09281,304.084242 L381.112132,304.084242 C381.274762,300.154016 381.58647,298.107589 383.9175,295.261564 L383.9175,294.055391 L377.249669,294.055391 L377.249669,295.722349 L381.762652,295.722349 C379.85175,298.378639 379.268992,300.601249 379.09281,304.084242 Z" id="117-" fill="#000000"></path>
                <path d="M628.940861,304.273977 C627.029958,304.273977 625.593393,303.162672 625.593393,301.590582 C625.593393,300.303094 626.379438,299.476391 627.314561,298.974949 L627.314561,298.907186 C626.542068,298.351534 625.986416,297.592594 625.986416,296.521946 C625.986416,294.909198 627.260351,293.879208 629.008623,293.879208 C630.784001,293.879208 631.922411,294.949856 631.922411,296.549051 C631.922411,297.538384 631.298996,298.365086 630.634923,298.839424 L630.634923,298.907186 C631.556493,299.408629 632.315434,300.221779 632.315434,301.590582 C632.315434,303.108462 630.973736,304.273977 628.940861,304.273977 Z M629.577828,298.351534 C630.065718,297.836539 630.296111,297.267334 630.296111,296.671024 C630.296111,295.857874 629.808221,295.275116 628.967966,295.275116 C628.290341,295.275116 627.748241,295.722349 627.748241,296.521946 C627.748241,297.470621 628.520733,297.931406 629.577828,298.351534 Z M628.995071,302.864517 C629.835326,302.864517 630.458741,302.390179 630.458741,301.522819 C630.458741,300.479276 629.537171,300.045596 628.236131,299.517049 C627.694031,299.950729 627.314561,300.628354 627.314561,301.373741 C627.314561,302.281759 628.059948,302.864517 628.995071,302.864517 Z M633.521606,304.084242 L640.243647,304.084242 L640.243647,302.403732 L638.061694,302.403732 C637.600909,302.403732 636.936836,302.457942 636.435394,302.512152 C638.264981,300.723221 639.769309,298.771661 639.769309,296.955626 C639.769309,295.085381 638.508927,293.865656 636.611576,293.865656 C635.242774,293.865656 634.348309,294.407756 633.426739,295.383536 L634.510939,296.467736 C635.012381,295.912084 635.622244,295.437746 636.354079,295.437746 C637.302754,295.437746 637.858406,296.047609 637.858406,297.064046 C637.858406,298.609031 636.245659,300.492829 633.521606,302.932279 L633.521606,304.084242 Z" id="82-" fill="#000000"></path>
                <polygon id="Line" fill="#00AFDB" fill-rule="nonzero" points="0.847031314 1.27054697 762.730338 1.27054697 762.730338 0.423515657 0.847031314 0.423515657"></polygon>
                <polygon id="Line-Copy" fill="#00AFDB" fill-rule="nonzero" points="0.847031314 47.0102379 762.730338 47.0102379 762.730338 46.1632066 0.847031314 46.1632066"></polygon>
                <polygon id="Line-Copy-7" fill="#00AFDB" fill-rule="nonzero" points="0.847031314 321.448384 762.730338 321.448384 762.730338 320.601352 0.847031314 320.601352"></polygon>
                <polygon id="Line-Copy-2" fill="#00AFDB" fill-rule="nonzero" points="0.847031314 92.3264132 762.730338 92.3264132 762.730338 91.4793819 0.847031314 91.4793819"></polygon>
                <polygon id="Line-Copy-3" fill="#00AFDB" fill-rule="nonzero" points="0.847031314 138.066104 762.730338 138.066104 762.730338 137.219073 0.847031314 137.219073"></polygon>
                <polygon id="Line-Copy-4" fill="#00AFDB" fill-rule="nonzero" points="0.847031314 183.805795 762.730338 183.805795 762.730338 182.958764 0.847031314 182.958764"></polygon>
                <polygon id="Line-Copy-5" fill="#00AFDB" fill-rule="nonzero" points="0.847031314 229.545486 762.730338 229.545486 762.730338 228.698455 0.847031314 228.698455"></polygon>
                <polygon id="Line-Copy-6" fill="#00AFDB" fill-rule="nonzero" points="0 275.708693 761.883306 275.708693 761.883306 274.861661 0 274.861661"></polygon>
            </g>
        </g>
    </g>
</svg>